<?xml version="1.0" encoding="UTF-8"?>
<svg version="1.1" xmlns="http://www.w3.org/2000/svg" width="500" height="500">
<path d="M0 0 C3.45462862 1.4886722 6.1357116 3.58294259 9 6 C9.75539063 6.63035156 10.51078125 7.26070312 11.2890625 7.91015625 C16.60008167 12.53783582 21.6116365 17.4918419 26.625 22.4375 C27.25365967 23.05302734 27.88231934 23.66855469 28.5300293 24.30273438 C29.40075073 25.17188477 29.40075073 25.17188477 30.2890625 26.05859375 C30.81193848 26.57736084 31.33481445 27.09612793 31.87353516 27.63061523 C33 29 33 29 33 31 C33.56847656 31.24105469 34.13695312 31.48210937 34.72265625 31.73046875 C37.44788908 33.24968088 39.26690339 35.07418981 41.4375 37.3125 C42.60925781 38.51519531 42.60925781 38.51519531 43.8046875 39.7421875 C44.89136719 40.85980469 44.89136719 40.85980469 46 42 C47.01882077 42.98126056 48.03916606 43.96094704 49.0625 44.9375 C51 47 51 47 51 49 C52.485 49.495 52.485 49.495 54 50 C54 50.66 54 51.32 54 52 C54.60070312 52.26167969 55.20140625 52.52335937 55.8203125 52.79296875 C58.13404277 54.07422799 59.2545833 55.24807082 60.875 57.3125 C62.88577751 59.77467654 64.88320257 61.83786807 67.375 63.8125 C68.24125 64.534375 69.1075 65.25625 70 66 C70 66.66 70 67.32 70 68 C71.485 68.495 71.485 68.495 73 69 C73 69.66 73 70.32 73 71 C74.98 71.99 74.98 71.99 77 73 C77 73.66 77 74.32 77 75 C77.8971875 75.4021875 77.8971875 75.4021875 78.8125 75.8125 C80.99847854 76.99917406 82.41332594 78.09599113 84 80 C84 80.66 84 81.32 84 82 C85.98 82.99 85.98 82.99 88 84 C88 84.66 88 85.32 88 86 C88.59745529 86.26007339 89.19491058 86.52014679 89.81047058 86.7881012 C92.16676391 88.09230339 93.34004298 89.31336862 95.0324707 91.39038086 C99.89192581 97.12461362 105.19384267 102.41819741 110.48046875 107.75390625 C111.02068476 108.29944593 111.56090076 108.84498562 112.11748695 109.40705681 C114.96537681 112.28144721 117.81677366 115.1523103 120.6706543 118.02075195 C123.02763536 120.39117666 125.37709057 122.76870621 127.72045898 125.15258789 C130.56395979 128.04521513 133.41936347 130.92555254 136.28396034 133.79728508 C137.3706943 134.89074476 138.45315849 135.98846507 139.53124046 137.09045601 C141.03177612 138.6224156 142.54710939 140.13805055 144.06713867 141.65063477 C144.92538742 142.51697037 145.78363617 143.38330597 146.66789246 144.27589417 C148.79644619 146.21803546 148.79644619 146.21803546 151.08633423 145.95135498 C159.28155609 141.87720303 165.76319862 133.38418991 172.17578125 126.95703125 C173.23318678 125.90030093 174.29074059 124.84371895 175.34843445 123.78727722 C177.5494267 121.58774916 179.74862562 119.38644822 181.9465332 117.18383789 C184.75851741 114.36612892 187.57500625 111.55297197 190.39283466 108.74110889 C192.57110109 106.56645879 194.74697687 104.38942926 196.92214012 102.21167564 C197.95999031 101.17316062 198.99857766 100.13538173 200.03792763 99.09836769 C201.48776489 97.65107766 202.93434555 96.20060777 204.38012695 94.74926758 C205.61301201 93.51518913 205.61301201 93.51518913 206.87080383 92.25617981 C209.02111312 90.07495413 209.02111312 90.07495413 210.66374207 87.70317078 C211.10470718 87.14112442 211.5456723 86.57907806 212 86 C212.66 86 213.32 86 214 86 C214.99 84.02 214.99 84.02 216 82 C216.66 82 217.32 82 218 82 C218.4021875 81.1028125 218.4021875 81.1028125 218.8125 80.1875 C219.99917406 78.00152146 221.09599113 76.58667406 223 75 C223.66 75 224.32 75 225 75 C225.99 73.02 225.99 73.02 227 71 C227.66 71 228.32 71 229 71 C229.33 70.01 229.66 69.02 230 68 C230.66 68 231.32 68 232 68 C232 67.34 232 66.68 232 66 C233.50390625 64.51953125 233.50390625 64.51953125 235.5625 62.8125 C240.49969558 58.61193751 245.38834532 54.41748202 249 49 C249.66 49 250.32 49 251 49 C251 48.34 251 47.68 251 47 C255.30232558 42.23255814 255.30232558 42.23255814 259 41 C259.33 40.01 259.66 39.02 260 38 C261.40682657 36.82764453 262.81789108 35.65985238 264.25390625 34.5234375 C266.2285328 32.80060897 267.86647554 30.93413274 269.5625 28.9375 C272.16539802 25.87895243 274.86160805 23.51071356 278 21 C279.14499073 19.74714782 280.2680182 18.47405884 281.375 17.1875 C295.67183958 0.57475768 295.67183958 0.57475768 306.1875 -0.25 C312.09348705 0.13727784 316.92954656 1.37513225 320.9375 5.9375 C324.18803068 10.76404555 324.74145878 15.19543701 324 21 C321.99284277 27.23911525 317.76855637 32.58380001 313 37 C312.34 37 311.68 37 311 37 C310.78038857 37.54437336 310.56077713 38.08874672 310.3345108 38.64961624 C308.56329457 41.76913979 306.17444592 44.10127899 303.64782715 46.60614014 C303.09624986 47.1608374 302.54467257 47.71553467 301.97638083 48.28704095 C300.12635836 50.1450427 298.26926674 51.99581161 296.41210938 53.84667969 C295.08461146 55.17688742 293.75753946 56.50752031 292.43086243 57.83854675 C288.8261373 61.45239736 285.215105 65.0598837 281.60264778 68.66600323 C277.82760683 72.43598715 274.0574406 76.21084084 270.28649902 79.98492432 C263.95484878 86.32021417 257.61899044 92.65127262 251.28076172 98.97998047 C243.94360603 106.30624225 236.61369597 113.63969409 229.28749037 120.97690463 C223.0040967 127.26936011 216.71683154 133.55792732 210.42628527 139.84323239 C206.66603747 143.6003556 202.90716962 147.35883257 199.15177917 151.12081146 C195.62362393 154.6547238 192.09065096 158.18374638 188.55382347 161.70897865 C187.2531929 163.00695424 185.95428063 164.30665416 184.65717506 165.60815239 C182.89340462 167.37734653 181.12365775 169.14032989 179.35217285 170.90179443 C178.57504071 171.68561875 178.57504071 171.68561875 177.78220892 172.48527789 C174.22830053 176 174.22830053 176 172 176 C171.74476563 176.58652344 171.48953125 177.17304688 171.2265625 177.77734375 C168.04847318 183.53636548 162.13610243 187.62799437 155.93359375 189.5625 C149.15452681 191.09634949 144.72622683 189.44070463 139 186 C136.5 184.375 136.5 184.375 135 183 C135 182.34 135 181.68 135 181 C134.44828125 180.773125 133.8965625 180.54625 133.328125 180.3125 C130.31307583 178.61274074 128.18769631 176.45195184 125.75 174 C124.41195312 172.6696875 124.41195312 172.6696875 123.046875 171.3125 C121 169 121 169 121 167 C120.45336669 166.77798983 119.90673338 166.55597965 119.34353542 166.3272419 C116.26937871 164.58621868 113.971553 162.25081467 111.50343323 159.76412964 C110.96043089 159.22495285 110.41742856 158.68577606 109.85797161 158.13026059 C108.0392776 156.32188706 106.2278136 154.50644211 104.41625977 152.69091797 C103.11386115 151.39286648 101.81104517 150.09523365 100.50784302 148.79798889 C96.96792957 145.27148002 93.43446403 141.73857668 89.90251279 138.20409536 C86.95218007 135.25269342 83.9988772 132.30427246 81.04561466 129.35580266 C74.07549261 122.39678193 67.11072048 115.43243826 60.14916992 108.46484375 C52.97338013 101.28301965 45.78847707 94.11040696 38.59902149 86.94226539 C32.42363601 80.78451374 26.25409277 74.620951 20.08914417 68.45275033 C16.40858944 64.77038465 12.72585662 61.09026699 9.03744698 57.41576767 C5.56615515 53.95707758 2.10223534 50.49116786 -1.35624313 47.01966667 C-2.62383681 45.74971239 -3.89397165 44.48228848 -5.16687584 43.21765709 C-22.04790859 26.43841038 -22.04790859 26.43841038 -22.25 16.6875 C-22.16978147 11.73801681 -21.17062261 8.13589265 -17.53515625 4.55859375 C-11.83817942 -0.33049883 -7.38201675 -1.00128419 0 0 Z " fill="#000000" transform="translate(99,155)"/>
</svg>
