<svg version="1.1" xmlns="http://www.w3.org/2000/svg" width="500px" height="500px" transform="rotate(0) scale(1, 1)">
<path d="M0 0 C9.05019165 4.57749123 15.92413605 12.5230346 22.96508789 19.62451172 C24.35491535 21.01518649 25.7454059 22.40519883 27.13650513 23.79460144 C30.89259798 27.54983698 34.63939809 31.31422022 38.38454747 35.08036566 C42.3069123 39.0215413 46.23782943 42.95416832 50.16783142 46.88772583 C57.60029697 54.32949891 65.02508487 61.77888314 72.44711727 69.23106015 C80.90070811 77.71823522 89.36286473 86.19684775 97.82573712 94.6747663 C115.22667841 112.10702734 132.61688242 129.54996672 150 147 C154.06267479 145.38295371 156.77576408 142.48909584 159.78681946 139.4335022 C160.36107908 138.85883473 160.9353387 138.28416726 161.52700013 137.69208562 C163.45157311 135.76377986 165.36889881 133.82842539 167.28637695 131.89306641 C168.66430216 130.50966615 170.04269093 129.12672749 171.42150879 127.74421692 C174.39101845 124.76499112 177.35744072 121.78273628 180.32158852 118.79817581 C185.01002815 114.07793954 189.70660371 109.36585619 194.40458679 104.65512085 C206.07429981 92.95130955 217.73473436 81.23826566 229.39025879 69.52032471 C238.44466167 60.41745839 247.50223191 51.31780131 256.5704152 42.22865999 C261.23969595 37.54786203 265.90194663 32.86020682 270.55904162 28.16728616 C273.46087077 25.24624213 276.36895953 22.33149273 279.27881622 19.41844749 C280.62502512 18.06822514 281.96865193 16.71542259 283.30946159 15.35983849 C285.14348138 13.50634524 286.98661697 11.66240479 288.83222961 9.82046509 C289.35773495 9.28485698 289.8832403 8.74924888 290.42467004 8.19741023 C294.48758266 4.17281049 298.88840866 0.62972682 304.625 -0.53125 C310.61253769 -0.45246661 314.18831274 0.34311769 319 4 C323.20409674 8.41969144 323.46335522 12.29062915 323.53125 18.12109375 C322.23791055 25.12985236 317.4872234 29.94869424 312.59902954 34.78192139 C311.6385765 35.74939438 311.6385765 35.74939438 310.65872037 36.73641229 C308.52254444 38.88450424 306.37586626 41.02177207 304.22900391 43.15917969 C302.69074824 44.7015025 301.15313108 46.24446234 299.61610413 47.78800964 C295.4474533 51.97032154 291.26938713 56.14310673 287.08914614 60.31383038 C282.71390153 64.68147359 278.34598816 69.05643858 273.97689819 73.43023682 C266.64005327 80.77253729 259.2969107 88.10849483 251.95019531 95.44091797 C243.45692368 103.91785746 234.97453891 112.40554137 226.4976908 120.8989017 C219.21732298 128.19288277 211.93112592 135.48100205 204.64002359 142.7642529 C200.28619324 147.11340667 195.93441411 151.46456085 191.58787918 155.82100677 C187.50217314 159.91537797 183.40919948 164.00234211 179.31049919 168.08370399 C177.80749901 169.58273724 176.30704626 171.08432964 174.80933952 172.58865166 C172.76473144 174.64145649 170.71110781 176.68479881 168.65493774 178.72601318 C168.06426439 179.3233787 167.47359103 179.92074422 166.86501849 180.53621173 C162.28158625 185.05519561 157.75849812 188.42664749 151.0625 188.4375 C150.26972656 188.45683594 149.47695312 188.47617187 148.66015625 188.49609375 C141.78158421 187.21330572 136.95874821 182.39361321 132.21807861 177.59902954 C131.57309662 176.95872752 130.92811462 176.31842549 130.26358771 175.65872037 C128.11549576 173.52254444 125.97822793 171.37586626 123.84082031 169.22900391 C122.2984975 167.69074824 120.75553766 166.15313108 119.21199036 164.61610413 C115.02967846 160.4474533 110.85689327 156.26938713 106.68616962 152.08914614 C102.31852641 147.71390153 97.94356142 143.34598816 93.56976318 138.97689819 C86.22746271 131.64005327 78.89150517 124.2969107 71.55908203 116.95019531 C63.08214254 108.45692368 54.59445863 99.97453891 46.1010983 91.4976908 C38.80711723 84.21732298 31.51899795 76.93112592 24.2357471 69.64002359 C19.88659333 65.28619324 15.53543915 60.93441411 11.17899323 56.58787918 C7.08462203 52.50217314 2.99765789 48.40919948 -1.08370399 44.31049919 C-2.58273724 42.80749901 -4.08432964 41.30704626 -5.58865166 39.80933952 C-7.64145649 37.76473144 -9.68479881 35.71110781 -11.72601318 33.65493774 C-12.3233787 33.06426439 -12.92074422 32.47359103 -13.53621173 31.86501849 C-18.25120053 27.08278597 -21.4193637 22.50730113 -21.5 15.5625 C-21.34266728 10.05585463 -19.91593009 6.82866703 -16 3 C-11.64432848 -0.97134756 -5.57164847 -1.23892183 0 0 Z " fill="#c92f1e" transform="translate(99,156)"/>
</svg>