<?xml version="1.0" encoding="UTF-8"?>
<svg version="1.1" xmlns="http://www.w3.org/2000/svg" width="488" height="421">
<path d="M0 0 C9.13366974 7.9092755 16.02546132 16.52890076 22 27 C22.50144531 27.85078125 23.00289062 28.7015625 23.51953125 29.578125 C33.4822794 47.75788295 34.39438253 70.28360456 29 90 C24.56229467 104.52601681 16.44888105 116.09516778 6 127 C5.41476562 127.63679687 4.82953125 128.27359375 4.2265625 128.9296875 C-13.68458835 147.84991727 -42.52376047 157.82908648 -68 159 C-69.51207031 159.07927734 -69.51207031 159.07927734 -71.0546875 159.16015625 C-102.18577096 160.00252674 -131.76903252 149.53157106 -154.59375 128.33203125 C-171.68448074 111.76844967 -181.66562127 90.72162971 -182.1875 66.75 C-181.88377361 44.88170022 -173.56795408 25.15088967 -159 9 C-158.31292969 8.23042969 -157.62585938 7.46085937 -156.91796875 6.66796875 C-117.2058641 -35.40181187 -43.58357785 -36.57567369 0 0 Z M-152 38 C-152 56.81 -152 75.62 -152 95 C-148.04 95 -144.08 95 -140 95 C-140 89.39 -140 83.78 -140 78 C-135 79 -135 79 -133.53710938 80.58227539 C-133.14330078 81.24735107 -132.74949219 81.91242676 -132.34375 82.59765625 C-131.65490723 83.67756836 -131.65490723 83.67756836 -130.95214844 84.77929688 C-130.23333496 85.90948242 -130.23333496 85.90948242 -129.5 87.0625 C-125.54159909 93.0059492 -125.54159909 93.0059492 -119.328125 96.05859375 C-116.07973721 96.00539963 -113.16099874 95.73416745 -110 95 C-112.04306702 90.1233936 -115.69061774 86.2669541 -119.01171875 82.22070312 C-121.65277619 78.93885293 -123.70050815 76.07638218 -125 72 C-124.14535156 71.01257813 -123.29070312 70.02515625 -122.41015625 69.0078125 C-121.2941626 67.71363499 -120.17828309 66.41935905 -119.0625 65.125 C-118.49853516 64.47402344 -117.93457031 63.82304688 -117.35351562 63.15234375 C-116.81533203 62.52714844 -116.27714844 61.90195313 -115.72265625 61.2578125 C-115.22515869 60.6817627 -114.72766113 60.10571289 -114.21508789 59.51220703 C-112.91115852 57.9986699 -112.91115852 57.9986699 -112 56 C-116.4784411 55.38557973 -120.54239676 55.1533614 -125 56 C-128.47785014 58.85718765 -130.65725811 62.19160185 -133 66 C-135.32123759 69.59978022 -135.5658902 69.89147255 -140 71 C-140 60.11 -140 49.22 -140 38 C-143.96 38 -147.92 38 -152 38 Z M-10 38 C-10 56.81 -10 75.62 -10 95 C-6.04 95 -2.08 95 2 95 C2 76.19 2 57.38 2 38 C-1.96 38 -5.92 38 -10 38 Z M-102.625 60.94140625 C-106.63221455 67.12299006 -107.90949804 72.67233966 -107 80 C-105.30709329 85.11520519 -103.20463037 88.95249533 -99.125 92.5 C-92.09202364 95.87582865 -85.47429747 97.33431817 -77.9375 94.8125 C-73.87345423 93.12046538 -71.04934183 91.19809021 -68 88 C-67.03701276 84.82437198 -67.03701276 84.82437198 -67 82 C-70.63 82 -74.26 82 -78 82 C-78.33 83.65 -78.66 85.3 -79 87 C-80.77049689 87.05410687 -82.54146849 87.09284119 -84.3125 87.125 C-85.79169922 87.15980469 -85.79169922 87.15980469 -87.30078125 87.1953125 C-90 87 -90 87 -93 85 C-94.16152902 81.51541293 -94.13270324 78.73309492 -94.125 75.0625 C-94.12886719 73.22365234 -94.12886719 73.22365234 -94.1328125 71.34765625 C-94.02667535 68.67237569 -93.79917654 66.53072572 -93 64 C-88.32517708 62.50405667 -83.64398011 62.45200663 -79 64 C-77.8125 67.0625 -77.8125 67.0625 -77 70 C-73.7 70 -70.4 70 -67 70 C-67.41273678 64.73760609 -68.11949027 61.67627237 -72 58 C-80.7655976 52.59143978 -95.61799945 52.57006185 -102.625 60.94140625 Z M-57.5 61.625 C-59.17799766 63.8136587 -59.17799766 63.8136587 -59 66 C-55.04 66 -51.08 66 -47 66 C-47 65.01 -47 64.02 -47 63 C-42.71 63 -38.42 63 -34 63 C-33.67 65.97 -33.34 68.94 -33 72 C-33.90621094 71.96519531 -34.81242187 71.93039063 -35.74609375 71.89453125 C-47.40039419 71.48108215 -47.40039419 71.48108215 -57.65625 76.32421875 C-59.93246853 78.73321669 -60.95425898 80.75604787 -61.5625 84 C-60.82002818 87.9598497 -59.68510141 89.97926091 -57 93 C-53.14571007 95.35350447 -49.37447331 96.28228723 -44.875 95.9375 C-40.79631866 94.95072226 -38.3477155 93.47093287 -35 91 C-34.34 91 -33.68 91 -33 91 C-32.34 92.32 -31.68 93.64 -31 95 C-27.37 95 -23.74 95 -20 95 C-20.06921754 90.97926384 -20.15734471 86.95941536 -20.26245117 82.93945312 C-20.29555386 81.5740075 -20.32363086 80.20842987 -20.34643555 78.84277344 C-20.38024991 76.87146776 -20.43408286 74.90053809 -20.48828125 72.9296875 C-20.51446533 71.74616699 -20.54064941 70.56264648 -20.56762695 69.34326172 C-21.13032686 64.99226654 -22.5639871 61.59145759 -25.515625 58.3203125 C-35.34004199 51.54943052 -49.39489005 53.11463456 -57.5 61.625 Z " fill="#F5F6F8" transform="translate(327,42)"/>
<path d="M0 0 C2.57161458 0.03255208 5.14322917 0.06510417 7.71484375 0.09765625 C11.21386942 8.33532416 14.51407797 16.63856991 17.68188477 25.00854492 C18.40872113 26.92698898 19.14074262 28.84340307 19.87304688 30.75976562 C20.34033203 31.99146484 20.80761719 33.22316406 21.2890625 34.4921875 C21.70760498 35.59409424 22.12614746 36.69600098 22.55737305 37.83129883 C23.76143748 41.22914277 24.75993244 44.62287827 25.71484375 48.09765625 C21.75484375 48.09765625 17.79484375 48.09765625 13.71484375 48.09765625 C12.72484375 45.12765625 11.73484375 42.15765625 10.71484375 39.09765625 C5.43484375 38.76765625 0.15484375 38.43765625 -5.28515625 38.09765625 C-6.27515625 41.39765625 -7.26515625 44.69765625 -8.28515625 48.09765625 C-12.24515625 48.09765625 -16.20515625 48.09765625 -20.28515625 48.09765625 C-16.28730276 36.48799562 -12.15981704 24.93018265 -7.91015625 13.41015625 C-7.46945801 12.21028076 -7.02875977 11.01040527 -6.57470703 9.77416992 C-5.95571533 8.10318237 -5.95571533 8.10318237 -5.32421875 6.3984375 C-4.95506348 5.39981689 -4.5859082 4.40119629 -4.20556641 3.37231445 C-2.89099584 0.12354683 -2.89099584 0.12354683 0 0 Z M1.71484375 15.09765625 C1.04452656 17.05474305 0.37869692 19.01336738 -0.28515625 20.97265625 C-0.65640625 22.06320312 -1.02765625 23.15375 -1.41015625 24.27734375 C-2.38392825 26.92386479 -2.38392825 26.92386479 -2.28515625 29.09765625 C1.01484375 29.09765625 4.31484375 29.09765625 7.71484375 29.09765625 C7.23673198 27.32653781 6.75731595 25.55577142 6.27734375 23.78515625 C6.01050781 22.79902344 5.74367188 21.81289063 5.46875 20.796875 C4.9340495 18.88248099 4.34339837 16.9833201 3.71484375 15.09765625 C3.05484375 15.09765625 2.39484375 15.09765625 1.71484375 15.09765625 Z " fill="#FDFDFD" transform="translate(392.28515625,322.90234375)"/>
<path d="M0 0 C3.67304615 2.50434965 6.90988601 5.37865191 8.37402344 9.72924805 C9.18015279 14.32994343 8.97775506 19.02996645 9 23.6875 C9.020625 24.75548828 9.04125 25.82347656 9.0625 26.92382812 C9.09636191 33.76816692 8.85752029 39.17912254 4.28515625 44.6171875 C-0.84793814 48.56572165 -0.84793814 48.56572165 -4.25 48.875 C-5.85875 49.0296875 -5.85875 49.0296875 -7.5 49.1875 C-12.15618038 48.79948497 -15.49276489 47.66842263 -19.25 44.875 C-24.44230533 38.57858377 -24.45150514 31.37205455 -24.5 23.625 C-24.520625 22.81675781 -24.54125 22.00851562 -24.5625 21.17578125 C-24.60206431 14.9938572 -24.05694761 8.10366682 -19.83300781 3.24511719 C-13.9523646 -1.8446684 -7.20635656 -2.49450804 0 0 Z M-8.25 6.875 C-11.46924826 9.15190502 -13.00903462 10.51676186 -13.7109375 14.47314453 C-13.85119677 17.64083829 -13.83286582 20.76788253 -13.75 23.9375 C-13.75257812 25.02611328 -13.75515625 26.11472656 -13.7578125 27.23632812 C-13.78384168 34.15086683 -13.78384168 34.15086683 -10.25 39.875 C-6.785 39.38 -6.785 39.38 -3.25 38.875 C-0.68951463 33.99788501 -0.95336002 29.23859799 -1 23.875 C-0.99226563 22.98554688 -0.98453125 22.09609375 -0.9765625 21.1796875 C-0.96182821 14.77565895 -0.96182821 14.77565895 -3.25 8.875 C-5.77372901 7.51421965 -5.77372901 7.51421965 -8.25 6.875 Z " fill="#FDFDFD" transform="translate(80.25,323.125)"/>
<path d="M0 0 C5.29888082 3.57366381 7.4682997 7.64828132 8.6875 13.8125 C9.62700619 23.43625752 10.56496612 35.59842655 4.6875 43.8125 C-0.45557565 48.11588983 -4.67161614 49.25522559 -11.3125 48.8125 C-16.49094803 47.14486419 -19.36175533 45.40254726 -22.3125 40.8125 C-24.92828722 35.22596364 -24.64324951 30.00363699 -24.625 23.9375 C-24.64111328 22.87402344 -24.65722656 21.81054688 -24.67382812 20.71484375 C-24.67832073 13.48175022 -24.11581035 8.2699161 -19.4375 2.5 C-13.64067972 -2.10335728 -6.83792923 -2.45133312 0 0 Z M-11.5625 8.5625 C-15.15602641 13.18274824 -14.49603117 18.10733182 -14.5 23.6875 C-14.51224609 24.58597656 -14.52449219 25.48445313 -14.53710938 26.41015625 C-14.54722976 30.9778227 -14.50320769 34.67353448 -12.3125 38.8125 C-10.0025 39.1425 -7.6925 39.4725 -5.3125 39.8125 C-2.45901399 36.61335125 -1.93599915 34.56563899 -1.94921875 30.3125 C-1.95018555 28.7346875 -1.95018555 28.7346875 -1.95117188 27.125 C-1.96728516 26.031875 -1.98339844 24.93875 -2 23.8125 C-1.99677734 22.719375 -1.99355469 21.62625 -1.99023438 20.5 C-1.84372976 13.83495598 -1.84372976 13.83495598 -4.3125 7.8125 C-7.63954035 6.4116409 -8.67247376 6.31470181 -11.5625 8.5625 Z " fill="#FDFDFD" transform="translate(285.3125,323.1875)"/>
<path d="M0 0 C3.67751517 2.5073967 6.91907502 5.38482577 8.37402344 9.74511719 C9.15342454 14.16037383 8.97756089 18.65400691 9 23.125 C9.020625 24.13691406 9.04125 25.14882813 9.0625 26.19140625 C9.09639075 32.72384735 8.95062403 39.27168215 4.3684082 44.43041992 C1.71014604 46.79169751 -0.68637675 48.55103425 -4.25 48.875 C-5.85875 49.0296875 -5.85875 49.0296875 -7.5 49.1875 C-12.1523931 48.79980058 -15.49857556 47.67225779 -19.25 44.875 C-24.40265099 38.49341214 -24.43185197 31.85113611 -24.4375 24.0625 C-24.44974609 23.18529297 -24.46199219 22.30808594 -24.47460938 21.40429688 C-24.48885804 15.05414084 -24.30703905 8.61522431 -19.9375 3.5625 C-14.32199745 -2.05300255 -7.35595927 -2.54629359 0 0 Z M-8.25 6.875 C-11.46924826 9.15190502 -13.00903462 10.51676186 -13.7109375 14.47314453 C-13.85119677 17.64083829 -13.83286582 20.76788253 -13.75 23.9375 C-13.75257813 25.02611328 -13.75515625 26.11472656 -13.7578125 27.23632812 C-13.87447388 34.20752938 -13.87447388 34.20752938 -10.25 39.875 C-7.12413125 40.20897787 -7.12413125 40.20897787 -4.25 39.875 C-0.87438271 34.46866835 -0.82479633 29.9751367 -0.9375 23.8125 C-0.93427734 22.92755859 -0.93105469 22.04261719 -0.92773438 21.13085938 C-0.96088808 14.75272752 -0.96088808 14.75272752 -3.25 8.875 C-5.77372901 7.51421965 -5.77372901 7.51421965 -8.25 6.875 Z " fill="#FDFDFD" transform="translate(241.25,323.125)"/>
<path d="M0 0 C4.55868895 3.55577738 6.50851494 6.92018601 7.875 12.5 C9.35063225 35.74120801 9.35063225 35.74120801 3.375 43.375 C-0.15131715 47.02846801 -3.10291729 48.32716835 -8.23046875 48.53125 C-13.92304725 48.32456031 -17.30271185 47.03718629 -21.5 43.203125 C-26.00426284 37.41924204 -25.24228303 30.58184459 -25.25 23.625 C-25.27449219 22.47451172 -25.29898438 21.32402344 -25.32421875 20.13867188 C-25.34846468 13.08714698 -24.75410376 8.38871494 -20.875 2.4375 C-15.07156254 -2.70332619 -6.9422998 -3.44135462 0 0 Z M-13.875 9.4375 C-15.39593434 14.00030301 -15.10039483 18.53294568 -15.125 23.3125 C-15.145625 24.30636719 -15.16625 25.30023438 -15.1875 26.32421875 C-15.33629484 33.43152811 -15.33629484 33.43152811 -11.875 39.4375 C-8.875 40.27083333 -8.875 40.27083333 -5.875 39.4375 C-1.65298968 34.79727168 -2.36027051 28.83666011 -2.375 22.9375 C-2.33246094 21.38869141 -2.33246094 21.38869141 -2.2890625 19.80859375 C-2.14819523 13.45801056 -2.14819523 13.45801056 -5.28125 8.21875 C-9.24246875 5.49839495 -10.43561316 6.44190501 -13.875 9.4375 Z " fill="#FDFDFD" transform="translate(198.875,323.5625)"/>
<path d="M0 0 C4.20005435 3.23813714 6.74593874 6.99706486 7.53515625 12.265625 C7.59703125 13.27625 7.65890625 14.286875 7.72265625 15.328125 C4.09265625 15.328125 0.46265625 15.328125 -3.27734375 15.328125 C-3.73109375 14.19375 -4.18484375 13.059375 -4.65234375 11.890625 C-5.84830181 8.28090808 -5.84830181 8.28090808 -8.27734375 7.328125 C-12.31011474 7.00266143 -12.31011474 7.00266143 -16.27734375 7.328125 C-19.52922892 10.37021112 -20.23117332 13.51392718 -20.48046875 17.91015625 C-20.50169295 19.32023934 -20.5171156 20.73041928 -20.52734375 22.140625 C-20.54796875 22.83994141 -20.56859375 23.53925781 -20.58984375 24.25976562 C-20.62563053 29.04177434 -19.82924526 32.28348499 -17.27734375 36.328125 C-13.92453311 38.00453032 -10.5850241 37.69136954 -7.02734375 36.703125 C-4.47296247 34.69611114 -4.07822707 32.39817771 -3.27734375 29.328125 C0.35265625 29.328125 3.98265625 29.328125 7.72265625 29.328125 C6.68122442 35.6713916 5.95668686 39.18958917 0.72265625 43.328125 C-4.67622558 47.01516625 -8.754203 47.65981012 -15.27734375 47.328125 C-20.61913615 46.29725278 -24.77940681 44.57201968 -28.27734375 40.328125 C-33.56237317 31.99970403 -33.6216304 21.1943276 -31.76953125 11.734375 C-29.79919244 5.84600615 -26.45416966 1.63422055 -21.15234375 -1.546875 C-14.2018319 -4.07571047 -6.40261898 -3.73376548 0 0 Z " fill="#FDFDFD" transform="translate(358.27734375,324.671875)"/>
<path d="M0 0 C3.77764283 4.06823074 4.4432585 7.32130526 4.43359375 12.65625 C3.24995094 19.05431927 -0.89257288 23.53573509 -5.0625 28.25 C-5.60455078 28.87390625 -6.14660156 29.4978125 -6.70507812 30.140625 C-8.75318452 32.48999797 -10.79544657 34.79544657 -13 37 C-7.06 37.33 -1.12 37.66 5 38 C5 40.64 5 43.28 5 46 C-5.89 46 -16.78 46 -28 46 C-28 43.36 -28 40.72 -28 38 C-27.34 38 -26.68 38 -26 38 C-25.77957031 37.44957031 -25.55914062 36.89914062 -25.33203125 36.33203125 C-23.56451576 33.23758331 -21.26003309 31.14863788 -18.6875 28.6875 C-10.45332017 21.15027643 -10.45332017 21.15027643 -7 11 C-7.55876888 8.71502233 -7.55876888 8.71502233 -9 7 C-11.95319818 5.76156206 -12.87438528 5.95812843 -16 7 C-17.22520264 10.00847418 -17.22520264 10.00847418 -18 13 C-21.63 13 -25.26 13 -29 13 C-28.7722441 7.41998041 -27.45238519 4.50415989 -23.59375 0.4453125 C-17.21944886 -5.33530373 -6.95287677 -4.17172606 0 0 Z " fill="#FDFDFD" transform="translate(158,325)"/>
<path d="M0 0 C3.3 0 6.6 0 10 0 C10 12.87 10 25.74 10 39 C16.93 39 23.86 39 31 39 C31 41.97 31 44.94 31 48 C20.77 48 10.54 48 0 48 C0 32.16 0 16.32 0 0 Z " fill="#FEFEFE" transform="translate(427,323)"/>
<path d="M0 0 C3.196875 -0.0825 6.39375 -0.165 9.6875 -0.25 C10.68612061 -0.28641602 11.68474121 -0.32283203 12.71362305 -0.36035156 C16.98285395 -0.41369006 19.36670269 -0.38848656 23.08203125 1.890625 C25.89207478 4.98110057 26.17707246 6.77890319 26.25 10.875 C26.27578125 11.73867187 26.3015625 12.60234375 26.328125 13.4921875 C25.93690173 16.48225103 25.07073811 17.83879275 23 20 C22.34 20 21.68 20 21 20 C21.5053125 20.98742187 22.010625 21.97484375 22.53125 22.9921875 C23.18771013 24.28635176 23.84394867 25.58062845 24.5 26.875 C24.83386719 27.52597656 25.16773438 28.17695313 25.51171875 28.84765625 C28 33.7734375 28 33.7734375 28 36 C25.36 36 22.72 36 20 36 C19.56429688 35.07316406 19.12859375 34.14632812 18.6796875 33.19140625 C18.07927492 31.98119965 17.47764831 30.77159483 16.875 29.5625 C16.59140625 28.95083984 16.3078125 28.33917969 16.015625 27.70898438 C15.0365528 25.67116183 15.0365528 25.67116183 13 23 C11.02 22.67 9.04 22.34 7 22 C7 26.62 7 31.24 7 36 C4.69 36 2.38 36 0 36 C0 24.12 0 12.24 0 0 Z M7 5 C7 8.96 7 12.92 7 17 C9.413125 16.814375 9.413125 16.814375 11.875 16.625 C12.77992188 16.55539063 13.68484375 16.48578125 14.6171875 16.4140625 C17.17941903 16.20431868 17.17941903 16.20431868 19 14 C19.58345476 11.04253508 19.58345476 11.04253508 19 8 C16.02723853 5.29748957 14.21225709 5.01043887 10.1875 4.8125 C8.6096875 4.9053125 8.6096875 4.9053125 7 5 Z " fill="#FDFDFD" transform="translate(272,232)"/>
<path d="M0 0 C3.952616 2.08120758 6.20444189 4.23035698 8.02734375 8.28125 C10.01923172 14.77960792 10.23689126 22.56661582 7.33984375 28.78125 C5.03791987 32.63917817 2.62797591 35.55436524 -1.859375 36.80859375 C-6.36253496 37.57198658 -9.79556841 37.32338183 -13.97265625 35.28125 C-18.85616749 31.06367211 -21.08668621 27.54492265 -21.78515625 21.15625 C-22.23645311 14.90495277 -21.73055118 8.55014454 -17.5390625 3.58203125 C-12.52250462 -0.78400043 -6.32307482 -2.303853 0 0 Z M-12.97265625 9.28125 C-14.37319131 12.08232012 -14.18020665 14.47016681 -14.22265625 17.59375 C-14.2484375 18.72425781 -14.27421875 19.85476562 -14.30078125 21.01953125 C-13.93914649 24.61435293 -13.15325202 26.43009544 -10.97265625 29.28125 C-8.16369562 30.939846 -8.16369562 30.939846 -4.97265625 31.28125 C-1.50222588 30.01927532 -0.3117976 28.95953269 1.33984375 25.65625 C2.72077598 18.87712815 2.96639954 13.26277916 -0.97265625 7.28125 C-6.21314748 3.78758918 -8.71143717 5.36553517 -12.97265625 9.28125 Z " fill="#FDFDFD" transform="translate(253.97265625,231.71875)"/>
<path d="M0 0 C2.51728325 2.08574898 4.38706453 4.0785054 6.1875 6.8125 C6.1875 8.1325 6.1875 9.4525 6.1875 10.8125 C3.8775 10.8125 1.5675 10.8125 -0.8125 10.8125 C-1.10125 10.173125 -1.39 9.53375 -1.6875 8.875 C-2.64073451 6.66043921 -2.64073451 6.66043921 -4.8125 5.8125 C-6.81210012 5.772508 -8.81297242 5.76903201 -10.8125 5.8125 C-11.4725 7.7925 -12.1325 9.7725 -12.8125 11.8125 C-12.23242188 11.99425781 -11.65234375 12.17601562 -11.0546875 12.36328125 C2.61150667 16.76081898 2.61150667 16.76081898 6.1875 22.8125 C6.77073624 26.89515368 6.63361341 29.00949586 4.625 32.625 C1.03594907 35.84594314 -2.24013504 36.77664822 -7.0546875 36.84375 C-12.27546861 36.49218225 -15.7415567 35.2876955 -19.8125 31.8125 C-21.89257422 28.7869375 -21.8125 27.66774891 -21.8125 23.8125 C-18.5 23.5 -18.5 23.5 -14.8125 23.8125 C-13.79383771 25.46782623 -12.79439187 27.13510138 -11.8125 28.8125 C-8.35828685 29.97275399 -8.35828685 29.97275399 -4.8125 29.8125 C-2.84818595 28.51985301 -2.84818595 28.51985301 -1.8125 26.8125 C-2.3334962 24.84247204 -2.3334962 24.84247204 -3.8125 22.8125 C-6.73333623 21.42989846 -9.62047261 20.32588277 -12.66992188 19.27734375 C-16.15364686 17.95125706 -17.69028109 16.99939411 -19.75390625 13.84375 C-21.10769103 9.96722976 -20.97680253 7.74202104 -19.8125 3.8125 C-14.38632041 -1.61367959 -7.09502268 -2.99567624 0 0 Z " fill="#FDFDFD" transform="translate(377.8125,232.1875)"/>
<path d="M0 0 C2.31 0 4.62 0 7 0 C8.60562194 3.99941735 10.20923338 7.99963794 11.8125 12 C12.49022461 13.68802734 12.49022461 13.68802734 13.18164062 15.41015625 C14.46111094 18.60416243 15.73303849 21.80101354 17 25 C17.32790527 25.82242187 17.65581055 26.64484375 17.99365234 27.4921875 C19.15674223 30.47888745 20 32.76443936 20 36 C17.69 36 15.38 36 13 36 C12.01 33.69 11.02 31.38 10 29 C5.71 28.67 1.42 28.34 -3 28 C-3.66 30.64 -4.32 33.28 -5 36 C-7.97 36 -10.94 36 -14 36 C-12.49034892 31.99737526 -10.97863596 27.99553702 -9.46508789 23.99438477 C-8.95151293 22.63587016 -8.43848152 21.27714993 -7.92602539 19.91821289 C-7.18522022 17.95403325 -6.44240032 15.99062528 -5.69921875 14.02734375 C-5.25408936 12.84906006 -4.80895996 11.67077637 -4.3503418 10.45678711 C-2.97401804 6.93348787 -1.50853751 3.46828071 0 0 Z M3 9 C1.68 13.29 0.36 17.58 -1 22 C1.97 22 4.94 22 8 22 C7.54803755 20.39402675 7.08817673 18.79027492 6.625 17.1875 C6.36976563 16.29417969 6.11453125 15.40085938 5.8515625 14.48046875 C5.04733339 11.79532104 5.04733339 11.79532104 3 9 Z " fill="#FDFDFD" transform="translate(177,232)"/>
<path d="M0 0 C7.92 0 15.84 0 24 0 C24 1.65 24 3.3 24 5 C18.39 5 12.78 5 7 5 C7 7.97 7 10.94 7 14 C11.95 14 16.9 14 22 14 C22 15.98 22 17.96 22 20 C17.05 20 12.1 20 7 20 C7 23.3 7 26.6 7 30 C12.61 30 18.22 30 24 30 C24 31.98 24 33.96 24 36 C16.08 36 8.16 36 0 36 C0 24.12 0 12.24 0 0 Z " fill="#FDFDFD" transform="translate(326,232)"/>
<path d="M0 0 C4.14625621 1.75064151 6.51563224 4.27344837 9 8 C9.75 10.8125 9.75 10.8125 10 13 C7.36 13 4.72 13 2 13 C1.34 11.35 0.68 9.7 0 8 C-4.8323117 6.79806002 -4.8323117 6.79806002 -9.375 8.3125 C-12.53338919 13.53598981 -12.50494997 19.61294971 -11.3125 25.5 C-10.32254771 28.93562299 -10.32254771 28.93562299 -8.3125 30.5625 C-5.0503636 31.17966094 -2.23464988 30.62204805 1 30 C1.33 28.35 1.66 26.7 2 25 C4.64 25 7.28 25 10 25 C8.89180612 29.80217349 8.06013878 33.03719603 4 36 C-1.0340135 38.03296699 -5.78800568 38.73733144 -11 37 C-15.1026304 34.60277675 -17.51246894 32.10224413 -19.4375 27.75 C-20.50628288 20.62478079 -20.78984185 13.77533021 -18 7 C-12.68922724 0.71092699 -8.0277212 -0.92074222 0 0 Z " fill="#FDFDFD" transform="translate(149,231)"/>
<path d="M0 0 C2.97 0 5.94 0 9 0 C7.38537692 5.01393104 5.76780348 10.02689796 4.14770508 15.0390625 C3.59907804 16.73770546 3.0512029 18.43659149 2.50415039 20.13574219 C-7.16623585 50.16623585 -7.16623585 50.16623585 -9 52 C-11.67058851 52.14115161 -14.32432238 52.04247107 -17 52 C-15.38339812 47.00502066 -13.76592223 42.01032542 -12.14770508 37.01586914 C-11.5996249 35.32388589 -11.05176594 33.63183096 -10.50415039 31.93969727 C-7.05292558 21.27601364 -3.56594396 10.62593384 0 0 Z " fill="#FDFDFD" transform="translate(113,323)"/>
<path d="M0 0 C2.31 0 4.62 0 7 0 C7 9.9 7 19.8 7 30 C12.61 30 18.22 30 24 30 C24 31.98 24 33.96 24 36 C16.08 36 8.16 36 0 36 C0 24.12 0 12.24 0 0 Z " fill="#FEFEFE" transform="translate(204,232)"/>
<path d="M0 0 C2.31 0 4.62 0 7 0 C7 11.88 7 23.76 7 36 C4.69 36 2.38 36 0 36 C0 24.12 0 12.24 0 0 Z " fill="#FDFDFD" transform="translate(308,232)"/>
<path d="M0 0 C1.61648438 0.04060547 1.61648438 0.04060547 3.265625 0.08203125 C4.08546875 0.11683594 4.9053125 0.15164062 5.75 0.1875 C6.2336272 7.56281486 6.2336272 7.56281486 4.25 10.125 C-0.03743212 11.94715865 -4.30473201 12.91697549 -8.75 11.25 C-9.245 10.899375 -9.74 10.54875 -10.25 10.1875 C-10.5 6.875 -10.5 6.875 -10.25 3.1875 C-7.10709851 -0.13672273 -4.42677159 -0.14435125 0 0 Z " fill="#F7F7F8" transform="translate(288.25,118.8125)"/>
</svg>
