<?xml version="1.0" encoding="UTF-8"?>
<svg version="1.1" xmlns="http://www.w3.org/2000/svg" width="1067" height="1029">
<path d="M0 0 C352.11 0 704.22 0 1067 0 C1067 339.57 1067 679.14 1067 1029 C714.89 1029 362.78 1029 0 1029 C0 689.43 0 349.86 0 0 Z " fill="#26262D" transform="translate(0,0)"/>
<path d="M0 0 C1.27931396 0.01123901 1.27931396 0.01123901 2.58447266 0.02270508 C20.23553885 0.30305475 37.70833554 1.76361304 55.125 4.625 C56.32946777 4.82182373 57.53393555 5.01864746 58.77490234 5.22143555 C67.11972994 6.6741905 75.14899113 8.79126384 83.25 11.25 C84.02827148 11.4783252 84.80654297 11.70665039 85.60839844 11.94189453 C116.70804276 21.06946387 144.28104949 36.57868138 168.1875 58.4375 C168.69482666 58.90003174 169.20215332 59.36256348 169.72485352 59.83911133 C182.6781859 71.93497258 193.57985447 86.92459612 202.19384766 102.36083984 C202.90020501 103.62431493 203.61612603 104.88248886 204.34130859 106.13525391 C220.42890082 133.94998475 232.60911966 169.66970028 234.61328125 201.90625 C234.84411131 208.90768156 234.84411131 208.90768156 238.56640625 214.4609375 C241.39520534 216.22364496 244.2896232 217.72259339 247.25 219.25 C253.45740606 224.06342044 257.24287491 230.61022545 261.25 237.25 C261.91 238.24 262.57 239.23 263.25 240.25 C263.73621 242.93916146 264.10149934 245.53750374 264.375 248.25 C264.4584668 249.07306641 264.54193359 249.89613281 264.62792969 250.74414062 C266.25358428 268.8320362 266.00116776 287.28891156 263.25 305.25 C263.05664062 306.55251709 263.05664062 306.55251709 262.859375 307.88134766 C262.44039039 310.59456394 261.97900746 313.29678143 261.5 316 C261.30132324 317.23351196 261.30132324 317.23351196 261.09863281 318.49194336 C259.6511994 325.97369274 256.16301041 330.16069278 250.03125 334.55859375 C247.85438911 335.97096183 245.66686555 337.36703792 243.46875 338.74609375 C238.56718722 343.05257159 237.09674545 349.97304294 235.05200195 355.9649353 C233.6984453 359.82149015 232.17532434 363.60859858 230.65625 367.40234375 C230.34391418 368.18782089 230.03157837 368.97329803 229.70977783 369.78257751 C226.96668098 376.67394666 224.1899722 383.55182424 221.40484619 390.42630005 C219.37970902 395.42923723 217.38419901 400.44221937 215.41967773 405.46925354 C214.24627963 408.45485538 213.04722745 411.42967984 211.84155273 414.40237427 C211.29180923 415.77264623 210.75241966 417.14713018 210.22485352 418.52609253 C205.29505534 431.37664325 197.2539355 441.28342806 185 447.875 C183.35257813 448.79152344 183.35257813 448.79152344 181.671875 449.7265625 C174.82196288 452.77618091 168.45656224 453.55839535 161.06079102 453.65939331 C160.18013159 453.67844199 159.29947216 453.69749068 158.39212608 453.71711659 C155.49198044 453.776707 152.59182035 453.82222735 149.69140625 453.86669922 C147.62845807 453.90436804 145.56551563 453.9423525 143.50257874 453.98063469 C122.43974129 454.35046776 101.37656776 454.39783397 80.31105423 454.3843255 C74.91692313 454.38171267 69.52279332 454.3841633 64.12866211 454.38571167 C55.08674812 454.38750828 46.04484241 454.3851943 37.00292969 454.38037109 C26.69300261 454.37493343 16.38309535 454.37669789 6.07316875 454.3821975 C-2.93392507 454.38680154 -11.94101309 454.3873443 -20.94810772 454.38475883 C-26.25968943 454.38323534 -31.57126198 454.38288922 -36.88284302 454.38629532 C-57.94671325 454.39769853 -79.01080221 454.32796514 -100.07214546 453.9775846 C-102.0842055 453.94573576 -104.09634476 453.91850236 -106.10853386 453.89625382 C-108.89383823 453.86386798 -111.67821469 453.81290268 -114.46313477 453.75704956 C-115.27330362 453.75107655 -116.08347248 453.74510355 -116.91819191 453.73894954 C-133.11156195 453.3318434 -145.85000266 443.36372278 -156.75 432.25 C-157.25152588 431.78464844 -157.75305176 431.31929688 -158.26977539 430.83984375 C-163.69351394 425.34640461 -165.30885928 418.50314615 -167.4375 411.25 C-168.18845089 408.76993654 -168.94227228 406.29074011 -169.69921875 403.8125 C-170.05201904 402.65435791 -170.40481934 401.49621582 -170.76831055 400.30297852 C-171.88952747 396.81608033 -173.25588027 393.59146886 -174.75 390.25 C-175.90518568 387.12168437 -176.97966206 383.96645615 -178.0625 380.8125 C-178.69110846 379.02723887 -179.32001843 377.24208387 -179.94921875 375.45703125 C-181.0539615 372.30317818 -182.10382587 369.14438842 -183.08203125 365.94921875 C-186.39239186 355.56966097 -191.92874284 348.44937303 -199.02441406 340.28955078 C-201.9178198 336.86969912 -204.58244647 333.28454102 -207.25 329.6875 C-207.72969238 329.04490234 -208.20938477 328.40230469 -208.70361328 327.74023438 C-209.61903813 326.50937863 -210.52824099 325.273867 -211.43066406 324.03344727 C-212.30225809 322.85524698 -213.20003869 321.69592784 -214.12402344 320.55834961 C-217.74196918 315.95483929 -218.97704065 311.65376949 -220 305.9375 C-220.16274414 305.09155273 -220.32548828 304.24560547 -220.49316406 303.37402344 C-221.56134362 297.68218368 -222.53028663 292.04494024 -222.75 286.25 C-222.8015625 285.19683594 -222.853125 284.14367187 -222.90625 283.05859375 C-223.28272606 268.51720579 -221.49352063 253.04516629 -216.75 239.25 C-216.45222656 238.37085938 -216.15445312 237.49171875 -215.84765625 236.5859375 C-212.02806015 226.1855915 -205.0830314 219.87877662 -195.375 214.875 C-191.75 213.25 -191.75 213.25 -189.75 213.25 C-189.66959473 212.55551758 -189.58918945 211.86103516 -189.50634766 211.14550781 C-189.13228715 207.92997487 -188.75366295 204.71499408 -188.375 201.5 C-188.24867188 200.40816406 -188.12234375 199.31632813 -187.9921875 198.19140625 C-186.76524333 187.82372801 -185.37352991 177.59851153 -182.4375 167.5625 C-182.2202124 166.80340332 -182.0029248 166.04430664 -181.77905273 165.26220703 C-181.32864305 163.69332053 -180.87528875 162.1252763 -180.41894531 160.55810547 C-179.77464166 158.33502272 -179.1470438 156.1078706 -178.5234375 153.87890625 C-173.73674972 136.92783014 -167.37267428 121.63125597 -158.75 106.25 C-158.36408691 105.5595459 -157.97817383 104.8690918 -157.58056641 104.15771484 C-152.36048308 94.91310834 -146.47046795 86.46063736 -139.75 78.25 C-139.29786133 77.68958008 -138.84572266 77.12916016 -138.37988281 76.55175781 C-123.04139969 57.62682352 -104.72551493 42.55527641 -83.75 30.25 C-82.85925781 29.69183594 -81.96851563 29.13367188 -81.05078125 28.55859375 C-59.16232933 15.10078665 -26.24245658 -0.31738344 0 0 Z " fill="#EBECEE" transform="translate(553.75,30.75)"/>
<path d="M0 0 C2.58648539 0.0053611 5.17279719 0.00002419 7.75927734 -0.00634766 C19.4614591 -0.0120317 30.98467968 0.35277914 42.52880859 2.44287109 C43.61246704 2.63852661 43.61246704 2.63852661 44.71801758 2.83813477 C51.35635493 4.09185546 57.71235966 5.90076217 64.09130859 8.13037109 C64.70296875 8.34032715 65.31462891 8.5502832 65.94482422 8.76660156 C76.43357684 12.39549914 86.31031797 16.89551159 96.09130859 22.13037109 C97.68265625 22.97921875 97.68265625 22.97921875 99.30615234 23.84521484 C111.94102317 30.90148305 122.67446574 40.18702109 133.09130859 50.13037109 C133.94466797 50.93087891 134.79802734 51.73138672 135.67724609 52.55615234 C142.56658293 59.19556055 148.37246997 66.48937302 154.09130859 74.13037109 C154.51943848 74.69771973 154.94756836 75.26506836 155.38867188 75.84960938 C165.15901406 88.86796066 174.17222874 102.15586082 178.09130859 118.13037109 C178.40841797 119.14615234 178.72552734 120.16193359 179.05224609 121.20849609 C180.60546951 126.62406841 181.36342703 132.1958468 182.21630859 137.75537109 C182.48894531 139.37572266 182.48894531 139.37572266 182.76708984 141.02880859 C184.45165581 152.02281809 184.09130859 161.60982668 184.09130859 173.13037109 C71.23130859 173.13037109 -41.62869141 173.13037109 -157.90869141 173.13037109 C-157.90869141 151.42830819 -154.20036598 129.6057545 -146.90869141 109.13037109 C-146.56451172 108.15712891 -146.22033203 107.18388672 -145.86572266 106.18115234 C-140.1885322 91.48604204 -131.97251275 77.23660462 -121.90869141 65.13037109 C-121.43254395 64.55561035 -120.95639648 63.98084961 -120.46582031 63.38867188 C-111.69175768 52.84252165 -102.68789048 43.67027849 -91.90869141 35.13037109 C-91.37904785 34.70788086 -90.8494043 34.28539062 -90.30371094 33.85009766 C-80.10041264 25.73238875 -70.28483287 19.48835725 -58.06494141 14.77099609 C-53.45556931 12.97796814 -48.93018755 11.00820021 -44.40869141 9.00537109 C-43.66748047 8.68068848 -42.92626953 8.35600586 -42.16259766 8.02148438 C-38.75943836 6.50683233 -35.74694396 5.02292458 -32.62744141 2.95068359 C-23.73687101 -2.16389174 -10.00595307 -0.02464987 0 0 Z " fill="#27272D" transform="translate(563.90869140625,66.86962890625)"/>
<path d="M0 0 C53.19892449 -0.26457435 106.40126219 0.13230557 159.59935051 0.43177867 C165.16613324 0.46309326 170.73291928 0.4936742 176.29970968 0.52359396 C218.36844205 0.750039 260.42709714 1.10337086 302.48951149 1.88450623 C313.2889657 2.07981971 324.09015629 2.20836645 334.8914566 2.23437119 C346.70590109 2.26650455 346.70590109 2.26650455 350.54101562 5.52978516 C353.45877125 9.36076982 353.69150007 13.36678468 353.72460938 18.04150391 C353.74942383 19.32444336 353.77423828 20.60738281 353.79980469 21.92919922 C353.85823363 25.71635981 353.8651789 29.50200888 353.85498047 33.28955078 C353.84960629 35.66787036 353.85495852 38.04600245 353.86132812 40.42431641 C353.86066751 41.95556682 353.85938669 43.48681711 353.85742188 45.01806641 C353.85944611 45.71928619 353.86147034 46.42050598 353.86355591 47.14297485 C353.85431897 49.10967494 353.79041979 51.07588351 353.72460938 53.04150391 C353.78237549 54.836604 353.78237549 54.836604 353.84130859 56.66796875 C352.31159939 61.28920219 350.12944619 62.64082646 345.90148926 64.8850708 C339.63336888 67.16676296 333.16812228 67.01262575 326.58398438 67.06494141 C324.90426188 67.09919645 323.2245837 67.13568118 321.54495239 67.17414856 C316.85680691 67.27248858 312.16888038 67.33085986 307.48000336 67.38122177 C304.44597227 67.41684009 301.41230231 67.46339877 298.378479 67.51358032 C207.59255225 69.00971359 116.70203262 68.59744697 25.91210938 67.60400391 C24.55470768 67.58931879 24.55470768 67.58931879 23.16988373 67.57433701 C13.42101364 67.46747193 3.67352082 67.33141768 -6.07419205 67.14707661 C-11.27131605 67.05593094 -16.46614589 67.03066351 -21.66403294 67.03237629 C-25.45445471 67.02832672 -29.24437603 66.99647741 -33.03461266 66.96030998 C-34.84729576 66.94946856 -36.66009722 66.9506732 -38.47275734 66.96484566 C-54.2788422 67.07966303 -54.2788422 67.07966303 -58.8684082 62.86010742 C-61.2246254 59.70829842 -62.16779374 57.01631763 -62.27539062 53.04150391 C-62.33903809 52.06802002 -62.40268555 51.09453613 -62.46826172 50.09155273 C-63.44889722 12.4440644 -63.44889722 12.4440644 -54.27539062 1.04150391 C-51.67397355 0.49431696 -49.70032071 0.31989754 -47.08398438 0.33447266 C-46.31886536 0.31926071 -45.55374634 0.30404877 -44.76544189 0.28837585 C-42.08098034 0.24306359 -39.39771284 0.23605572 -36.71289062 0.22900391 C-34.65468778 0.20649665 -32.59650082 0.18250015 -30.53833008 0.15722656 C-24.46524108 0.09299736 -18.39248005 0.06898522 -12.3190918 0.05328369 C-8.21268611 0.04246753 -4.10636136 0.02147693 0 0 Z " fill="#27272E" transform="translate(431.275390625,275.95849609375)"/>
<path d="M0 0 C4.11734581 0.03591265 8.23470356 0.06429484 12.35211182 0.09179688 C55.90280887 0.39103748 99.32070014 1.61239264 142.80670166 4.03320312 C142.4977222 5.63706399 142.18549169 7.24029877 141.87188721 8.84326172 C141.69836227 9.73612885 141.52483734 10.62899597 141.34605408 11.54891968 C140.72328906 14.41740561 139.80664694 16.97530627 138.61920166 19.65820312 C138.17705322 20.66496094 137.73490479 21.67171875 137.27935791 22.70898438 C136.55039307 24.35447266 136.55039307 24.35447266 135.80670166 26.03320312 C135.28179364 27.29637746 134.75977539 28.56075559 134.24029541 29.82617188 C130.2519837 39.42400282 125.54001758 48.35990569 119.80670166 57.03320312 C119.37236816 57.7532251 118.93803467 58.47324707 118.49053955 59.21508789 C115.90222639 63.18107292 114.72380314 64.80087075 109.99810791 65.99804688 C108.45545645 66.03063715 106.91147365 66.01795514 105.36920166 65.97070312 C96.05103642 65.94744598 86.74949964 66.18482037 77.43673134 66.45785356 C57.3596498 67.03554579 37.29685862 67.18304461 17.21258163 67.16752863 C12.73068953 67.16491385 8.24879897 67.16736691 3.76690674 67.16891479 C-3.74554827 67.17071088 -11.2579933 67.16839887 -18.77044678 67.16357422 C-27.33365396 67.15813666 -35.8968373 67.15990116 -44.46004391 67.16540062 C-51.94418249 67.17000622 -59.4283141 67.1705467 -66.91245365 67.16796196 C-71.32462514 67.16643927 -75.73678561 67.16608985 -80.1489563 67.16949844 C-100.18909476 67.18299285 -120.20278146 66.98347341 -140.23377991 66.33822823 C-147.85705772 66.10168005 -155.39628452 65.99482033 -163.01890659 66.4325552 C-166.9014365 66.58583434 -170.6093346 66.66756082 -174.19329834 65.03320312 C-176.33038232 62.83541003 -177.48144902 60.3934859 -178.72845459 57.61523438 C-179.09651718 56.85954666 -179.46457977 56.10385895 -179.84379578 55.32527161 C-181.00172132 52.91146664 -182.10397322 50.47866277 -183.19329834 48.03320312 C-183.72189453 46.86105255 -183.72189453 46.86105255 -184.26116943 45.66522217 C-186.34732794 41.00528383 -188.34080155 36.31203895 -190.28094482 31.58959961 C-191.27587955 29.17190573 -192.28753593 26.76165797 -193.30072021 24.3515625 C-193.94427908 22.8018392 -194.5868951 21.25172395 -195.22845459 19.70117188 C-195.52832779 18.98769089 -195.82820099 18.2742099 -196.13716125 17.53910828 C-197.54218487 14.09171326 -198.19329834 11.81683774 -198.19329834 8.03320312 C-191.65881846 7.49581254 -185.12393876 6.96347479 -178.58880615 6.43408203 C-176.38233899 6.25481054 -174.17595359 6.07452875 -171.96966553 5.89306641 C-142.66412838 3.48457644 -113.3982204 1.74388233 -84.00579834 0.90820312 C-82.54526708 0.86577594 -81.08473649 0.82332561 -79.62420654 0.78085327 C-53.07792201 0.01663182 -26.55744331 -0.24587296 0 0 Z " fill="#27272E" transform="translate(605.1932983398438,380.966796875)"/>
<path d="M0 0 C16.2753079 -0.7122555 16.2753079 -0.7122555 21.828125 1.85546875 C26.86714721 6.83105003 28.22430527 14.6492768 30.16894531 21.27197266 C31.45644684 25.49833635 33.00444985 29.61735399 34.5625 33.75 C35.14492658 35.32146812 35.72696289 36.89308094 36.30859375 38.46484375 C38.14937763 43.40899372 40.00526172 48.34747125 41.86914062 53.28295898 C43.4958642 57.60544264 45.04092347 61.9515953 46.5625 66.3125 C48.39197684 71.4784266 50.48508677 76.43099629 52.79296875 81.3984375 C54.0206917 84.04459765 55.22443762 86.69430827 56.375 89.375 C56.88160156 90.53128906 56.88160156 90.53128906 57.3984375 91.7109375 C58.13296846 94.50597089 57.87478756 96.26276152 57 99 C54.0129054 100.4935473 50.9626552 100.30631228 47.6875 100.375 C46.37136719 100.42398438 45.05523438 100.47296875 43.69921875 100.5234375 C39.15227613 99.88004752 37.81319474 98.54002386 35 95 C33.13599886 91.18323576 32.91962277 87.96571516 32.95703125 83.79296875 C32.96323486 82.89473389 32.96943848 81.99649902 32.97583008 81.07104492 C32.98380615 80.3876001 32.99178223 79.70415527 33 79 C28.44657351 79.26313964 23.89337049 79.5297899 19.34033203 79.79956055 C17.79448888 79.89067273 16.24859089 79.98085974 14.70263672 80.07006836 C12.46827035 80.19916829 10.23412864 80.33170019 8 80.46484375 C6.97918335 80.52272316 6.97918335 80.52272316 5.93774414 80.58177185 C3.95721942 80.70168691 1.97852675 80.85070269 0 81 C-1.09356812 81.07675461 -1.09356812 81.07675461 -2.20922852 81.15505981 C-4.15179609 81.33296093 -6.07964518 81.65728296 -8 82 C-11.29471708 86.88893502 -11.45736578 91.94539242 -11.7890625 97.7421875 C-12 100 -12 100 -13 101 C-20.18983819 100.95831978 -26.62035108 100.41237035 -33 97 C-32.41516312 92.80841051 -31.44141222 89.15264569 -29.890625 85.21875 C-29.46523438 84.12820313 -29.03984375 83.03765625 -28.6015625 81.9140625 C-28.15554688 80.78742188 -27.70953125 79.66078125 -27.25 78.5 C-21.52911195 63.94085375 -16.35126384 49.22004261 -11.28833008 34.42260742 C-10.43719185 31.93659995 -9.58290368 29.45168903 -8.72851562 26.96679688 C-5.66122041 18.0216026 -2.69969706 9.06435734 0 0 Z " fill="#EAEAEA" transform="translate(506,556)"/>
<path d="M0 0 C0.87962402 0.00870117 1.75924805 0.01740234 2.66552734 0.02636719 C11.91767481 0.22775202 20.90068737 1.41683913 29.9375 3.375 C31.52111328 3.70564453 31.52111328 3.70564453 33.13671875 4.04296875 C38.60068903 5.65194057 40.76722075 8.01331636 43.5 13 C45.88626476 18.47160426 46.80346933 23.4495113 46.9375 29.375 C39.7211944 28.07164685 33.74379455 25.67823618 27.1875 22.4375 C26.26839844 21.99470703 25.34929688 21.55191406 24.40234375 21.09570312 C20.8347609 19.36354097 17.35887204 17.6334934 13.9765625 15.55859375 C11.9160358 14.13445086 11.9160358 14.13445086 9.0625 14.375 C5.09661015 15.64408475 2.05099476 17.6217443 -1.0625 20.375 C-2.56725088 23.38450175 -2.48642641 24.98358868 -2.0625 28.375 C-0.48081767 32.05806028 1.2186995 35.4167748 3.9375 38.375 C7.22380548 39.58750748 7.22380548 39.58750748 10.9375 40.375 C23.00102833 44.42123017 35.8791254 49.07180446 44.9375 58.375 C48.0994479 69.25524309 46.54850023 81.62586861 41.296875 91.44140625 C38.43516855 94.99958762 35.68702746 96.01165988 31.4375 97.1875 C30.77363281 97.39052734 30.10976563 97.59355469 29.42578125 97.80273438 C27.60422713 98.35356361 25.7711487 98.86587851 23.9375 99.375 C23.27621094 99.57867188 22.61492188 99.78234375 21.93359375 99.9921875 C7.15387623 102.82665387 -7.74689586 98.69635415 -20.0625 90.375 C-24.53027344 86.56911892 -26.49476723 81.90332083 -28.0625 76.375 C-28.0625 73.405 -28.0625 70.435 -28.0625 67.375 C-21.1325 67.375 -14.2025 67.375 -7.0625 67.375 C-6.670625 69.23125 -6.27875 71.0875 -5.875 73 C-4.52730652 78.43569703 -3.10729956 81.53762606 0.9375 85.375 C3.96985777 86.89117889 6.81675013 86.58534412 10.1875 86.625 C12.14429688 86.66367187 12.14429688 86.66367187 14.140625 86.703125 C18.88401968 86.293202 22.20280365 84.930245 25.75 81.75 C27.5489464 78.15210719 28.24910982 74.39205703 27.9375 70.375 C26.53326237 67.07431773 25.70494864 65.69758463 22.36328125 64.29296875 C21.33589844 64.05191406 20.30851563 63.81085937 19.25 63.5625 C6.50325634 60.02410628 -4.77833765 53.64559658 -15.0625 45.375 C-16.25746094 44.46041016 -16.25746094 44.46041016 -17.4765625 43.52734375 C-22.73297828 39.30177982 -22.73297828 39.30177982 -24.0625 35.5625 C-24.0625 34.510625 -24.0625 33.45875 -24.0625 32.375 C-24.12050781 31.64539063 -24.17851563 30.91578125 -24.23828125 30.1640625 C-24.72552181 21.33804773 -22.31683191 13.6316994 -16.5625 6.875 C-14.84375 5.03125 -14.84375 5.03125 -13.0625 3.375 C-12.24458984 2.53582031 -12.24458984 2.53582031 -11.41015625 1.6796875 C-7.72646964 -0.36748609 -4.14457204 -0.06787911 0 0 Z " fill="#EBEBEC" transform="translate(693.0625,555.625)"/>
<path d="M0 0 C20.79 0 41.58 0 63 0 C63 4.29 63 8.58 63 13 C52.38411343 16.05206739 43.00571471 17.15133184 32 17.0625 C26.555 17.0315625 26.555 17.0315625 21 17 C21 24.92 21 32.84 21 41 C24.83625 40.87625 24.83625 40.87625 28.75 40.75 C39.15525928 40.59024878 48.91157062 42.64111881 59 45 C59 49.62 59 54.24 59 59 C45.14 59 31.28 59 17 59 C17 72.53 17 86.06 17 100 C11.39 100 5.78 100 0 100 C0 67 0 34 0 0 Z " fill="#FBFCFB" transform="translate(406,556)"/>
<path d="M0 0 C26.07 0 52.14 0 79 0 C79 5.61 79 11.22 79 17 C69.43 17 59.86 17 50 17 C50 44.39 50 71.78 50 100 C44.39 100 38.78 100 33 100 C31.71534359 97.43068717 31.59459372 95.20868799 31.28125 92.34765625 C31.15403564 91.18927246 31.02682129 90.03088867 30.89575195 88.83740234 C28.3741839 64.78528317 27.86402065 41.16039284 28 17 C26.84242188 17.01667725 25.68484375 17.03335449 24.4921875 17.05053711 C22.95312835 17.06402734 21.41406557 17.07710786 19.875 17.08984375 C19.11445312 17.10188843 18.35390625 17.11393311 17.5703125 17.12634277 C11.6858337 17.16280371 6.42792837 16.42497726 1 14 C0.67 13.67 0.34 13.34 0 13 C0 8.71 0 4.42 0 0 Z " fill="#EEEEEF" transform="translate(569,556)"/>
<path d="M0 0 C27.44264372 -0.04755271 54.88528094 -0.08238304 82.32795811 -0.10362434 C95.08136472 -0.11376639 107.83474493 -0.12753988 120.58813477 -0.15087891 C181.93866616 -0.26083198 243.23243095 0.0344904 304.55854416 1.86875153 C308.33357523 1.98130733 312.10876603 2.08704443 315.88404578 2.19088519 C318.83481658 2.27264638 321.78548842 2.35763386 324.73614419 2.44343734 C326.75039197 2.50123645 328.7647325 2.55577501 330.77907467 2.61018562 C337.24203801 2.80392277 343.5868548 3.16784556 350 4 C349.34 5.32 348.68 6.64 348 8 C334.85040275 8.24502355 321.80800988 7.93221982 308.68386841 7.20007324 C275.5291276 5.372937 242.31203741 5.2942952 209.11571503 5.01810455 C205.9138736 4.99070582 202.71206746 4.95966073 199.51025391 4.92919922 C139.08443599 4.38607703 78.76691246 6.59956569 18.56230164 11.80343628 C15.61834115 12.02927847 12.70209606 12.10134337 9.75 12.0625 C8.38101562 12.04896484 8.38101562 12.04896484 6.984375 12.03515625 C6.32953125 12.02355469 5.6746875 12.01195312 5 12 C4.67 12.66 4.34 13.32 4 14 C-0.01704809 8.97868989 -0.09037009 6.39368419 0 0 Z " fill="#8F9094" transform="translate(402,377)"/>
<path d="M0 0 C8.7098044 8.10390497 14.18993455 19.51940366 17 31 C17 31.99 17 32.98 17 34 C8.83073644 37.6671644 1.91208829 38.51007183 -7 38 C-6.49808495 29.38140157 -4.88857981 21.20983886 -2.9375 12.8125 C-2.65583984 11.57435547 -2.37417969 10.33621094 -2.08398438 9.06054688 C-1.39564548 6.03885578 -0.70087909 3.01880236 0 0 Z " fill="#3A3940" transform="translate(514,581)"/>
<path d="M0 0 C0.33 0 0.66 0 1 0 C1 4.29 1 8.58 1 13 C-9.61588657 16.05206739 -18.99428529 17.15133184 -30 17.0625 C-33.63 17.041875 -37.26 17.02125 -41 17 C-41 24.92 -41 32.84 -41 41 C-37.16375 40.87625 -37.16375 40.87625 -33.25 40.75 C-22.84474072 40.59024878 -13.08842938 42.64111881 -3 45 C-3 49.62 -3 54.24 -3 59 C-16.86 59 -30.72 59 -45 59 C-45 58.67 -45 58.34 -45 58 C-31.47 58 -17.94 58 -4 58 C-4 54.04 -4 50.08 -4 46 C-17.53 46 -31.06 46 -45 46 C-45 34.78 -45 23.56 -45 12 C-30.15 12 -15.3 12 0 12 C0 8.04 0 4.08 0 0 Z " fill="#919294" transform="translate(468,556)"/>
<path d="M0 0 C10.89 0 21.78 0 33 0 C33 28.38 33 56.76 33 86 C32.67 86 32.34 86 32 86 C28.89079969 58.81862795 27.84622564 32.3221555 28 5 C26.84242188 5.01595215 25.68484375 5.0319043 24.4921875 5.04833984 C22.95312807 5.06124354 21.41406531 5.07375534 19.875 5.0859375 C19.11445312 5.0974585 18.35390625 5.10897949 17.5703125 5.12084961 C11.77528772 5.15519512 6.26277745 4.65575344 1 2 C0.67 1.34 0.34 0.68 0 0 Z " fill="#959598" transform="translate(569,568)"/>
<path d="M0 0 C0.69222656 0.19335938 1.38445313 0.38671875 2.09765625 0.5859375 C10.36395742 2.78592806 18.51808662 4.01507836 27 5 C26 7 26 7 24.0625 8.125 C17.08050193 10.11985659 11.06119715 9.6387734 4.69140625 6.16796875 C2.88488633 4.92051042 1.43035979 3.666566 0 2 C0 1.34 0 0.68 0 0 Z " fill="#848488" transform="translate(848,839)"/>
</svg>
