<?xml version="1.0" encoding="UTF-8"?>
<svg version="1.1" xmlns="http://www.w3.org/2000/svg" width="2033" height="1754">
<path d="M0 0 C670.89 0 1341.78 0 2033 0 C2033 578.82 2033 1157.64 2033 1754 C1362.11 1754 691.22 1754 0 1754 C0 1175.18 0 596.36 0 0 Z " fill="#26262D" transform="translate(0,0)"/>
<path d="M0 0 C3.63614364 0.01709068 7.27162785 0.00689071 10.90774918 -0.01031876 C36.84281999 -0.1141722 62.49950732 1.64035242 88.11376953 5.89111328 C89.39509766 6.09091797 90.67642578 6.29072266 91.99658203 6.49658203 C98.853153 7.59727901 105.54963869 8.9713948 112.26806641 10.72607422 C115.48524906 11.55034111 118.72203554 12.17145958 121.98876953 12.76611328 C129.86835183 14.3148863 137.53621854 16.40013203 145.24609375 18.63476562 C148.15881497 19.47636331 151.07567624 20.30275297 153.99267578 21.12939453 C156.1165589 21.73682024 158.24025861 22.34488765 160.36376953 22.95361328 C161.3543335 23.23430664 162.34489746 23.515 163.36547852 23.80419922 C168.7919371 25.37507619 174.02504935 27.15981151 179.24560547 29.31713867 C182.13991479 30.50438846 185.05647251 31.62016756 187.98095703 32.73095703 C231.20554781 49.27864676 271.40078582 70.80094852 307.86376953 99.39111328 C308.79833984 100.11427734 309.73291016 100.83744141 310.69580078 101.58251953 C315.77388872 105.56854555 320.61254964 109.77315164 325.37939453 114.12548828 C326.98183451 115.58683291 328.59569946 117.03579329 330.22314453 118.46923828 C339.63241643 126.77153701 348.87264946 135.57294732 356.98095703 145.16845703 C358.54695261 147.01711156 360.13748881 148.83414787 361.74658203 150.64501953 C369.62644694 159.54938572 376.89501388 168.76084663 383.86376953 178.39111328 C384.4008252 179.12362305 384.93788086 179.85613281 385.49121094 180.61083984 C395.29268554 194.01314798 403.84371364 208.02790682 412.13232422 222.39355469 C413.59485071 224.92554851 415.07243535 227.44747536 416.55908203 229.96533203 C442.88449043 274.99578151 454.06897464 328.17006082 454.11376953 379.95361328 C454.11477661 380.77048615 454.11578369 381.58735901 454.11682129 382.4289856 C454.09296908 411.44975921 451.34525872 440.07565355 444.86376953 468.39111328 C444.68467041 469.18622314 444.50557129 469.98133301 444.32104492 470.80053711 C433.5790955 517.53640572 409.66987274 561.10839496 379.86376953 598.39111328 C379.13931641 599.29732422 378.41486328 600.20353516 377.66845703 601.13720703 C368.3272465 612.67142577 358.60318257 623.84286388 348.46289062 634.67871094 C346.76387154 636.49808802 345.07310454 638.32489463 343.38330078 640.15283203 C333.8535173 650.44583173 324.39517494 660.59600181 313.39501953 669.35595703 C311.2514426 671.07941935 309.20922478 672.85344567 307.17626953 674.70361328 C295.67530221 684.82539956 282.84804774 693.31803541 269.86376953 701.39111328 C269.24179688 701.7786377 268.61982422 702.16616211 267.97900391 702.56542969 C226.63315886 728.17898085 180.17815417 747.09482181 132.86376953 758.39111328 C131.7709668 758.65230957 130.67816406 758.91350586 129.55224609 759.18261719 C110.48881148 763.65691418 91.27042317 766.87635014 71.86376953 769.39111328 C69.97779053 769.64103027 69.97779053 769.64103027 68.05371094 769.89599609 C27.82922375 774.97864549 -14.98131021 775.04262113 -55.13623047 769.39111328 C-55.85351318 769.29165405 -56.5707959 769.19219482 -57.30981445 769.08972168 C-98.83236076 763.30474328 -140.46237644 753.90490967 -179.13623047 737.39111328 C-180.75464844 736.71048828 -180.75464844 736.71048828 -182.40576172 736.01611328 C-224.13323197 718.24586161 -262.77253823 695.78759819 -298.13623047 667.39111328 C-299.05919922 666.65248047 -299.98216797 665.91384766 -300.93310547 665.15283203 C-303.68859795 662.92316577 -306.41711866 660.66501193 -309.13623047 658.39111328 C-309.68327637 657.93575195 -310.23032227 657.48039063 -310.79394531 657.01123047 C-318.56344977 650.5154506 -325.9703035 643.73669835 -333.13623047 636.57861328 C-334.17674561 635.53930664 -334.17674561 635.53930664 -335.23828125 634.47900391 C-339.72960052 629.9389013 -343.97580034 625.2344423 -348.13623047 620.39111328 C-349.13305785 619.24999146 -350.13042978 618.10934504 -351.12841797 616.96923828 C-357.46794897 609.67218521 -363.45808582 602.22129497 -369.13623047 594.39111328 C-369.90193359 593.36115234 -370.66763672 592.33119141 -371.45654297 591.27001953 C-423.88070107 520.15717619 -449.83489154 428.37769066 -436.76846313 340.59989929 C-434.59232018 326.37069737 -431.97082893 312.27246141 -428.13623047 298.39111328 C-427.87003906 297.41996582 -427.60384766 296.44881836 -427.32958984 295.44824219 C-415.8982968 254.4904095 -396.94405486 214.29635908 -371.13623047 180.39111328 C-370.72566406 179.84600098 -370.31509766 179.30088867 -369.89208984 178.73925781 C-364.16433549 171.13524599 -358.2427261 163.69496099 -352.13623047 156.39111328 C-351.70117188 155.8696875 -351.26611328 155.34826172 -350.81787109 154.81103516 C-335.99957245 137.10849785 -320.20611814 120.19235125 -302.11279297 105.78173828 C-299.82713343 103.94601173 -297.58137077 102.08468149 -295.34716797 100.18798828 C-285.07157173 91.50277851 -274.38929087 83.75800933 -263.13623047 76.39111328 C-262.37616699 75.88870117 -261.61610352 75.38628906 -260.83300781 74.86865234 C-206.07023637 38.79820893 -142.78679424 16.00431858 -78.19873047 5.64111328 C-77.06137451 5.45476318 -75.92401855 5.26841309 -74.75219727 5.07641602 C-49.90875247 1.29747517 -25.09698604 -0.11882688 0 0 Z " fill="#F4F5F7" transform="translate(1043.13623046875,65.60888671875)"/>
<path d="M0 0 C16.5 0 33 0 50 0 C50 45.54 50 91.08 50 138 C66.03653868 132.71108556 66.03653868 132.71108556 76 122 C76.53834473 121.18869629 77.07668945 120.37739258 77.63134766 119.54150391 C79.25251484 116.9971926 80.78773184 114.41555724 82.3125 111.8125 C87.26137067 103.62138968 92.37112615 95.84386553 98.63183594 88.59521484 C99.56621251 87.50577578 100.48293904 86.40101244 101.38378906 85.28369141 C106.66448903 78.7718067 110.87362178 74.49844067 119.5 73.25 C122.33660356 73.04591047 125.15685273 73.00922102 128 73 C129.64715765 72.96055308 131.29429276 72.92015603 132.94140625 72.87890625 C158.31894105 72.43964702 158.31894105 72.43964702 166 75 C164.73333909 84.68214776 155.8776815 92.39940797 149.50390625 99.25 C147.06479891 101.9288324 144.77211648 104.67888889 142.5 107.5 C139.44651321 111.28460334 136.29331699 114.92207537 133 118.5 C128.81363481 123.05096309 124.85005558 127.73356727 120.98828125 132.5625 C119.35095416 134.56975364 117.65195385 136.43274716 115.875 138.3125 C113.68237589 140.84193994 113.68237589 140.84193994 114.25 143.8125 C118.44951718 161.66044801 131.11753606 176.38731817 142.77026367 190.00561523 C174 226.59491027 174 226.59491027 174 238 C168.35600552 239.1761404 162.69955416 240.13505341 157 241 C156.16581543 241.13776855 155.33163086 241.27553711 154.47216797 241.41748047 C138.84480453 243.82515851 127.9219048 239.9580154 115 231 C110.22554468 227.42209267 106.67255185 223.61479447 103.25 218.6875 C102.83443848 218.09138916 102.41887695 217.49527832 101.99072266 216.88110352 C95.9944886 208.20610493 90.19583966 199.35803035 84.7734375 190.3125 C77.22493318 177.64193256 77.22493318 177.64193256 65 170 C60.05 169.01 55.1 168.02 50 167 C50 190.43 50 213.86 50 238 C33.5 238 17 238 0 238 C0 159.46 0 80.92 0 0 Z " fill="#27272E" transform="translate(729,333)"/>
<path d="M0 0 C3.40253525 3.33903537 5.69553907 6.84262792 8 11 C8.33966797 11.58668457 8.67933594 12.17336914 9.02929688 12.77783203 C10.13780199 14.70969786 11.20087037 16.66030599 12.25 18.625 C12.56775391 19.20258057 12.88550781 19.78016113 13.21289062 20.37524414 C20.08798185 34.09466961 20.63896192 49.45397916 20.828125 64.4609375 C20.86570781 66.38655616 20.90486522 68.31214465 20.94549561 70.23770142 C21.04717035 75.26388903 21.12681913 80.29018634 21.20178223 85.3168335 C21.28170686 90.38597747 21.3844834 95.4546553 21.484375 100.5234375 C21.62715287 107.99640598 21.76398098 115.46943354 21.87988281 122.94287109 C21.89230011 123.68006882 21.90471741 124.41726654 21.91751099 125.17680359 C22.04916128 134.11912289 22 143.05385014 22 152 C6.82 152 -8.36 152 -24 152 C-26.64 147.05 -29.28 142.1 -32 137 C-39.56240913 136.39263707 -43.16082874 137.69060268 -49.1875 142.125 C-56.53595332 147.20388677 -63.61142848 150.84220227 -72 154 C-73.12341797 154.50660156 -73.12341797 154.50660156 -74.26953125 155.0234375 C-88.06401495 160.77333701 -106.01818206 156.74866199 -119.30859375 151.3046875 C-135.03954553 144.33068662 -142.72306407 132.65236126 -148.9375 116.9375 C-152.2222921 107.16816688 -150.73895163 100.30941513 -146.578125 91.03125 C-137.15764919 72.93647468 -118.95746567 65.78784723 -100.375 59.5 C-99.66617676 59.25709229 -98.95735352 59.01418457 -98.22705078 58.76391602 C-90.0391775 56.12406258 -81.79590778 55.84669152 -73.25 55.8671875 C-72.3518457 55.86623077 -71.45369141 55.86527405 -70.52832031 55.86428833 C-68.64257741 55.86361239 -66.75683209 55.86542544 -64.87109375 55.86962891 C-62.00775862 55.87498549 -59.14458033 55.86966385 -56.28125 55.86328125 C-54.43749966 55.86394214 -52.59374941 55.86522351 -50.75 55.8671875 C-49.48397949 55.86415115 -49.48397949 55.86415115 -48.19238281 55.86105347 C-42.72348737 55.882306 -37.42673419 56.3141665 -32 57 C-32.12117188 55.99098633 -32.24234375 54.98197266 -32.3671875 53.94238281 C-32.81682075 50.19298885 -33.26336487 46.44323231 -33.70898438 42.69335938 C-33.90215379 41.07151419 -34.0961569 39.44976808 -34.29101562 37.828125 C-34.57121355 35.49504838 -34.84839554 33.16163004 -35.125 30.828125 C-35.25624268 29.74352997 -35.25624268 29.74352997 -35.39013672 28.63702393 C-35.77275291 25.38622979 -36 22.28045809 -36 19 C-54.15 19 -72.3 19 -91 19 C-91 23.29 -91 27.58 -91 32 C-107.5 32 -124 32 -141 32 C-141 22.11167422 -138.3598844 17.73159746 -131.80078125 10.61328125 C-97.5227015 -21.85174304 -38.79518792 -28.52685402 0 0 Z " fill="#27272E" transform="translate(1257,418)"/>
<path d="M0 0 C15.33097148 11.56767048 22.8016754 25.1109749 26.2890625 43.5390625 C26.62550781 45.23289062 26.62550781 45.23289062 26.96875 46.9609375 C31.27316342 72.07984322 29.07668279 101.14610678 14.2890625 122.5390625 C4.75358052 135.73247611 -6.68698235 144.97712577 -22.7109375 148.5390625 C-26.949008 148.96975512 -31.14098317 149.01565327 -35.3984375 148.9765625 C-36.5416748 148.96971436 -37.68491211 148.96286621 -38.86279297 148.95581055 C-56.93077677 148.61401151 -68.99835404 143.23140299 -81.7109375 130.5390625 C-97.43703491 113.27939176 -103.09978381 92.62463238 -102.9609375 69.7265625 C-102.96867188 68.46263672 -102.97640625 67.19871094 -102.984375 65.89648438 C-102.94163028 45.02637246 -99.00528623 23.37129764 -84.140625 7.66796875 C-61.10193355 -12.51866604 -25.79202867 -18.41656842 0 0 Z " fill="#FAFAFB" transform="translate(1069.7109375,971.4609375)"/>
<path d="M0 0 C0.94359375 0.40089844 1.8871875 0.80179687 2.859375 1.21484375 C14.8670602 6.61830209 22.51565387 17.27613333 27.3125 29.3125 C30.10265063 37.64702719 31 46.25092917 31 55 C17.14 55 3.28 55 -11 55 C-11.99 51.04 -12.98 47.08 -14 43 C-15.54993761 39.43798589 -15.54993761 39.43798589 -17.23046875 35.9375 C-18 34 -18 34 -18 30 C-19.175625 29.814375 -19.175625 29.814375 -20.375 29.625 C-22.28420579 29.29582659 -24.19338251 28.95487741 -26.08007812 28.51464844 C-33.11441911 26.91110219 -39.92619912 26.61685944 -47.125 26.625 C-48.30682861 26.62371094 -49.48865723 26.62242187 -50.70629883 26.62109375 C-59.99566754 26.73286847 -68.20962897 27.98462005 -77 31 C-77.48164188 33.35368393 -77.96036648 35.70790155 -78.4375 38.0625 C-78.57220703 38.71927734 -78.70691406 39.37605469 -78.84570312 40.05273438 C-78.97783203 40.70693359 -79.10996094 41.36113281 -79.24609375 42.03515625 C-79.42676392 42.92279663 -79.42676392 42.92279663 -79.61108398 43.82836914 C-80.77864815 50.34781874 -81.17270905 56.61286708 -81.203125 63.21875 C-81.21167511 64.6820575 -81.21167511 64.6820575 -81.22039795 66.17492676 C-81.22981278 68.23574757 -81.23636789 70.29658319 -81.24023438 72.35742188 C-81.24988352 75.46251801 -81.28091765 78.56693542 -81.3125 81.671875 C-81.37140967 92.88090162 -80.75512081 103.11673116 -78 114 C-77.85933105 115.37188477 -77.85933105 115.37188477 -77.71582031 116.77148438 C-77.47959961 117.50689453 -77.24337891 118.24230469 -77 119 C-75.35325625 119.71446291 -73.68230551 120.37384476 -72 121 C-70.4460256 121.85301081 -68.89612027 122.71347097 -67.35009766 123.58081055 C-61.94273638 126.3019782 -57.38218088 126.73286688 -51.3984375 126.70703125 C-50.435961 126.72215256 -49.4734845 126.73727386 -48.48184204 126.75285339 C-45.44598363 126.79540523 -42.41112568 126.80453687 -39.375 126.8125 C-37.30075525 126.83566958 -35.22653385 126.86103999 -33.15234375 126.88867188 C-28.10147532 126.9512029 -23.05122083 126.98379185 -18 127 C-17.93361328 126.3144252 -17.86722656 125.6288504 -17.79882812 124.92250061 C-17.66637695 123.57266335 -17.66637695 123.57266335 -17.53125 122.19555664 C-17.44423828 121.30373184 -17.35722656 120.41190704 -17.26757812 119.49305725 C-16.97571174 116.77370338 -16.55039387 114.11637015 -16 111.4375 C-15.835 110.61121094 -15.67 109.78492188 -15.5 108.93359375 C-15 107 -15 107 -14 106 C-12.58774954 105.9071274 -11.17091066 105.88253228 -9.75561523 105.88647461 C-8.85475693 105.88655014 -7.95389862 105.88662567 -7.02574158 105.88670349 C-6.04658279 105.89186478 -5.06742401 105.89702606 -4.05859375 105.90234375 C-3.06118668 105.9037587 -2.0637796 105.90517365 -1.03614807 105.90663147 C2.16343124 105.91224886 5.36294169 105.92480429 8.5625 105.9375 C10.72591045 105.94251276 12.88932199 105.94707605 15.05273438 105.95117188 C20.36851325 105.96222393 25.68425171 105.97897896 31 106 C31.0161147 107.75298064 31.0275853 109.50600436 31.03710938 111.2590332 C31.0439978 112.23524124 31.05088623 113.21144928 31.0579834 114.21723938 C30.89952126 121.82221293 28.83810416 129.72973273 23.5 135.3125 C22.03254238 136.58034022 20.52942838 137.80764958 19 139 C18.13375 139.71414063 17.2675 140.42828125 16.375 141.1640625 C3.77754355 151.12563812 -9.46933074 157.98228339 -25 162 C-25.8559375 162.24492188 -26.711875 162.48984375 -27.59375 162.7421875 C-50.85178314 168.55669579 -78.11831448 161.5565949 -99 151 C-113.1568708 142.33396013 -121.90604985 128.52049292 -129.04345703 113.92822266 C-129.93412199 112.1327985 -130.88481815 110.36750112 -131.83984375 108.60546875 C-139.98743912 91.21754168 -138.4329938 64.81882355 -132 47 C-123.42059239 23.9403904 -112.25674351 8.35117315 -89.515625 -2.4296875 C-61.45454591 -14.96363616 -27.58799834 -12.76111517 0 0 Z " fill="#27272E" transform="translate(1052,411)"/>
<path d="M0 0 C1.90238137 -0.0066164 3.80474888 -0.02051102 5.70703125 -0.04101562 C20.43389627 -0.19951548 34.98536822 -0.12427456 47.24536133 9.24023438 C58.91584175 21.79350454 60.42062518 33.7609147 60.49536133 50.24023438 C60.51598633 51.3771875 60.53661133 52.51414062 60.55786133 53.68554688 C60.60113325 63.01064537 58.89491229 69.15901481 53.74536133 77.05273438 C53.15754883 77.96667969 52.56973633 78.880625 51.96411133 79.82226562 C51.11333008 81.01916016 51.11333008 81.01916016 50.24536133 82.24023438 C49.84317383 82.82160156 49.44098633 83.40296875 49.02661133 84.00195312 C46.04976367 86.0713845 42.81410028 85.94771479 39.24536133 86.24023438 C39.63691406 86.99304687 40.0284668 87.74585938 40.43188477 88.52148438 C47.40174247 101.93225554 54.35106488 115.35179058 61.12036133 128.86523438 C61.87784668 130.3734375 61.87784668 130.3734375 62.65063477 131.91210938 C63.11244141 132.83765625 63.57424805 133.76320313 64.05004883 134.71679688 C64.4520752 135.52197754 64.85410156 136.3271582 65.26831055 137.15673828 C67.91471643 142.80002358 67.24536133 144.85256416 67.24536133 152.24023438 C56.02536133 152.24023438 44.80536133 152.24023438 33.24536133 152.24023438 C31.43036133 148.46585938 29.61536133 144.69148438 27.74536133 140.80273438 C26.84853638 138.94334229 26.84853638 138.94334229 25.93359375 137.04638672 C23.2141984 131.39797504 20.54910395 125.73597271 18.0012207 120.00830078 C16.7841915 117.32415925 15.49286865 114.68395127 14.15795898 112.05664062 C13.2666891 110.28268451 12.43289749 108.4802177 11.60083008 106.67773438 C8.93773957 102.0131211 6.76805471 98.97963441 1.54875183 97.44985962 C-1.65976595 96.83606558 -4.86075345 96.35016171 -8.09838867 95.91601562 C-9.77819824 95.66495056 -9.77819824 95.66495056 -11.49194336 95.40881348 C-14.24399166 95.00026046 -16.99735008 94.61146138 -19.75463867 94.24023438 C-19.75241806 94.95211411 -19.75019745 95.66399384 -19.74790955 96.39744568 C-19.72790614 103.09297672 -19.71266429 109.78849948 -19.7028265 116.48405361 C-19.69759885 119.92663786 -19.69050336 123.3691975 -19.67919922 126.81176758 C-19.66629632 130.76578481 -19.66140949 134.71979193 -19.65698242 138.67382812 C-19.65182114 139.91547226 -19.64665985 141.15711639 -19.64134216 142.43638611 C-19.64122887 144.1480471 -19.64122887 144.1480471 -19.64111328 145.89428711 C-19.63889267 146.90466537 -19.63667206 147.91504364 -19.63438416 148.95603943 C-19.75463867 151.24023438 -19.75463867 151.24023438 -20.75463867 152.24023438 C-30.32463867 152.24023438 -39.89463867 152.24023438 -49.75463867 152.24023438 C-49.75463867 102.41023438 -49.75463867 52.58023438 -49.75463867 1.24023438 C-14.68010938 0.03076785 -14.68010938 0.03076785 0 0 Z " fill="#F9F9F9" transform="translate(1182.754638671875,964.759765625)"/>
<path d="M0 0 C16.5 0 33 0 50 0 C50 78.54 50 157.08 50 238 C33.5 238 17 238 0 238 C0 159.46 0 80.92 0 0 Z " fill="#27272E" transform="translate(1321,333)"/>
<path d="M0 0 C7.91966257 6.87637467 16.23886055 15.04022111 20.984375 24.53125 C21.06746138 25.90673156 21.09173516 27.28610796 21.08203125 28.6640625 C21.07953369 29.38996582 21.07703613 30.11586914 21.07446289 30.86376953 C21.06535889 31.78528809 21.05625488 32.70680664 21.046875 33.65625 C21.02625 36.585 21.005625 39.51375 20.984375 42.53125 C11.414375 42.53125 1.844375 42.53125 -8.015625 42.53125 C-12.140625 34.21875 -12.140625 34.21875 -13.39892578 31.61206055 C-13.92462158 30.58786011 -13.92462158 30.58786011 -14.4609375 29.54296875 C-14.80656738 28.84647217 -15.15219727 28.14997559 -15.50830078 27.43237305 C-18.31452077 23.89300877 -21.79253182 22.69861965 -26.17529297 22.09887695 C-27.27502441 22.07269287 -28.37475586 22.04650879 -29.5078125 22.01953125 C-30.70664063 21.98408203 -31.90546875 21.94863281 -33.140625 21.91210938 C-34.378125 21.88955078 -35.615625 21.86699219 -36.890625 21.84375 C-38.15132812 21.80958984 -39.41203125 21.77542969 -40.7109375 21.74023438 C-43.81241116 21.65799833 -46.91361069 21.58876532 -50.015625 21.53125 C-50.12374512 22.08159912 -50.23186523 22.63194824 -50.34326172 23.19897461 C-51.48939263 28.71788238 -53.0867045 33.85084768 -55.140625 39.09375 C-55.41777344 39.81626953 -55.69492188 40.53878906 -55.98046875 41.28320312 C-56.65323685 43.03472008 -57.33360811 44.78331364 -58.015625 46.53125 C-56.283125 46.8715625 -56.283125 46.8715625 -54.515625 47.21875 C-47.21383562 48.84391315 -40.12533131 51.22815275 -33.015625 53.53125 C-32.36190918 53.74185059 -31.70819336 53.95245117 -31.03466797 54.16943359 C-7.31669069 61.83530476 8.23209588 68.74838695 20.984375 90.53125 C24.83154796 102.07276887 22.95399471 117.34897828 17.86328125 128.23828125 C11.66482972 139.10167966 -0.73006731 144.64583986 -12.265625 148.40625 C-17.1570497 149.70267638 -21.96922261 150.27930039 -27.015625 150.53125 C-28.40974609 150.62792969 -28.40974609 150.62792969 -29.83203125 150.7265625 C-46.35696593 151.35970176 -61.98929745 147.13987984 -76.015625 138.53125 C-76.59344727 138.17901367 -77.17126953 137.82677734 -77.76660156 137.46386719 C-85.66962083 132.49430291 -90.50163716 127.18981717 -94.015625 118.53125 C-94.39203125 117.61472656 -94.7684375 116.69820312 -95.15625 115.75390625 C-96.25252852 111.64286179 -96.23382716 107.88619401 -96.140625 103.65625 C-96.13160156 102.8725 -96.12257813 102.08875 -96.11328125 101.28125 C-96.08990563 99.36444945 -96.05404153 97.44780809 -96.015625 95.53125 C-70.2323518 92.33903522 -70.2323518 92.33903522 -63.46533203 97.46191406 C-59.54409968 102.2497645 -57.05795517 107.66601713 -54.98168945 113.46826172 C-53.68737731 116.23220854 -51.8304701 117.16946541 -49.09765625 118.3828125 C-41.23502037 121.06233385 -33.20440133 121.73473922 -25.015625 120.53125 C-20.13366305 118.11284084 -17.01397822 115.02877983 -14.015625 110.53125 C-13.42170782 104.36935921 -15.65607771 99.60936716 -19.09375 94.66259766 C-22.4229632 90.97052051 -26.43318977 89.48962665 -31.015625 87.78125 C-31.94898682 87.40766357 -32.88234863 87.03407715 -33.84399414 86.64916992 C-40.08584425 84.17643078 -46.40185985 81.90553229 -52.7421875 79.69921875 C-66.34619462 74.84528304 -80.51856251 68.60891696 -87.30078125 54.94140625 C-92.31050482 42.7133713 -93.07411094 27.77054211 -89.23046875 15.03515625 C-84.1049833 4.47105281 -69.03923375 -2.90661192 -58.44140625 -6.7265625 C-40.47630934 -12.22312999 -15.06040351 -12.32924226 0 0 Z " fill="#FAFAFA" transform="translate(1579.015625,970.46875)"/>
<path d="M0 0 C9.9 0 19.8 0 30 0 C37.8288236 18.83919736 45.55272802 37.71060028 53.11502457 56.65848541 C53.88990499 58.59984241 54.66529048 60.54099709 55.44076538 62.4821167 C61.47903251 77.59935661 67.51133714 92.71930594 73.43585205 107.88156128 C74.01031946 109.35168669 74.58592125 110.82136944 75.16278076 112.29055786 C83.33656115 133.1331777 83.33656115 133.1331777 83.6875 143.625 C83.790625 146.05875 83.89375 148.4925 84 151 C74.1 151 64.2 151 54 151 C50.25 141.5625 50.25 141.5625 49.09472656 138.64672852 C48.77987305 137.85709717 48.46501953 137.06746582 48.140625 136.25390625 C47.82641602 135.46314697 47.51220703 134.6723877 47.18847656 133.85766602 C45.53173575 129.8740688 43.75223389 125.94252626 42 122 C24.51 120.68 7.02 119.36 -11 118 C-13.51903136 125.53260912 -13.51903136 125.53260912 -15.60546875 133.12890625 C-15.84160889 134.08095947 -16.07774902 135.0330127 -16.32104492 136.01391602 C-16.74994019 137.77046509 -16.74994019 137.77046509 -17.1875 139.5625 C-18.115625 143.336875 -19.04375 147.11125 -20 151 C-32.54 151 -45.08 151 -58 151 C-54.62553495 139.75178317 -54.62553495 139.75178317 -52.94921875 135.3359375 C-52.40128662 133.88441284 -52.40128662 133.88441284 -51.84228516 132.40356445 C-51.2706665 130.90442505 -51.2706665 130.90442505 -50.6875 129.375 C-49.87628661 127.2304746 -49.06508869 125.08594336 -48.25390625 122.94140625 C-47.86348145 121.91289551 -47.47305664 120.88438477 -47.07080078 119.82470703 C-45.74406032 116.32484676 -44.43378002 112.81911468 -43.125 109.3125 C-39.82123659 100.49938812 -36.47672047 91.70169154 -33.13330078 82.90356445 C-31.0084073 77.30893247 -28.89013801 71.71213324 -26.79693604 66.10557556 C-23.52686228 57.35156231 -20.17099498 48.63360717 -16.75 39.9375 C-16.47330475 39.23319855 -16.1966095 38.52889709 -15.91152954 37.80325317 C-10.89875374 25.06502993 -5.55301393 12.51500155 0 0 Z " fill="#FAFAFA" transform="translate(737,966)"/>
<path d="M0 0 C0.88558594 -0.00773438 1.77117187 -0.01546875 2.68359375 -0.0234375 C18.43158258 0.0228121 29.60940239 6.62467354 40.73046875 17.3984375 C44.6580497 21.44235018 48.15024564 25.72177784 51.5 30.25 C52.28117188 31.12011719 52.28117188 31.12011719 53.078125 32.0078125 C55.1929734 35.34276575 55.84747682 38.86000138 56.6875 42.6875 C56.95336914 43.81381836 56.95336914 43.81381836 57.22460938 44.96289062 C58.13299434 48.95066554 58.5 52.06467698 58.5 56.25 C47.28 56.25 36.06 56.25 24.5 56.25 C23.18 53.15625 21.86 50.0625 20.5 46.875 C20.08234375 45.90127441 19.6646875 44.92754883 19.234375 43.92431641 C18.90953125 43.15780762 18.5846875 42.39129883 18.25 41.6015625 C17.74726562 40.42327881 17.74726562 40.42327881 17.234375 39.22119141 C16.5 37.25 16.5 37.25 16.5 35.25 C3.85510108 31.82364029 -9.44064304 29.61817852 -21.5 36.25 C-24.47234709 39.5859546 -25.9807173 43.0771756 -27.5 47.25 C-27.89703125 48.32507813 -28.2940625 49.40015625 -28.703125 50.5078125 C-34.37322875 67.39833281 -33.69743781 86.1797784 -30.75 103.5625 C-30.59313721 104.51020264 -30.43627441 105.45790527 -30.2746582 106.43432617 C-28.8863866 113.91101769 -26.37933622 121.87111016 -20.53125 127.1171875 C-9.73206578 133.13980947 8.02798297 127.91711578 19.5 126.25 C21.975 115.855 21.975 115.855 24.5 105.25 C35.72 105.25 46.94 105.25 58.5 105.25 C57.20375793 111.73121034 55.94108244 117.65940135 53.75 123.8125 C53.48832031 124.54774902 53.22664062 125.28299805 52.95703125 126.04052734 C50.86224927 131.69969611 48.31546715 136.54260547 44.5 141.25 C43.74009766 142.21486328 43.74009766 142.21486328 42.96484375 143.19921875 C33.67726212 154.52959327 20.62344366 157.45390516 6.625 159.9375 C-11.8235145 161.7216156 -28.18758342 159.58141901 -42.8125 147.58203125 C-50.47261097 141.01132388 -56.22286494 133.83962243 -61.5 125.25 C-61.95117188 124.59 -62.40234375 123.93 -62.8671875 123.25 C-65.45807616 119.01380248 -66.01640291 114.51950602 -66.57421875 109.66015625 C-66.65987091 108.91542557 -66.74552307 108.17069489 -66.83377075 107.40339661 C-67.75444842 98.75561486 -67.89562296 90.12740413 -67.875 81.4375 C-67.87478851 80.60815948 -67.87457703 79.77881897 -67.87435913 78.92434692 C-67.84230906 66.30466882 -67.1440336 54.40714282 -63.5 42.25 C-63.19578125 41.05632813 -62.8915625 39.86265625 -62.578125 38.6328125 C-58.27182566 24.55452618 -44.85142497 14.32695282 -32.5 7.25 C-21.84086642 2.25199612 -11.72162686 -0.10237229 0 0 Z " fill="#FAFAFA" transform="translate(604.5,960.75)"/>
<path d="M0 0 C16.479375 -0.020625 32.95875 -0.04125 49.9375 -0.0625 C55.14909912 -0.071604 60.36069824 -0.08070801 65.73022461 -0.09008789 C72.07336426 -0.09460449 72.07336426 -0.09460449 75.03883362 -0.09544373 C77.11879184 -0.09698361 79.19874916 -0.10050943 81.27870178 -0.10557556 C84.42141277 -0.11285039 87.56406901 -0.11390751 90.70678711 -0.11352539 C91.64002524 -0.1171235 92.57326338 -0.12072161 93.53478146 -0.12442875 C99.88597366 -0.11402634 99.88597366 -0.11402634 101 1 C101.09880797 2.47652664 101.13079245 3.95767236 101.1328125 5.4375 C101.13410156 6.33210937 101.13539062 7.22671875 101.13671875 8.1484375 C101.13285156 9.08945312 101.12898438 10.03046875 101.125 11 C101.12886719 11.94101562 101.13273437 12.88203125 101.13671875 13.8515625 C101.13542969 14.74617187 101.13414063 15.64078125 101.1328125 16.5625 C101.13168457 17.38878906 101.13055664 18.21507812 101.12939453 19.06640625 C101 21 101 21 100 22 C97.82194281 22.09429342 95.6407872 22.11742538 93.46069336 22.11352539 C92.77779739 22.11367142 92.09490143 22.11381744 91.39131165 22.1139679 C89.12412386 22.11326876 86.85701726 22.1054764 84.58984375 22.09765625 C83.02185613 22.09579207 81.45386793 22.09436817 79.88587952 22.09336853 C75.75123497 22.08954334 71.61662534 22.07971306 67.48199463 22.06866455 C62.52524283 22.05665582 57.56847939 22.05204819 52.61171722 22.04621124 C45.07445384 22.03650129 37.53726712 22.01734477 30 22 C30 34.21 30 46.42 30 59 C50.46 59 70.92 59 92 59 C92 67.25 92 75.5 92 84 C71.54 84 51.08 84 30 84 C30 97.53 30 111.06 30 125 C35.04152344 124.98839844 40.08304688 124.97679687 45.27734375 124.96484375 C48.4628919 124.95973687 51.64843504 124.95492309 54.83398438 124.95117188 C59.89511152 124.94518389 64.95622064 124.93808479 70.01733398 124.92456055 C74.09568543 124.91373009 78.17401757 124.90772283 82.25238228 124.90512276 C83.81177639 124.90326879 85.3711694 124.89964873 86.93055534 124.89426994 C89.10729162 124.88705738 91.28394714 124.88600915 93.46069336 124.88647461 C95.32267616 124.88314369 95.32267616 124.88314369 97.22227478 124.87974548 C100 125 100 125 101 126 C101.09946453 127.76859193 101.13080217 129.54111451 101.1328125 131.3125 C101.13410156 132.38757812 101.13539062 133.46265625 101.13671875 134.5703125 C101.13285156 135.70210937 101.12898438 136.83390625 101.125 138 C101.12886719 139.13179687 101.13273437 140.26359375 101.13671875 141.4296875 C101.13542969 142.50476562 101.13414063 143.57984375 101.1328125 144.6875 C101.13168457 145.68136719 101.13055664 146.67523437 101.12939453 147.69921875 C101 150 101 150 100 151 C96.89489513 151.09533753 93.8121658 151.12549821 90.70678711 151.11352539 C89.71544801 151.11364593 88.72410891 151.11376646 87.70272923 151.11389065 C84.47757831 151.11314123 81.2524844 151.1055117 78.02734375 151.09765625 C76.0426842 151.09618692 74.05802427 151.09516615 72.07336426 151.09460449 C64.69473695 151.08935058 57.31611792 151.07538951 49.9375 151.0625 C33.458125 151.041875 16.97875 151.02125 0 151 C0 101.17 0 51.34 0 0 Z " fill="#F7F7F7" transform="translate(1358,966)"/>
<path d="M0 0 C9.57 0 19.14 0 29 0 C29 41.58 29 83.16 29 126 C52.43 126 75.86 126 100 126 C100 134.25 100 142.5 100 151 C67 151 34 151 0 151 C0 101.17 0 51.34 0 0 Z " fill="#FBFBFB" transform="translate(850,966)"/>
<path d="M0 0 C1.19625 0.515625 2.3925 1.03125 3.625 1.5625 C13.16456272 7.35128011 16.52111894 22.00220445 19.12109375 32.0859375 C22.96915818 50.19864277 22.15008175 74.66537492 11.87890625 90.51171875 C6.72017497 97.34355207 -0.92265683 103.10816598 -9.58203125 104.37890625 C-19.12377973 104.59876221 -27.55335815 102.11097434 -35 96 C-44.40448329 84.93114939 -48.10345295 72.60085418 -48.23828125 58.33984375 C-48.246353 57.51351944 -48.25442474 56.68719513 -48.26274109 55.83583069 C-48.27652327 54.09020039 -48.28727144 52.34454381 -48.29516602 50.59887695 C-48.30664091 48.83707621 -48.32702094 47.07530899 -48.35668945 45.3137207 C-48.76210339 21.18592908 -48.76210339 21.18592908 -41.5625 11.25 C-30.29689705 -0.27557841 -15.50337137 -7.70124087 0 0 Z " fill="#27272E" transform="translate(1047,991)"/>
<path d="M0 0 C9.57 0 19.14 0 29 0 C30.77674949 1.77674949 30.12615707 4.36610416 30.12698364 6.7701416 C30.12980347 8.02378006 30.13262329 9.27741852 30.13552856 10.56904602 C30.13358397 11.97116103 30.13153578 13.3732759 30.12939453 14.77539062 C30.13074852 16.24187768 30.13252845 17.7083644 30.13470459 19.17485046 C30.13927916 23.1685411 30.13748927 27.16220603 30.1343255 31.15589714 C30.13180202 35.32614082 30.13413941 39.49638222 30.13571167 43.66662598 C30.1375334 50.67114662 30.13512697 57.67565673 30.13037109 64.68017578 C30.12492847 72.79005289 30.12669112 80.89990486 30.1321975 89.00978136 C30.13672853 95.96008028 30.13737923 102.91037161 30.13475883 109.86067152 C30.133196 114.01733277 30.13300245 118.1739822 30.13629532 122.3306427 C30.13917389 126.23756404 30.1371986 130.14445282 30.13140106 134.05137062 C30.13007339 135.48935199 30.13046771 136.92733608 30.13266373 138.36531639 C30.13537491 140.32016276 30.1313807 142.27501509 30.12698364 144.2298584 C30.12660662 145.32641502 30.12622959 146.42297165 30.12584114 147.55275726 C30 150 30 150 29 151 C19.43 151 9.86 151 0 151 C0 101.17 0 51.34 0 0 Z " fill="#F6F6F6" transform="translate(1283,966)"/>
<path d="M0 0 C1.35083427 0.0001133 1.35083427 0.0001133 2.72895813 0.00022888 C3.68747177 0.00539017 4.64598541 0.01055145 5.63354492 0.01586914 C7.12116585 0.01799156 7.12116585 0.01799156 8.63883972 0.02015686 C11.7972621 0.02574121 14.95561283 0.03829087 18.11401367 0.05102539 C20.25919494 0.05604241 22.40437732 0.06060497 24.54956055 0.06469727 C29.80023591 0.07570551 35.05086967 0.09242809 40.30151367 0.11352539 C41.16910281 6.64904339 41.54986762 13.01931105 41.61401367 19.61352539 C41.65751953 21.10432617 41.65751953 21.10432617 41.7019043 22.62524414 C41.76834044 30.36249919 40.18753373 35.25895439 35.57885742 41.41430664 C32.27796836 43.87723415 28.75180315 45.02280255 24.86401367 46.30102539 C24.11313477 46.56077148 23.36225586 46.82051758 22.58862305 47.08813477 C15.1343702 49.62533428 8.46951667 50.32143294 0.61401367 50.36352539 C-0.32893555 50.38415039 -1.27188477 50.40477539 -2.2434082 50.42602539 C-11.25608869 50.47557965 -19.61484763 49.05423879 -26.69848633 43.11352539 C-27.86204374 38.79923376 -27.77120183 34.45451912 -27.75537109 30.0065918 C-27.76094784 27.87821294 -27.85673484 25.76655345 -27.95825195 23.64086914 C-28.07404324 18.19554938 -28.09915462 13.72560973 -24.38549805 9.45141602 C-21.56753326 7.36148521 -18.82922076 5.69143831 -15.69848633 4.11352539 C-14.18847046 3.30286621 -14.18847046 3.30286621 -12.64794922 2.47583008 C-8.43839297 0.53151058 -4.6083796 -0.01298135 0 0 Z " fill="#F5F5F6" transform="translate(1184.698486328125,494.886474609375)"/>
<path d="M0 0 C0.91330078 -0.01224609 1.82660156 -0.02449219 2.76757812 -0.03710938 C15.50049346 -0.06414317 26.32763583 3.07690892 36.75 10.625 C41.62641248 16.02859221 40.24699443 24.26895904 40.0625 31.1875 C40.0625 32.404375 40.0625 33.62125 40.0625 34.875 C38.54400223 39.90502386 35.43916941 43.32025423 31.0625 46.1875 C24.00828861 48.63376406 16.32000255 48.80017616 8.9375 49.3125 C7.79667969 49.39886719 6.65585938 49.48523437 5.48046875 49.57421875 C-0.0098419 49.9759488 -5.42970632 50.22799215 -10.9375 50.1875 C-10.96276838 43.22746553 -10.98033222 36.2674428 -10.99243164 29.30737305 C-10.99747341 26.93757688 -11.00430665 24.56778385 -11.01293945 22.19799805 C-11.0250119 18.79995961 -11.03072971 15.40196215 -11.03515625 12.00390625 C-11.04031754 10.93725235 -11.04547882 9.87059845 -11.05079651 8.7716217 C-11.05087204 7.79068039 -11.05094757 6.80973907 -11.05102539 5.79907227 C-11.053246 4.93081314 -11.05546661 4.06255402 -11.05775452 3.16798401 C-10.75313515 -1.84882373 -3.80637954 0.00258761 0 0 Z " fill="#27272E" transform="translate(1173.9375,986.8125)"/>
<path d="M0 0 C5.26497126 1.75499042 7.49594434 7.35442435 10.04718018 12.05804443 C12.50226917 17.06179606 13.95451031 22.41961232 15.39379883 27.78588867 C15.94332147 29.83419915 16.52081277 31.87301435 17.10351562 33.91210938 C18.90123601 40.32411886 20.16729204 46.3383363 21 53 C9.12 53 -2.76 53 -15 53 C-13.87690602 45.13834211 -13.87690602 45.13834211 -12.80078125 42.1171875 C-12.56391602 41.43503174 -12.32705078 40.75287598 -12.08300781 40.05004883 C-11.82874023 39.33228271 -11.57447266 38.6145166 -11.3125 37.875 C-8.06190213 28.43255031 -5.31283368 18.87330976 -2.63085938 9.25634766 C-1.76711696 6.1670646 -0.88454334 3.08338457 0 0 Z " fill="#2A2A31" transform="translate(749,1005)"/>
</svg>
