<?xml version="1.0" encoding="UTF-8"?>
<!DOCTYPE svg PUBLIC "-//W3C//DTD SVG 1.1//EN" "http://www.w3.org/Graphics/SVG/1.1/DTD/svg11.dtd">
<svg xmlns="http://www.w3.org/2000/svg" version="1.1" width="256px" height="247px" style="shape-rendering:geometricPrecision; text-rendering:geometricPrecision; image-rendering:optimizeQuality; fill-rule:evenodd; clip-rule:evenodd" xmlns:xlink="http://www.w3.org/1999/xlink">
<g><path style="opacity:0.999" fill="#26262d" d="M -0.5,-0.5 C 84.8333,-0.5 170.167,-0.5 255.5,-0.5C 255.5,81.8333 255.5,164.167 255.5,246.5C 170.167,246.5 84.8333,246.5 -0.5,246.5C -0.5,164.167 -0.5,81.8333 -0.5,-0.5 Z"/></g>
<g><path style="opacity:1" fill="#edeef0" d="M 131.5,7.5 C 165.853,7.52431 185.186,24.5243 189.5,58.5C 192.529,60.029 194.695,62.3623 196,65.5C 196.877,72.2494 196.544,78.9161 195,85.5C 193.649,87.019 192.149,88.3523 190.5,89.5C 187.819,96.5528 184.986,103.553 182,110.5C 180.062,113.106 177.562,114.939 174.5,116C 150.5,116.667 126.5,116.667 102.5,116C 99.0976,114.6 96.2643,112.433 94,109.5C 92.1971,103.758 90.1971,98.0911 88,92.5C 85.6667,89.5 83.3333,86.5 81,83.5C 78.7803,76.3622 79.1136,69.3622 82,62.5C 83.4133,60.5864 85.2466,59.2531 87.5,58.5C 90.067,30.9405 104.734,13.9405 131.5,7.5 Z"/></g>
<g><path style="opacity:1" fill="#26262d" d="M 128.5,16.5 C 150.478,13.9038 166.645,22.2372 177,41.5C 178.803,46.6823 179.636,52.0157 179.5,57.5C 152.167,57.5 124.833,57.5 97.5,57.5C 97.883,41.5719 104.883,29.4052 118.5,21C 122.042,19.7245 125.375,18.2245 128.5,16.5 Z"/></g>
<g><path style="opacity:1" fill="#26262d" d="M 90.5,66.5 C 122.502,66.3334 154.502,66.5 186.5,67C 187,67.5 187.5,68 188,68.5C 188.667,72.5 188.667,76.5 188,80.5C 187.25,81.1258 186.416,81.6258 185.5,82C 153.833,82.6667 122.167,82.6667 90.5,82C 90,81.5 89.5,81 89,80.5C 87.9656,75.5431 88.4656,70.8764 90.5,66.5 Z"/></g>
<g><path style="opacity:1" fill="#939498" d="M 179.5,92.5 C 166.004,91.8334 152.337,91.5001 138.5,91.5C 124.483,91.5007 110.817,92.1674 97.5,93.5C 96.596,92.791 96.2627,91.791 96.5,90.5C 124.508,90.1669 152.508,90.5002 180.5,91.5C 180.376,92.1067 180.043,92.44 179.5,92.5 Z"/></g>
<g><path style="opacity:1" fill="#26262d" d="M 179.5,92.5 C 178.076,97.846 175.743,102.679 172.5,107C 149.5,107.667 126.5,107.667 103.5,107C 101.214,102.647 99.2139,98.1472 97.5,93.5C 110.817,92.1674 124.483,91.5007 138.5,91.5C 152.337,91.5001 166.004,91.8334 179.5,92.5 Z"/></g>
<g><path style="opacity:1" fill="#fefffe" d="M 112.5,136.5 C 108.833,136.5 105.167,136.5 101.5,136.5C 101.5,139.167 101.5,141.833 101.5,144.5C 104.833,144.5 108.167,144.5 111.5,144.5C 111.5,145.5 111.5,146.5 111.5,147.5C 108.167,147.5 104.833,147.5 101.5,147.5C 101.5,150.833 101.5,154.167 101.5,157.5C 100.167,157.5 98.8333,157.5 97.5,157.5C 97.5,149.5 97.5,141.5 97.5,133.5C 102.5,133.5 107.5,133.5 112.5,133.5C 112.5,134.5 112.5,135.5 112.5,136.5 Z"/></g>
<g><path style="opacity:1" fill="#eeeeee" d="M 121.5,133.5 C 123.467,133.261 125.301,133.594 127,134.5C 129.642,142.095 132.475,149.595 135.5,157C 131.083,158.568 129.083,157.068 129.5,152.5C 126.15,152.335 122.817,152.502 119.5,153C 118.62,154.356 118.286,155.856 118.5,157.5C 116.712,157.785 115.045,157.452 113.5,156.5C 116.572,148.948 119.239,141.282 121.5,133.5 Z"/></g>
<g><path style="opacity:1" fill="#f2f2f3" d="M 144.5,157.5 C 144.5,150.5 144.5,143.5 144.5,136.5C 141.833,136.5 139.167,136.5 136.5,136.5C 136.5,135.5 136.5,134.5 136.5,133.5C 142.833,133.5 149.167,133.5 155.5,133.5C 155.5,134.833 155.5,136.167 155.5,137.5C 153.167,137.5 150.833,137.5 148.5,137.5C 148.5,144.167 148.5,150.833 148.5,157.5C 147.167,157.5 145.833,157.5 144.5,157.5 Z"/></g>
<g><path style="opacity:1" fill="#efeff0" d="M 164.5,133.5 C 168.273,133.263 171.94,133.763 175.5,135C 176.861,136.584 177.528,138.418 177.5,140.5C 174.512,139.562 171.678,138.229 169,136.5C 164.999,137.674 164.499,139.84 167.5,143C 171.127,143.564 174.293,145.064 177,147.5C 177.978,150.669 177.478,153.503 175.5,156C 170.312,158.349 165.478,157.849 161,154.5C 159.991,152.975 159.491,151.308 159.5,149.5C 161.167,149.5 162.833,149.5 164.5,149.5C 164.822,153.976 167.156,155.476 171.5,154C 173.527,152.604 173.86,150.938 172.5,149C 167.987,147.948 164.153,145.782 161,142.5C 159.98,138.553 161.147,135.553 164.5,133.5 Z"/></g>
<g><path style="opacity:1" fill="#8f8f92" d="M 112.5,136.5 C 109.375,137.479 106.042,137.813 102.5,137.5C 102.5,139.5 102.5,141.5 102.5,143.5C 105.713,143.19 108.713,143.523 111.5,144.5C 108.167,144.5 104.833,144.5 101.5,144.5C 101.5,141.833 101.5,139.167 101.5,136.5C 105.167,136.5 108.833,136.5 112.5,136.5 Z"/></g>
<g><path style="opacity:1" fill="#9b9b9e" d="M 136.5,136.5 C 139.167,136.5 141.833,136.5 144.5,136.5C 144.5,143.5 144.5,150.5 144.5,157.5C 143.509,151.021 143.176,144.354 143.5,137.5C 140.941,137.802 138.607,137.468 136.5,136.5 Z"/></g>
<g><path style="opacity:1" fill="#37363d" d="M 123.5,139.5 C 125.383,141.763 126.716,144.43 127.5,147.5C 125.604,148.466 123.604,148.799 121.5,148.5C 122.167,145.5 122.833,142.5 123.5,139.5 Z"/></g>
<g><path style="opacity:1" fill="#f2f2f2" d="M 70.5,192.5 C 77.3641,191.2 81.8641,193.867 84,200.5C 84.8176,206.902 84.4842,213.235 83,219.5C 78.6604,225.864 73.1604,227.031 66.5,223C 62.6929,215.983 61.5263,208.483 63,200.5C 64.3796,196.625 66.8796,193.958 70.5,192.5 Z"/></g>
<g><path style="opacity:1" fill="#f2f2f2" d="M 146.5,192.5 C 150.605,192.234 154.605,192.734 158.5,194C 163.833,198.667 163.833,203.333 158.5,208C 163.366,212.719 163.699,217.719 159.5,223C 152.961,226.828 147.127,225.994 142,220.5C 140.506,215.474 141.673,211.308 145.5,208C 141.788,205.398 140.622,201.898 142,197.5C 143.707,195.963 145.207,194.296 146.5,192.5 Z"/></g>
<g><path style="opacity:1" fill="#f5f5f5" d="M 210.5,202.5 C 208.05,202.702 205.717,202.369 203.5,201.5C 199.325,195.959 195.492,196.292 192,202.5C 191.333,206.5 191.333,210.5 192,214.5C 194.526,219.416 198.359,220.75 203.5,218.5C 204.461,216.735 204.795,214.735 204.5,212.5C 202.5,212.5 200.5,212.5 198.5,212.5C 198.5,211.167 198.5,209.833 198.5,208.5C 202.5,208.5 206.5,208.5 210.5,208.5C 210.5,212.833 210.5,217.167 210.5,221.5C 202.087,227.398 194.253,226.731 187,219.5C 183.02,210.738 183.853,202.572 189.5,195C 195.088,191.926 200.755,191.759 206.5,194.5C 208.905,196.642 210.238,199.309 210.5,202.5 Z"/></g>
<g><path style="opacity:1" fill="#f1f1f2" d="M 100.5,192.5 C 102.167,192.5 103.833,192.5 105.5,192.5C 102.309,203.574 98.8091,214.574 95,225.5C 93.5993,227.192 91.7659,227.859 89.5,227.5C 93.3647,215.905 97.0314,204.239 100.5,192.5 Z"/></g>
<g><path style="opacity:1" fill="#f0f0f1" d="M 111.5,192.5 C 118.833,192.5 126.167,192.5 133.5,192.5C 133.662,194.527 133.495,196.527 133,198.5C 129.021,206.956 125.188,215.456 121.5,224C 119.167,224.667 116.833,224.667 114.5,224C 118.5,215.667 122.5,207.333 126.5,199C 121.511,198.501 116.511,198.334 111.5,198.5C 111.5,196.5 111.5,194.5 111.5,192.5 Z"/></g>
<g><path style="opacity:1" fill="#2f2f36" d="M 149.5,197.5 C 154.708,197.369 156.375,199.702 154.5,204.5C 152.647,205.76 150.814,205.76 149,204.5C 148.444,202.115 148.61,199.782 149.5,197.5 Z"/></g>
<g><path style="opacity:1" fill="#292930" d="M 71.5,197.5 C 73.7224,197.178 75.5557,197.845 77,199.5C 77.6667,205.5 77.6667,211.5 77,217.5C 74.2297,220.28 71.8964,219.946 70,216.5C 69.3333,210.833 69.3333,205.167 70,199.5C 70.7172,198.956 71.2172,198.289 71.5,197.5 Z"/></g>
<g><path style="opacity:1" fill="#8d8d91" d="M 203.5,201.5 C 205.717,202.369 208.05,202.702 210.5,202.5C 209.551,203.152 208.385,203.486 207,203.5C 205.319,203.392 204.152,202.725 203.5,201.5 Z"/></g>
<g><path style="opacity:1" fill="#808084" d="M 210.5,221.5 C 210.5,217.167 210.5,212.833 210.5,208.5C 206.5,208.5 202.5,208.5 198.5,208.5C 198.5,209.833 198.5,211.167 198.5,212.5C 200.5,212.5 202.5,212.5 204.5,212.5C 204.795,214.735 204.461,216.735 203.5,218.5C 203.5,216.833 203.5,215.167 203.5,213.5C 201.5,213.5 199.5,213.5 197.5,213.5C 197.5,211.5 197.5,209.5 197.5,207.5C 202.167,207.5 206.833,207.5 211.5,207.5C 211.819,212.363 211.486,217.03 210.5,221.5 Z"/></g>
<g><path style="opacity:1" fill="#292930" d="M 149.5,211.5 C 155.313,211.062 156.98,213.562 154.5,219C 147.745,219.756 146.078,217.256 149.5,211.5 Z"/></g>
</svg>
