<?xml version="1.0" encoding="UTF-8"?>
<svg version="1.1" xmlns="http://www.w3.org/2000/svg" width="512" height="512">
<path d="M0 0 C5.42069495 0.50230378 9.60930904 1.95547013 14.4375 4.5 C15.12851807 4.85674805 15.81953613 5.21349609 16.53149414 5.58105469 C18.69513715 6.70709968 20.84822205 7.85146888 23 9 C23.66773438 9.35126953 24.33546875 9.70253906 25.0234375 10.06445312 C41.04787416 18.53586974 55.4427938 29.00568889 69 41 C70.28777344 42.12148437 70.28777344 42.12148437 71.6015625 43.265625 C81.96533116 52.4120621 91.52963444 62.06088468 100 73 C100.44811035 73.56638184 100.8962207 74.13276367 101.35791016 74.71630859 C113.59979802 90.21441434 123.73585004 107.06765671 132 125 C132.35658691 125.76828125 132.71317383 126.5365625 133.08056641 127.328125 C143.65488658 150.35603335 150.38210479 174.1185049 155 199 C155.24508301 200.31919434 155.24508301 200.31919434 155.49511719 201.66503906 C158.06530195 216.07540082 158.95091314 230.70937186 159.9987793 245.29248047 C160.05836319 246.10755066 160.11794708 246.92262085 160.17933655 247.76239014 C160.29169946 249.30889085 160.40069343 250.8556411 160.50584412 252.40264893 C160.72835202 255.46227144 161.02503554 258.07510662 162 261 C166.73094874 263.83856924 171.55109405 264.87744057 177 264 C191.55663432 258.99038255 200.95201668 247.66988917 209.72436523 235.6628418 C210.23942627 234.95812744 210.7544873 234.25341309 211.28515625 233.52734375 C211.73769775 232.89562256 212.19023926 232.26390137 212.65649414 231.61303711 C214 230 214 230 217 228 C220.70541362 245.5921748 224.15220894 263.09676935 226 281 C226.0942627 281.84119385 226.18852539 282.6823877 226.28564453 283.54907227 C231.02084524 331.15096924 226.14164319 381.51821557 203 424 C202.45859375 425.0209375 201.9171875 426.041875 201.359375 427.09375 C191.32213715 445.21924748 177.44261977 461.44128051 161 474 C160.07832031 474.73734375 159.15664063 475.4746875 158.20703125 476.234375 C133.26227201 495.75928777 101.37016578 507.59973728 70 511 C70 510.34 70 509.68 70 509 C71.34578125 508.5978125 71.34578125 508.5978125 72.71875 508.1875 C100.05162389 499.60362225 124.17740802 483.97967653 137.8125 458.125 C148.87084368 434.95635883 148.18732131 409.92522808 140.13208008 385.97631836 C134.43590409 370.2813013 126.01195038 355.32454631 116 342 C115.52433594 342.53367187 115.04867188 343.06734375 114.55859375 343.6171875 C109.82486225 348.65603981 104.92970192 352.67372529 99.1875 356.5 C98.54159912 356.93296387 97.89569824 357.36592773 97.23022461 357.81201172 C94.17933635 359.79614194 91.55441825 361.25159937 88 362 C87.87995605 361.32122803 87.75991211 360.64245605 87.63623047 359.94311523 C83.62023043 337.6246578 76.69616864 320.4839128 64.71875 301.3515625 C55.86344657 287.17646858 50.90267839 275.051744 54 258 C55.30991226 252.87730743 57.10455497 247.93095479 59 243 C49.32112513 247.56619442 40.3722802 252.24194361 32 259 C31.47809082 259.41652832 30.95618164 259.83305664 30.41845703 260.26220703 C-0.41565089 285.00004369 -16.32220644 320.3098383 -21 359 C-21.21360414 362.61665759 -21.34104255 366.23759571 -21.4296875 369.859375 C-21.64251783 374.80768008 -22.42438004 378.42438004 -26 382 C-29.92950817 382.67928041 -33.5335983 382.75338069 -37.12890625 380.90625 C-41.85778062 377.42668686 -45.95090525 373.23361046 -50 369 C-50.99862459 367.99862648 -51.99843329 366.99843083 -53 366 C-60.07203769 401.88212738 -61.16020551 441.56125382 -40.21289062 473.30322266 C-25.49198237 493.89708586 -3.34403188 506.36341549 21.33984375 510.73828125 C22.16162109 510.86783203 22.16162109 510.86783203 23 511 C23 511.33 23 511.66 23 512 C15.55517444 512.20968815 8.57142359 511.71822688 1.25 510.375 C0.2604834 510.19533691 -0.7290332 510.01567383 -1.74853516 509.83056641 C-55.37788788 499.74590716 -106.22124135 472.83801523 -137.61816406 427.09765625 C-148.19039428 411.04878664 -155.31003313 393.59328398 -160 375 C-160.48339844 373.09541016 -160.48339844 373.09541016 -160.9765625 371.15234375 C-165.74959377 349.54683177 -164.83824335 323.48268416 -160 302 C-159.81195801 301.13149414 -159.62391602 300.26298828 -159.43017578 299.36816406 C-150.11531702 257.38090095 -128.83343509 220.58922674 -104 186 C-100.84142769 187.49343112 -99.0340554 188.84726562 -96.8125 191.5625 C-83.96767717 206.59770314 -68.61405959 217.19297021 -51 226 C-51.03480469 225.42636719 -51.06960937 224.85273438 -51.10546875 224.26171875 C-52.31102541 186.43020256 -33.59837408 149.38090975 -13.2109375 118.84765625 C-5.00043761 106.54191311 3.01642678 93.99360956 8 80 C8.40992188 78.906875 8.81984375 77.81375 9.2421875 76.6875 C17.10214143 52.4029527 10.70950942 27.66083962 1.69262695 4.79907227 C1.08318222 3.21606266 0.53640864 1.60922592 0 0 Z " fill="#000000" transform="translate(224,0)"/>
</svg>
