<?xml version="1.0" encoding="UTF-8"?>
<svg version="1.1" xmlns="http://www.w3.org/2000/svg" width="188" height="208">
<path d="M0 0 C10.75310057 7.93946544 18.12055836 16.76104745 23.015625 29.2265625 C23.55123047 30.5259375 23.55123047 30.5259375 24.09765625 31.8515625 C29.08330892 46.42150637 26.82139656 63.59764157 20.61328125 77.328125 C13.24229489 91.27713097 0.98727803 101.89323255 -13.921875 107.1015625 C-15.26609549 107.51078569 -16.62104418 107.88638398 -17.984375 108.2265625 C-19.04978516 108.50113281 -19.04978516 108.50113281 -20.13671875 108.78125 C-31.05412005 110.48849794 -43.70906422 110.45306887 -53.984375 106.2265625 C-55.06589844 105.80890625 -56.14742187 105.39125 -57.26171875 104.9609375 C-72.38251642 98.34454426 -83.17181059 86.47425767 -89.29638672 71.20581055 C-94.22008837 57.04099533 -93.77498066 40.01934623 -87.984375 26.2265625 C-84.91975748 20.13287986 -81.51096406 14.35607838 -76.984375 9.2265625 C-76.324375 9.2265625 -75.664375 9.2265625 -74.984375 9.2265625 C-74.984375 8.5665625 -74.984375 7.9065625 -74.984375 7.2265625 C-74.324375 7.2265625 -73.664375 7.2265625 -72.984375 7.2265625 C-72.984375 6.5665625 -72.984375 5.9065625 -72.984375 5.2265625 C-52.73994909 -12.20735743 -22.52560508 -14.15378929 0 0 Z M-70.984375 17.2265625 C-79.94394197 28.90061214 -83.93346141 41.60360154 -82.984375 56.2265625 C-80.94970596 69.74504156 -74.31882733 81.83006033 -63.4140625 90.19921875 C-51.3378057 98.30166455 -38.3980825 101.94444195 -23.921875 99.765625 C-11.23634417 96.95762989 -0.04026238 90.27503217 7.83203125 79.8125 C15.89696204 67.07839875 19.17167211 52.98667532 15.890625 38.1640625 C12.28902936 25.33233105 4.67136972 14.54469945 -6.69921875 7.50390625 C-28.40244662 -4.62764164 -53.85106625 -1.49376351 -70.984375 17.2265625 Z " fill="#F3F4F6" transform="translate(132.984375,32.7734375)"/>
<path d="M0 0 C1.20633865 0.71930752 2.39638987 1.46715684 3.5625 2.25 C4.92375 3.11625 4.92375 3.11625 6.3125 4 C10.97210705 8.65960705 12.802854 13.28853125 13 19.875 C12.75704976 25.73819909 11.24633633 29.26901608 7.4375 33.75 C4.32322227 36.45806759 1.07321318 38.58551688 -2.44921875 40.72265625 C-4.64337777 42.40814972 -5.24524955 43.80945313 -6.4375 46.25 C-9.375 47.125 -9.375 47.125 -12.4375 47.25 C-13.4275 46.59 -14.4175 45.93 -15.4375 45.25 C-15.83348354 40.97337774 -15.85377827 37.83369361 -13.4375 34.25 C-11.27325724 32.6007851 -9.15241106 31.09587905 -6.875 29.625 C-2.51123973 27.06443531 -2.51123973 27.06443531 0.5625 23.25 C1.06320321 19.87642666 1.06320321 19.87642666 0.5625 16.25 C-1.75023442 13.3528059 -1.75023442 13.3528059 -4.4375 11.25 C-4.7675 10.92 -5.0975 10.59 -5.4375 10.25 C-10.08523049 9.72497859 -14.13435694 9.6122917 -18.375 11.6875 C-20.82294363 14.72888451 -21.74997121 17.48992436 -22.76171875 21.2265625 C-23.4375 23.25 -23.4375 23.25 -25.4375 25.25 C-28.4375 25.5625 -28.4375 25.5625 -31.4375 25.25 C-33.97646078 21.44155883 -33.87663585 19.7877371 -33.4375 15.25 C-31.69728695 8.91694616 -28.8911988 5.17892302 -23.53515625 1.44140625 C-16.32523594 -2.65361367 -7.64788258 -3.69308398 0 0 Z " fill="#F4F5F7" transform="translate(110.4375,51.75)"/>
<path d="M0 0 C1.65 0 3.3 0 5 0 C5 4.29 5 8.58 5 13 C9.62 13 14.24 13 19 13 C19 8.71 19 4.42 19 0 C20.65 0 22.3 0 24 0 C24 10.23 24 20.46 24 31 C22.35 31 20.7 31 19 31 C19 26.38 19 21.76 19 17 C14.38 17 9.76 17 5 17 C5 21.62 5 26.24 5 31 C3.35 31 1.7 31 0 31 C0 20.77 0 10.54 0 0 Z " fill="#F6F8F8" transform="translate(49,157)"/>
<path d="M0 0 C6.6 0 13.2 0 20 0 C20 1.32 20 2.64 20 4 C15.05 4 10.1 4 5 4 C5 6.97 5 9.94 5 13 C9.29 13 13.58 13 18 13 C18 14.32 18 15.64 18 17 C13.71 17 9.42 17 5 17 C5 19.97 5 22.94 5 26 C9.95 26 14.9 26 20 26 C20 27.65 20 29.3 20 31 C13.4 31 6.8 31 0 31 C0 20.77 0 10.54 0 0 Z " fill="#FAFBFB" transform="translate(82,157)"/>
<path d="M0 0 C15 0 15 0 20 3 C22.4915904 6.7373856 22.45793285 8.57331583 22 13 C20.20437595 15.75329021 18.94745078 17.52627461 16 19 C12.32984725 19.1377685 8.67388652 19.04271961 5 19 C5 22.96 5 26.92 5 31 C3.35 31 1.7 31 0 31 C0 20.77 0 10.54 0 0 Z M5 4 C5 7.63 5 11.26 5 15 C6.423125 15.061875 7.84625 15.12375 9.3125 15.1875 C10.11300781 15.22230469 10.91351563 15.25710937 11.73828125 15.29296875 C14.06641185 15.18380515 14.06641185 15.18380515 15.765625 13.64453125 C17.19485163 11.99927562 17.19485163 11.99927562 17.4375 9.5 C17.2020974 6.93963041 17.2020974 6.93963041 15.5 5.1875 C11.87730459 3.46671968 8.98961898 3.80051905 5 4 Z " fill="#FBFBFB" transform="translate(135,157)"/>
<path d="M0 0 C1.65 0 3.3 0 5 0 C5 8.58 5 17.16 5 26 C9.62 26 14.24 26 19 26 C19 27.65 19 29.3 19 31 C12.73 31 6.46 31 0 31 C0 20.77 0 10.54 0 0 Z " fill="#F9FAFA" transform="translate(109,157)"/>
<path d="M0 0 C1.875 0.3828125 1.875 0.3828125 3.875 2.0078125 C5.18535305 5.11990099 5.43241927 7.03829686 4.875 10.3828125 C2.75 12.8203125 2.75 12.8203125 -0.125 14.3828125 C-3.33882832 14.31853593 -5.28637435 13.91394208 -8 12.1953125 C-9.69089731 9.47108906 -9.50957172 7.52348151 -9.125 4.3828125 C-7.23887124 -0.09674329 -4.45999274 -0.24595548 0 0 Z " fill="#F2F4F4" transform="translate(102.125,102.6171875)"/>
<path d="M0 0 C1.93719378 -0.05406122 3.87481921 -0.09282025 5.8125 -0.125 C6.89144531 -0.14820313 7.97039062 -0.17140625 9.08203125 -0.1953125 C12 0 12 0 15 2 C14.01 2.66 13.02 3.32 12 4 C11.67 3.34 11.34 2.68 11 2 C8.41394668 1.5316735 8.41394668 1.5316735 5.4375 1.375 C3.91962891 1.26285156 3.91962891 1.26285156 2.37109375 1.1484375 C1.19740234 1.07496094 1.19740234 1.07496094 0 1 C0 0.67 0 0.34 0 0 Z M-3 1 C-2.01 1 -1.02 1 0 1 C-0.33 2.32 -0.66 3.64 -1 5 C-1.99 4.34 -2.98 3.68 -4 3 C-3.67 2.34 -3.34 1.68 -3 1 Z " fill="#ECEDEE" transform="translate(94,50)"/>
</svg>
