<?xml version="1.0" encoding="UTF-8"?>
<svg version="1.1" xmlns="http://www.w3.org/2000/svg" width="350" height="279">
<path d="M0 0 C2.58367751 1.35153053 4.76904716 2.82138698 7.0715332 4.60839844 C7.92078369 5.26227539 8.77003418 5.91615234 9.64501953 6.58984375 C10.99116333 7.63930176 10.99116333 7.63930176 12.36450195 8.70996094 C14.25995252 10.17139501 16.1557893 11.63232831 18.05200195 13.09277344 C18.98657227 13.8149707 19.92114258 14.53716797 20.8840332 15.28125 C24.52080877 18.08071524 28.18765009 20.83845839 31.86450195 23.58496094 C32.49775391 24.05861084 33.13100586 24.53226074 33.78344727 25.02026367 C35.05314505 25.96993916 36.32300108 26.91940312 37.59301758 27.86865234 C39.68059519 29.43121356 41.76504602 30.99787582 43.84887695 32.56542969 C44.56261475 33.10200195 45.27635254 33.63857422 46.01171875 34.19140625 C47.36257956 35.2071005 48.71303736 36.22333111 50.06298828 37.24023438 C54.18267286 40.3352477 58.34877478 43.35429405 62.55200195 46.33496094 C61.55200195 53.76353237 61.55200195 53.76353237 60.55200195 57.33496094 C58.57200195 57.33496094 56.59200195 57.33496094 54.55200195 57.33496094 C54.55200195 76.47496094 54.55200195 95.61496094 54.55200195 115.33496094 C17.59200195 115.33496094 -19.36799805 115.33496094 -57.44799805 115.33496094 C-57.44799805 96.19496094 -57.44799805 77.05496094 -57.44799805 57.33496094 C-59.42799805 57.33496094 -61.40799805 57.33496094 -63.44799805 57.33496094 C-64.43799805 54.03496094 -65.42799805 50.73496094 -66.44799805 47.33496094 C-59.33232851 41.83753238 -52.19215049 36.3790774 -44.98706055 30.99902344 C-41.31474464 28.24532815 -37.67487567 25.44965997 -34.03198242 22.65722656 C-30.41212951 19.88818263 -26.78020686 17.13525091 -23.14624023 14.38476562 C-21.36602503 13.03236906 -19.59050931 11.67376096 -17.82006836 10.30859375 C-15.37525256 8.42515931 -12.91414919 6.56532439 -10.44799805 4.70996094 C-9.71307129 4.13536133 -8.97814453 3.56076172 -8.22094727 2.96875 C-7.53274902 2.45795898 -6.84455078 1.94716797 -6.13549805 1.42089844 C-5.54124023 0.96763184 -4.94698242 0.51436523 -4.3347168 0.04736328 C-2.44799805 -0.66503906 -2.44799805 -0.66503906 0 0 Z M-7.76049805 17.33496094 C-8.92924119 18.24839694 -10.09855412 19.16110417 -11.26831055 20.07324219 C-11.92347656 20.58580566 -12.57864258 21.09836914 -13.25366211 21.62646484 C-17.52620501 24.95303974 -21.83167391 28.2365284 -26.13549805 31.52246094 C-27.4345105 32.51922852 -27.4345105 32.51922852 -28.75976562 33.53613281 C-30.03436646 34.50969727 -30.03436646 34.50969727 -31.3347168 35.50292969 C-32.45172974 36.35794067 -32.45172974 36.35794067 -33.59130859 37.23022461 C-36.44799805 39.33496094 -36.44799805 39.33496094 -38.95947266 40.66239929 C-44.45282723 43.79513247 -44.45282723 43.79513247 -47.32188416 49.19715881 C-47.60628448 52.74084761 -47.57330081 56.15403564 -47.42456055 59.70605469 C-47.41041107 60.98352066 -47.3962616 62.26098663 -47.38168335 63.5771637 C-47.33530967 66.95511788 -47.24573379 70.32616729 -47.13464355 73.70220947 C-47.03185843 77.15405954 -46.98657319 80.60662717 -46.9362793 84.05957031 C-46.82621018 90.82017095 -46.65372652 97.57662218 -46.44799805 104.33496094 C-38.52799805 104.33496094 -30.60799805 104.33496094 -22.44799805 104.33496094 C-22.4222168 102.21574219 -22.39643555 100.09652344 -22.36987305 97.91308594 C-22.33142918 95.85435867 -22.28627709 93.79587992 -22.24047852 91.73730469 C-22.21230194 90.30969157 -22.19107078 88.8819234 -22.17700195 87.45410156 C-22.15552413 85.39795762 -22.1088583 83.34367091 -22.05737305 81.28808594 C-22.03642578 80.05219727 -22.01547852 78.81630859 -21.99389648 77.54296875 C-21.44799805 74.33496094 -21.44799805 74.33496094 -19.86303711 71.93359375 C-16.54130636 69.73477724 -14.16510412 69.81754049 -10.19799805 69.80371094 C-9.15530762 69.79797058 -9.15530762 69.79797058 -8.09155273 69.79211426 C-6.62571764 69.78939914 -5.15983377 69.79673259 -3.6940918 69.81347656 C-1.4547083 69.83489675 0.78146782 69.81366651 3.02075195 69.78808594 C4.44784234 69.79072929 5.87493074 69.79585444 7.30200195 69.80371094 C9.24333008 69.81047852 9.24333008 69.81047852 11.22387695 69.81738281 C14.55200195 70.33496094 14.55200195 70.33496094 16.96704102 71.93359375 C19.09685753 75.16046917 19.09608338 77.43576512 19.16137695 81.28808594 C19.17791321 81.9483075 19.19444946 82.60852905 19.21148682 83.28875732 C19.25988646 85.3875872 19.28131714 87.48569315 19.30200195 89.58496094 C19.33016879 91.01208054 19.36009724 92.43916653 19.3918457 93.86621094 C19.46894844 97.3561244 19.50953003 100.84376863 19.55200195 104.33496094 C27.47200195 104.33496094 35.39200195 104.33496094 43.55200195 104.33496094 C43.98455777 97.01548615 44.33150013 89.70317688 44.53643322 82.37354851 C44.63490552 78.96793666 44.76775486 75.57163188 44.98535156 72.17138672 C46.3763813 57.38906404 46.3763813 57.38906404 41.81008911 43.80953979 C37.42560596 39.44441854 32.34946583 36.46151928 26.89730835 33.60693359 C23.7185159 31.88292129 21.06705863 29.83080372 18.2434082 27.57324219 C17.37522461 26.91001953 16.50704102 26.24679688 15.61254883 25.56347656 C14.78819336 24.93119141 13.96383789 24.29890625 13.11450195 23.64746094 C11.36587655 22.31012653 9.6171815 20.97288319 7.8684082 19.63574219 C7.13050049 19.07024658 6.39259277 18.50475098 5.63232422 17.92211914 C4.94581787 17.39835693 4.25931152 16.87459473 3.55200195 16.33496094 C2.84422607 15.77188232 2.1364502 15.20880371 1.40722656 14.62866211 C-2.51579571 11.8930265 -4.43610836 14.71339294 -7.76049805 17.33496094 Z M-11.44799805 80.33496094 C-11.44799805 88.25496094 -11.44799805 96.17496094 -11.44799805 104.33496094 C-4.84799805 104.33496094 1.75200195 104.33496094 8.55200195 104.33496094 C8.55200195 96.41496094 8.55200195 88.49496094 8.55200195 80.33496094 C1.95200195 80.33496094 -4.64799805 80.33496094 -11.44799805 80.33496094 Z " fill="#F5F6F8" transform="translate(174.447998046875,46.6650390625)"/>
<path d="M0 0 C3.81218217 0.01709134 7.62373617 0.00693624 11.43589687 -0.0103178 C41.96258205 -0.12779623 41.96258205 -0.12779623 56.578125 3.39111328 C57.48030762 3.60477539 58.38249023 3.8184375 59.31201172 4.03857422 C61.42070703 4.59616408 63.45864523 5.23040324 65.515625 5.95361328 C66.24249512 6.20554443 66.96936523 6.45747559 67.71826172 6.71704102 C83.64458821 12.50271036 97.01958662 21.10951941 109.578125 32.39111328 C110.37605469 33.10009766 111.17398438 33.80908203 111.99609375 34.53955078 C113.97465665 36.41148454 115.78593012 38.34017264 117.578125 40.39111328 C118.72087891 41.69628906 118.72087891 41.69628906 119.88671875 43.02783203 C137.49816877 64.4857766 147.03623612 91.37089648 146.890625 119.07861328 C146.88498535 120.21492188 146.8793457 121.35123047 146.87353516 122.52197266 C146.42981178 153.50352953 133.81494789 183.56380831 111.578125 205.39111328 C108.02463825 208.5479816 104.35173443 211.50227669 100.578125 214.39111328 C99.42570312 215.28443359 99.42570312 215.28443359 98.25 216.19580078 C76.41706523 232.31058597 51.78291202 238.90896848 24.953125 238.78955078 C23.31038281 238.79158059 21.66764151 238.79449948 20.02490234 238.79824829 C16.60961182 238.80262913 13.19455934 238.79637958 9.77929688 238.78222656 C5.44958534 238.7651372 1.12043214 238.7750015 -3.20925903 238.79294395 C-6.59322145 238.8038979 -9.97705623 238.80028296 -13.36102295 238.79256058 C-14.95546539 238.79059045 -16.54992028 238.79290254 -18.14434814 238.79999924 C-47.55671365 238.90225356 -73.85335089 229.18746979 -96.421875 210.39111328 C-97.11796875 209.83552734 -97.8140625 209.27994141 -98.53125 208.70751953 C-120.83170614 190.50205866 -134.3175523 160.59359215 -137.421875 132.39111328 C-139.1118448 100.34928593 -132.41097364 67.92230425 -110.421875 43.39111328 C-109.70128906 42.55193359 -108.98070313 41.71275391 -108.23828125 40.84814453 C-94.19184822 24.7568235 -76.69638055 12.96454964 -56.484375 6.01611328 C-55.84306641 5.78980225 -55.20175781 5.56349121 -54.54101562 5.33032227 C-52.18615794 4.5729568 -49.82777411 3.96827425 -47.421875 3.39111328 C-46.3066748 3.12186035 -45.19147461 2.85260742 -44.04248047 2.57519531 C-29.56374522 -0.52055365 -14.72769639 -0.06665212 0 0 Z M-105.92871094 45.64355469 C-125.78493272 68.88273643 -134.18630039 99.2561252 -132.421875 129.39111328 C-130.37115575 152.88954399 -121.333876 174.21951826 -106.421875 192.39111328 C-105.72449219 193.24189453 -105.02710937 194.09267578 -104.30859375 194.96923828 C-85.76012856 216.53564388 -59.60183486 229.88422446 -31.421875 233.39111328 C-29.03984069 233.48759088 -26.65567818 233.53885184 -24.27172852 233.55224609 C-23.59414993 233.557211 -22.91657135 233.5621759 -22.21846008 233.56729126 C-19.99588974 233.58178888 -17.77339095 233.58869697 -15.55078125 233.59423828 C-14.78282667 233.59706566 -14.01487209 233.59989304 -13.22364616 233.60280609 C-9.15275612 233.61775469 -5.08190107 233.62700924 -1.01098633 233.63134766 C3.14742293 233.63680025 7.30549946 233.66077216 11.4638052 233.68931961 C14.70106365 233.70815923 17.9382457 233.71316294 21.17555428 233.71468353 C22.70581934 233.71766704 24.23608451 233.72554528 25.76629448 233.73886871 C52.83763951 233.95759597 80.21489718 225.86008735 100.578125 207.39111328 C101.39152344 206.70662109 102.20492187 206.02212891 103.04296875 205.31689453 C124.75309539 186.68432051 139.15224659 158.99251926 141.578125 130.39111328 C143.3224386 97.84642948 134.0303973 67.37200396 112.19189453 42.83349609 C98.94849767 28.31258653 82.3747745 17.54419272 63.828125 11.07861328 C62.86664551 10.7329834 62.86664551 10.7329834 61.88574219 10.38037109 C44.64810951 4.76639316 26.6196797 4.90997274 8.69921875 5 C5.26710296 5.0170914 1.83568505 5.00692661 -1.59640694 4.98968315 C-42.84299698 4.81361451 -77.46453823 14.31138731 -105.92871094 45.64355469 Z " fill="#F7F8F8" transform="translate(170.421875,15.60888671875)"/>
<path d="M0 0 C1.98 0 3.96 0 6 0 C7.33891561 3.28942366 8.67017703 6.58189109 10 9.875 C10.3815625 10.81214844 10.763125 11.74929687 11.15625 12.71484375 C11.5171875 13.61074219 11.878125 14.50664062 12.25 15.4296875 C12.58515625 16.25710449 12.9203125 17.08452148 13.265625 17.93701172 C14 20 14 20 14 22 C14.66 22 15.32 22 16 22 C16.23783203 21.12601563 16.23783203 21.12601563 16.48046875 20.234375 C18.4679738 13.2506556 21.10716317 6.65466812 24 0 C25.98 0 27.96 0 30 0 C30 10.23 30 20.46 30 31 C28.35 31 26.7 31 25 31 C24.67 25.39 24.34 19.78 24 14 C21.69 19.61 19.38 25.22 17 31 C12 30 12 30 10.78979492 28.23413086 C10.52271729 27.48526611 10.25563965 26.73640137 9.98046875 25.96484375 C9.70871826 25.23644287 9.43696777 24.50804199 9.15698242 23.75756836 C8.83705322 22.8269458 8.51712402 21.89632324 8.1875 20.9375 C7.135625 17.988125 6.08375 15.03875 5 12 C5 18.27 5 24.54 5 31 C3.35 31 1.7 31 0 31 C0 20.77 0 10.54 0 0 Z M25 9 C26 11 26 11 26 11 Z " fill="#FDFDFD" transform="translate(177,182)"/>
<path d="M0 0 C1.65 0 3.3 0 5 0 C5 4.29 5 8.58 5 13 C9.29 13 13.58 13 18 13 C18 8.71 18 4.42 18 0 C19.65 0 21.3 0 23 0 C23 10.23 23 20.46 23 31 C21.35 31 19.7 31 18 31 C18 26.38 18 21.76 18 17 C13.71 17 9.42 17 5 17 C5 21.62 5 26.24 5 31 C3.35 31 1.7 31 0 31 C0 20.77 0 10.54 0 0 Z " fill="#FDFDFD" transform="translate(112,182)"/>
<path d="M0 0 C3.65816578 3.13557067 4.50993583 4.91256586 4.92578125 9.74609375 C4.93158203 11.69708984 4.93158203 11.69708984 4.9375 13.6875 C4.95425781 14.98558594 4.97101563 16.28367188 4.98828125 17.62109375 C4.51399401 22.35886633 3.1625127 24.78920311 -0.25390625 28.03515625 C-4.08856031 30.23143141 -8.0987858 29.88068961 -12.375 29.25 C-16.00880386 27.13028108 -17.87101647 25.13420094 -19.375 21.25 C-19.7109375 17.7890625 -19.7109375 17.7890625 -19.75 13.875 C-19.77835938 12.58851563 -19.80671875 11.30203125 -19.8359375 9.9765625 C-19.242788 5.1810996 -17.45332286 1.88296796 -13.625 -1.125 C-8.40862133 -2.57399408 -4.72603481 -2.45053657 0 0 Z M-12.125 3.9375 C-14.84829055 6.87222615 -14.85010926 9.85724918 -15 13.75 C-14.82329715 18.07921975 -14.59523571 19.90021387 -12.25 23.625 C-9.47199206 25.50627982 -9.47199206 25.50627982 -6.25 25.25 C-3.29567991 24.2224104 -2.27525703 23.64691512 -0.375 21.25 C0.92261767 16.55229551 1.19839531 11.8180851 -0.625 7.25 C-2.19615497 4.05202271 -2.19615497 4.05202271 -5.375 2.25 C-9.34453108 1.90132252 -9.34453108 1.90132252 -12.125 3.9375 Z " fill="#FDFDFD" transform="translate(163.375,183.75)"/>
<path d="M0 0 C6.6 0 13.2 0 20 0 C20 1.32 20 2.64 20 4 C15.05 4 10.1 4 5 4 C5 6.97 5 9.94 5 13 C9.29 13 13.58 13 18 13 C18 14.32 18 15.64 18 17 C13.71 17 9.42 17 5 17 C5 20.3 5 23.6 5 27 C9.95 27 14.9 27 20 27 C20 28.32 20 29.64 20 31 C13.4 31 6.8 31 0 31 C0 20.77 0 10.54 0 0 Z " fill="#FDFDFD" transform="translate(216,182)"/>
</svg>
