<?xml version="1.0" encoding="UTF-8"?>
<svg version="1.1" xmlns="http://www.w3.org/2000/svg" width="221" height="213">
<path d="M0 0 C72.93 0 145.86 0 221 0 C221 70.29 221 140.58 221 213 C148.07 213 75.14 213 0 213 C0 142.71 0 72.42 0 0 Z " fill="#27272E" transform="translate(0,0)"/>
<path d="M0 0 C3.61642461 1.30048376 6.38670534 2.84488901 9.4140625 5.203125 C10.24752197 5.84644775 11.08098145 6.48977051 11.93969727 7.15258789 C12.82584717 7.84473389 13.71199707 8.53687988 14.625 9.25 C16.52116037 10.71350375 18.41831567 12.17571925 20.31640625 13.63671875 C21.74750732 14.73959229 21.74750732 14.73959229 23.20751953 15.86474609 C27.28700081 18.98409766 31.41902464 22.0289388 35.5625 25.0625 C45.43276707 32.29824969 55.22151998 39.64085752 65 47 C64.54177532 50.46941546 64.10868317 53.67395049 63 57 C61.35 57 59.7 57 58 57 C58 76.47 58 95.94 58 116 C20.71 116 -16.58 116 -55 116 C-55 96.53 -55 77.06 -55 57 C-56.65 57 -58.3 57 -60 57 C-60.99 54.03 -61.98 51.06 -63 48 C-53.22688275 40.31695203 -43.38474904 32.75693721 -33.35180664 25.41601562 C-27.05825053 20.80224806 -20.83031063 16.10670426 -14.625 11.375 C-13.73901123 10.69969238 -12.85302246 10.02438477 -11.94018555 9.32861328 C-7.92535932 6.26093993 -3.9252751 3.18221891 0 0 Z " fill="#ECEDEF" transform="translate(109,22)"/>
<path d="M0 0 C6.58559295 4.25898211 12.85406062 8.83630185 19.0625 13.625 C20.76114815 14.9304303 22.46038577 16.23509389 24.16015625 17.5390625 C25.49651123 18.61994141 25.49651123 18.61994141 26.85986328 19.72265625 C29.33717897 21.51929758 31.50979517 22.80297043 34.21435547 24.15234375 C38.9852263 26.73813247 43.0875125 29.3110777 46 34 C48.46438368 42.96071484 47.59045735 52.52264639 47.09863281 61.71057129 C46.9333394 65.12833983 46.8606677 68.5480866 46.78125 71.96875 C46.61933162 78.65597923 46.30672699 85.31164765 46 92 C37.75 92 29.5 92 21 92 C20.97421875 89.88078125 20.9484375 87.7615625 20.921875 85.578125 C20.88343113 83.51939774 20.83827905 81.46091898 20.79248047 79.40234375 C20.76430389 77.97473063 20.74307273 76.54696247 20.72900391 75.11914062 C20.70752608 73.06299668 20.66086026 71.00870998 20.609375 68.953125 C20.5779541 67.09929199 20.5779541 67.09929199 20.54589844 65.20800781 C20.21988955 61.97747355 20.21988955 61.97747355 18.40136719 59.59863281 C15.14190737 57.42875248 12.86904649 57.48280151 8.96875 57.46875 C8.29581909 57.4649231 7.62288818 57.46109619 6.92956543 57.45715332 C5.5108083 57.4544387 4.09200073 57.46176866 2.67333984 57.47851562 C0.50634797 57.49993725 -1.65732951 57.47870462 -3.82421875 57.453125 C-5.20573646 57.45576836 -6.5872521 57.46089353 -7.96875 57.46875 C-9.22107422 57.47326172 -10.47339844 57.47777344 -11.76367188 57.48242188 C-15.02007007 57.77322687 -15.02007007 57.77322687 -17.40136719 59.59863281 C-19.54923439 62.82502588 -19.54392893 65.0918068 -19.609375 68.953125 C-19.62591125 69.61334656 -19.64244751 70.27356812 -19.65948486 70.95379639 C-19.70788451 73.05262626 -19.72931519 75.15073222 -19.75 77.25 C-19.77816683 78.6771196 -19.80809528 80.10420559 -19.83984375 81.53125 C-19.91694649 85.02116347 -19.95752807 88.50880769 -20 92 C-28.25 92 -36.5 92 -45 92 C-45.23145841 84.59566872 -45.45157077 77.20457902 -45.56925201 69.79976654 C-45.62711467 66.35133147 -45.70425109 62.90591843 -45.82983398 59.45922852 C-45.97334068 55.49533931 -46.02578757 51.53263905 -46.07421875 47.56640625 C-46.13099289 46.34417862 -46.18776703 45.12195099 -46.2462616 43.86268616 C-46.25001267 38.62316161 -46.15989952 35.3373878 -42.64328003 31.28265381 C-39.85609724 28.9810341 -37.02838895 26.96940633 -34 25 C-32.42488563 23.82496711 -30.85568591 22.64188933 -29.296875 21.4453125 C-27.7834875 20.3354841 -26.26783757 19.22873453 -24.75 18.125 C-23.9458667 17.53638184 -23.1417334 16.94776367 -22.31323242 16.34130859 C-20.67571937 15.14295485 -19.03730349 13.94583371 -17.39794922 12.75 C-14.36885047 10.53939322 -11.34596558 8.32038588 -8.32324219 6.10107422 C-5.55025143 4.06543773 -2.77518357 2.03264567 0 0 Z " fill="#26262D" transform="translate(110,35)"/>
<path d="M0 0 C3.71194997 1.64975554 5.85325399 3.56520639 8 7 C9.95855737 12.87567211 9.88044771 18.87770077 7.1875 24.5 C5.64889649 27.3767759 4.86152858 28.09231428 2 30 C-3.409102 30.79545618 -7.65350237 30.99640824 -12.125 27.6875 C-16.35120372 21.62994133 -15.70218714 14.09056361 -15 7 C-11.97360697 0.39388088 -6.77752659 -0.72988748 0 0 Z " fill="#EDEDEE" transform="translate(97,158)"/>
<path d="M0 0 C1.98 0 3.96 0 6 0 C8.97 7.26 11.94 14.52 15 22 C17.53941727 16.92116546 19.7448162 12.31448743 21.6875 7.0625 C23.89781022 1.10218978 23.89781022 1.10218978 25 0 C26.65 0 28.3 0 30 0 C30 9.9 30 19.8 30 30 C28.68 30 27.36 30 26 30 C25.67 24.06 25.34 18.12 25 12 C24.54109375 13.21558594 24.0821875 14.43117187 23.609375 15.68359375 C22.99039883 17.26854789 22.37056238 18.85316625 21.75 20.4375 C21.44964844 21.23994141 21.14929688 22.04238281 20.83984375 22.86914062 C20.53691406 23.63291016 20.23398438 24.39667969 19.921875 25.18359375 C19.64956055 25.89056396 19.37724609 26.59753418 19.09667969 27.32592773 C18 29 18 29 15.87988281 29.73852539 C15.25952148 29.82481201 14.63916016 29.91109863 14 30 C13.040062 27.93824636 12.08211576 25.87556531 11.125 23.8125 C10.32449219 22.08966797 10.32449219 22.08966797 9.5078125 20.33203125 C8.26545048 17.58660429 7.11916426 14.79791064 6 12 C5.67 17.94 5.34 23.88 5 30 C3.35 30 1.7 30 0 30 C0 20.1 0 10.2 0 0 Z " fill="#EBEBEB" transform="translate(114,158)"/>
<path d="M0 0 C6.27 0 12.54 0 19 0 C19 7.92 19 15.84 19 24 C12.73 24 6.46 24 0 24 C0 16.08 0 8.16 0 0 Z " fill="#26262D" transform="translate(101,103)"/>
<path d="M0 0 C1.65 0 3.3 0 5 0 C5 4.29 5 8.58 5 13 C9.62 13 14.24 13 19 13 C19 8.71 19 4.42 19 0 C20.65 0 22.3 0 24 0 C24 9.9 24 19.8 24 30 C22.35 30 20.7 30 19 30 C19 25.71 19 21.42 19 17 C14.38 17 9.76 17 5 17 C5 21.29 5 25.58 5 30 C3.35 30 1.7 30 0 30 C0 20.1 0 10.2 0 0 Z " fill="#DFDFE0" transform="translate(49,158)"/>
<path d="M0 0 C2.1875 1.5625 2.1875 1.5625 4 4 C4.53125 7.53125 4.53125 7.53125 4.5 11.5 C4.5103125 12.8096875 4.520625 14.119375 4.53125 15.46875 C4 19 4 19 2.15625 21.4375 C0 23 0 23 -3 23.5 C-6.63326668 22.89445555 -7.74144325 21.8441085 -10 19 C-11.40603618 16.18792765 -11.24557505 13.75990534 -11.3125 10.625 C-11.34988281 9.48289063 -11.38726562 8.34078125 -11.42578125 7.1640625 C-11 4 -11 4 -9.19921875 1.6171875 C-5.99988544 -0.7354306 -3.86906097 -0.552723 0 0 Z " fill="#2A2A31" transform="translate(97,162)"/>
<path d="M0 0 C6.27 0 12.54 0 19 0 C19 1.32 19 2.64 19 4 C14.38 4 9.76 4 5 4 C5 6.97 5 9.94 5 13 C8.96 13 12.92 13 17 13 C17 14.32 17 15.64 17 17 C13.04 17 9.08 17 5 17 C5 20.3 5 23.6 5 27 C9.62 27 14.24 27 19 27 C19 27.99 19 28.98 19 30 C12.73 30 6.46 30 0 30 C0 20.1 0 10.2 0 0 Z " fill="#E7E7E8" transform="translate(154,158)"/>
</svg>
