<?xml version="1.0" encoding="UTF-8"?>
<svg version="1.1" xmlns="http://www.w3.org/2000/svg" width="512" height="512">
<path d="M0 0 C0.77359057 -0.00175304 1.54718114 -0.00350607 2.34421384 -0.00531223 C4.93372075 -0.00996031 7.52317122 -0.00750981 10.11268044 -0.00507832 C11.98909222 -0.00694688 13.86550361 -0.00924777 15.74191439 -0.01194364 C20.89644394 -0.01806229 26.05095728 -0.01792797 31.20548964 -0.01674926 C36.76523877 -0.01654528 42.32498268 -0.02206379 47.88472939 -0.02680683 C58.77617856 -0.03511407 69.66762231 -0.0378617 80.55907439 -0.03841921 C89.41085321 -0.03889429 98.26263024 -0.04094864 107.11440849 -0.04411983 C128.12307597 -0.05149324 149.13174248 -0.05764465 170.14041138 -0.05712128 C170.81212372 -0.0571057 171.48383606 -0.05709012 172.17590332 -0.05707407 C175.58036579 -0.05699096 178.98482826 -0.05689192 182.38929074 -0.05678936 C183.06542113 -0.05676942 183.74155152 -0.05674947 184.43817071 -0.05672892 C185.80547036 -0.05668848 187.17277001 -0.05664669 188.54006966 -0.05660353 C209.81555165 -0.0559907 231.0910177 -0.06349909 252.36649513 -0.07717609 C276.27293235 -0.09253811 300.17935918 -0.10112959 324.08580267 -0.10021287 C336.74259008 -0.09988069 349.39935951 -0.10263705 362.05614281 -0.11339092 C372.83084865 -0.12248698 383.60552836 -0.12467849 394.38023637 -0.1178815 C399.87799168 -0.11461192 405.37569685 -0.11457546 410.87344742 -0.12323475 C415.90682014 -0.13108114 420.94010279 -0.12968735 425.97347327 -0.12095062 C427.79373553 -0.11941154 429.61400445 -0.12124711 431.43425886 -0.12681069 C456.88023441 -0.19943113 456.88023441 -0.19943113 465.97196388 7.81613445 C474.171599 16.46936641 475.69965565 25.21375439 475.59671974 36.79245281 C475.25906131 45.79752405 472.87192417 51.68673909 466.37040138 58.00363445 C458.06878029 64.65748576 448.62158817 66.28586599 438.22881985 66.26006222 C437.45529394 66.26211485 436.68176804 66.26416749 435.88480195 66.26628232 C433.28947566 66.27194257 430.6942026 66.27049627 428.09887123 66.26907635 C426.22062293 66.27166054 424.34237518 66.27467385 422.4641282 66.27807975 C417.29980063 66.28614659 412.13548697 66.28793914 406.97115386 66.28867722 C401.40248595 66.2905283 395.83382525 66.2980759 390.26516151 66.30481243 C378.08748163 66.31839376 365.90980504 66.32442008 353.73211884 66.32882309 C346.12873404 66.33158569 338.5253505 66.33582307 330.92196655 66.34032726 C309.87131043 66.35251937 288.82065515 66.36285437 267.76999569 66.36620235 C266.40913425 66.36642399 265.04827282 66.36664577 263.68741138 66.36686771 C262.32329256 66.36708835 260.95917374 66.36730883 259.59505492 66.36752915 C256.85846794 66.3679717 254.12188095 66.36841882 251.38529396 66.36886883 C250.70678136 66.36897822 250.02826876 66.36908761 249.32919517 66.36920032 C227.32934075 66.3728308 205.32951928 66.38875125 183.32967748 66.41205919 C160.06240985 66.4366648 136.79516362 66.4503688 113.52788037 66.45157027 C100.84752898 66.45248711 88.16722076 66.45824169 75.48688126 66.47638988 C64.68987582 66.49178819 53.89292688 66.49691288 43.09591255 66.48865178 C37.58776576 66.48474443 32.07973276 66.48567918 26.57159996 66.49970913 C21.52632754 66.51244255 16.48125449 66.51125532 11.43598237 66.49911842 C9.6136343 66.49716048 7.79127214 66.50024433 5.96894387 66.50896278 C-19.21529964 66.62179372 -19.21529964 66.62179372 -28.75069237 57.3747282 C-35.76501816 49.92291847 -37.51414467 42.75542793 -37.44209862 32.75363445 C-37.43565331 31.82405926 -37.42920799 30.89448406 -37.42256737 29.93673992 C-37.17406533 20.63916707 -34.947415 14.73873818 -28.19209862 8.25363445 C-19.61153949 1.40211454 -10.80183195 -0.03131273 0 0 Z " fill="#FFFFFF" transform="translate(36.94209861755371,382.8713655471802)"/>
<path d="M0 0 C0.77359057 -0.00175304 1.54718114 -0.00350607 2.34421384 -0.00531223 C4.93372075 -0.00996031 7.52317122 -0.00750981 10.11268044 -0.00507832 C11.98909222 -0.00694688 13.86550361 -0.00924777 15.74191439 -0.01194364 C20.89644394 -0.01806229 26.05095728 -0.01792797 31.20548964 -0.01674926 C36.76523877 -0.01654528 42.32498268 -0.02206379 47.88472939 -0.02680683 C58.77617856 -0.03511407 69.66762231 -0.0378617 80.55907439 -0.03841921 C89.41085321 -0.03889429 98.26263024 -0.04094864 107.11440849 -0.04411983 C128.12307597 -0.05149324 149.13174248 -0.05764465 170.14041138 -0.05712128 C170.81212372 -0.0571057 171.48383606 -0.05709012 172.17590332 -0.05707407 C175.58036579 -0.05699096 178.98482826 -0.05689192 182.38929074 -0.05678936 C183.06542113 -0.05676942 183.74155152 -0.05674947 184.43817071 -0.05672892 C185.80547036 -0.05668848 187.17277001 -0.05664669 188.54006966 -0.05660353 C209.81555165 -0.0559907 231.0910177 -0.06349909 252.36649513 -0.07717609 C276.27293235 -0.09253811 300.17935918 -0.10112959 324.08580267 -0.10021287 C336.74259008 -0.09988069 349.39935951 -0.10263705 362.05614281 -0.11339092 C372.83084865 -0.12248698 383.60552836 -0.12467849 394.38023637 -0.1178815 C399.87799168 -0.11461192 405.37569685 -0.11457546 410.87344742 -0.12323475 C415.90682014 -0.13108114 420.94010279 -0.12968735 425.97347327 -0.12095062 C427.79373553 -0.11941154 429.61400445 -0.12124711 431.43425886 -0.12681069 C456.88023441 -0.19943113 456.88023441 -0.19943113 465.97196388 7.81613445 C474.171599 16.46936641 475.69965565 25.21375439 475.59671974 36.79245281 C475.25906131 45.79752405 472.87192417 51.68673909 466.37040138 58.00363445 C458.06878029 64.65748576 448.62158817 66.28586599 438.22881985 66.26006222 C437.45529394 66.26211485 436.68176804 66.26416749 435.88480195 66.26628232 C433.28947566 66.27194257 430.6942026 66.27049627 428.09887123 66.26907635 C426.22062293 66.27166054 424.34237518 66.27467385 422.4641282 66.27807975 C417.29980063 66.28614659 412.13548697 66.28793914 406.97115386 66.28867722 C401.40248595 66.2905283 395.83382525 66.2980759 390.26516151 66.30481243 C378.08748163 66.31839376 365.90980504 66.32442008 353.73211884 66.32882309 C346.12873404 66.33158569 338.5253505 66.33582307 330.92196655 66.34032726 C309.87131043 66.35251937 288.82065515 66.36285437 267.76999569 66.36620235 C266.40913425 66.36642399 265.04827282 66.36664577 263.68741138 66.36686771 C262.32329256 66.36708835 260.95917374 66.36730883 259.59505492 66.36752915 C256.85846794 66.3679717 254.12188095 66.36841882 251.38529396 66.36886883 C250.70678136 66.36897822 250.02826876 66.36908761 249.32919517 66.36920032 C227.32934075 66.3728308 205.32951928 66.38875125 183.32967748 66.41205919 C160.06240985 66.4366648 136.79516362 66.4503688 113.52788037 66.45157027 C100.84752898 66.45248711 88.16722076 66.45824169 75.48688126 66.47638988 C64.68987582 66.49178819 53.89292688 66.49691288 43.09591255 66.48865178 C37.58776576 66.48474443 32.07973276 66.48567918 26.57159996 66.49970913 C21.52632754 66.51244255 16.48125449 66.51125532 11.43598237 66.49911842 C9.6136343 66.49716048 7.79127214 66.50024433 5.96894387 66.50896278 C-19.21529964 66.62179372 -19.21529964 66.62179372 -28.75069237 57.3747282 C-35.76501816 49.92291847 -37.51414467 42.75542793 -37.44209862 32.75363445 C-37.43565331 31.82405926 -37.42920799 30.89448406 -37.42256737 29.93673992 C-37.17406533 20.63916707 -34.947415 14.73873818 -28.19209862 8.25363445 C-19.61153949 1.40211454 -10.80183195 -0.03131273 0 0 Z " fill="#FFFFFF" transform="translate(36.94209861755371,222.87136554718018)"/>
<path d="M0 0 C0.77359057 -0.00175304 1.54718114 -0.00350607 2.34421384 -0.00531223 C4.93372075 -0.00996031 7.52317122 -0.00750981 10.11268044 -0.00507832 C11.98909222 -0.00694688 13.86550361 -0.00924777 15.74191439 -0.01194364 C20.89644394 -0.01806229 26.05095728 -0.01792797 31.20548964 -0.01674926 C36.76523877 -0.01654528 42.32498268 -0.02206379 47.88472939 -0.02680683 C58.77617856 -0.03511407 69.66762231 -0.0378617 80.55907439 -0.03841921 C89.41085321 -0.03889429 98.26263024 -0.04094864 107.11440849 -0.04411983 C128.12307597 -0.05149324 149.13174248 -0.05764465 170.14041138 -0.05712128 C170.81212372 -0.0571057 171.48383606 -0.05709012 172.17590332 -0.05707407 C175.58036579 -0.05699096 178.98482826 -0.05689192 182.38929074 -0.05678936 C183.06542113 -0.05676942 183.74155152 -0.05674947 184.43817071 -0.05672892 C185.80547036 -0.05668848 187.17277001 -0.05664669 188.54006966 -0.05660353 C209.81555165 -0.0559907 231.0910177 -0.06349909 252.36649513 -0.07717609 C276.27293235 -0.09253811 300.17935918 -0.10112959 324.08580267 -0.10021287 C336.74259008 -0.09988069 349.39935951 -0.10263705 362.05614281 -0.11339092 C372.83084865 -0.12248698 383.60552836 -0.12467849 394.38023637 -0.1178815 C399.87799168 -0.11461192 405.37569685 -0.11457546 410.87344742 -0.12323475 C415.90682014 -0.13108114 420.94010279 -0.12968735 425.97347327 -0.12095062 C427.79373553 -0.11941154 429.61400445 -0.12124711 431.43425886 -0.12681069 C456.88023441 -0.19943113 456.88023441 -0.19943113 465.97196388 7.81613445 C474.171599 16.46936641 475.69965565 25.21375439 475.59671974 36.79245281 C475.25906131 45.79752405 472.87192417 51.68673909 466.37040138 58.00363445 C458.06878029 64.65748576 448.62158817 66.28586599 438.22881985 66.26006222 C437.45529394 66.26211485 436.68176804 66.26416749 435.88480195 66.26628232 C433.28947566 66.27194257 430.6942026 66.27049627 428.09887123 66.26907635 C426.22062293 66.27166054 424.34237518 66.27467385 422.4641282 66.27807975 C417.29980063 66.28614659 412.13548697 66.28793914 406.97115386 66.28867722 C401.40248595 66.2905283 395.83382525 66.2980759 390.26516151 66.30481243 C378.08748163 66.31839376 365.90980504 66.32442008 353.73211884 66.32882309 C346.12873404 66.33158569 338.5253505 66.33582307 330.92196655 66.34032726 C309.87131043 66.35251937 288.82065515 66.36285437 267.76999569 66.36620235 C266.40913425 66.36642399 265.04827282 66.36664577 263.68741138 66.36686771 C262.32329256 66.36708835 260.95917374 66.36730883 259.59505492 66.36752915 C256.85846794 66.3679717 254.12188095 66.36841882 251.38529396 66.36886883 C250.70678136 66.36897822 250.02826876 66.36908761 249.32919517 66.36920032 C227.32934075 66.3728308 205.32951928 66.38875125 183.32967748 66.41205919 C160.06240985 66.4366648 136.79516362 66.4503688 113.52788037 66.45157027 C100.84752898 66.45248711 88.16722076 66.45824169 75.48688126 66.47638988 C64.68987582 66.49178819 53.89292688 66.49691288 43.09591255 66.48865178 C37.58776576 66.48474443 32.07973276 66.48567918 26.57159996 66.49970913 C21.52632754 66.51244255 16.48125449 66.51125532 11.43598237 66.49911842 C9.6136343 66.49716048 7.79127214 66.50024433 5.96894387 66.50896278 C-19.21529964 66.62179372 -19.21529964 66.62179372 -28.75069237 57.3747282 C-35.76501816 49.92291847 -37.51414467 42.75542793 -37.44209862 32.75363445 C-37.43565331 31.82405926 -37.42920799 30.89448406 -37.42256737 29.93673992 C-37.17406533 20.63916707 -34.947415 14.73873818 -28.19209862 8.25363445 C-19.61153949 1.40211454 -10.80183195 -0.03131273 0 0 Z " fill="#FFFFFF" transform="translate(36.94209861755371,62.871365547180176)"/>
</svg>
