<?xml version="1.0" encoding="UTF-8"?>
<svg version="1.1" xmlns="http://www.w3.org/2000/svg" width="250" height="213">
<path d="M0 0 C1.25512894 -0.0127597 2.51025787 -0.02551941 3.80342102 -0.03866577 C5.16606491 -0.04172396 6.52871088 -0.04395143 7.89135742 -0.04541016 C9.29994337 -0.05184381 10.708528 -0.05857259 12.11711121 -0.06558228 C15.06671239 -0.07753787 18.01619662 -0.08126496 20.96582031 -0.08007812 C24.72840734 -0.07987521 28.49023675 -0.10715568 32.25264454 -0.14162254 C35.16191488 -0.16396384 38.07100509 -0.16791345 40.9803524 -0.16685867 C42.3665191 -0.1692046 43.75269153 -0.1779709 45.13877296 -0.19352341 C53.066103 -0.27413453 58.9617779 -0.12465373 65.68432617 4.29052734 C67.74291992 6.54443359 67.74291992 6.54443359 69.12182617 8.85302734 C69.59491211 9.61744141 70.06799805 10.38185547 70.55541992 11.16943359 C72.76594137 15.32276627 72.83812094 19.00497867 72.84545898 23.58837891 C72.85290634 24.69870735 72.85290634 24.69870735 72.86050415 25.83146667 C72.87511323 28.28137136 72.88192647 30.73121124 72.88745117 33.18115234 C72.89320466 34.88645428 72.89896237 36.5917562 72.90472412 38.29705811 C72.91523123 41.87479961 72.92107546 45.45251867 72.92456055 49.03027344 C72.93003774 53.60444113 72.9540503 58.17831003 72.9825325 62.75238419 C73.00120161 66.27666069 73.0063668 69.80086592 73.00789642 73.32518768 C73.01091499 75.01081725 73.01891656 76.69644581 73.0320816 78.38202667 C73.04922816 80.74661129 73.04724095 83.11047528 73.04077148 85.47509766 C73.04998627 86.16522446 73.05920105 86.85535126 73.06869507 87.56639099 C73.00299842 95.27160942 70.05717679 100.79272671 64.68432617 106.29052734 C60.20354212 109.31245147 56.24595062 109.6019675 51.01245117 109.97802734 C48.03455916 110.37774439 46.13955079 111.60694475 43.68432617 113.29052734 C40.35802819 114.12306492 37.23035729 114.4232819 33.80908203 114.45166016 C32.39622169 114.46607147 32.39622169 114.46607147 30.95481873 114.48077393 C29.94645462 114.4850238 28.93809052 114.48927368 27.89916992 114.49365234 C26.84709854 114.49935242 25.79502716 114.50505249 24.71107483 114.51092529 C22.48447673 114.52036103 20.25786475 114.5269036 18.03125 114.53076172 C14.65819222 114.54042318 11.28575557 114.57144252 7.9128418 114.60302734 C5.74162143 114.60956261 3.57039673 114.61481102 1.39916992 114.61865234 C0.40497543 114.63099915 -0.58921906 114.64334595 -1.61354065 114.65606689 C-11.37317999 114.62568257 -22.08259048 113.46559131 -29.31567383 106.29052734 C-34.76417505 100.06991232 -36.56093492 94.1204129 -36.59033203 85.81982422 C-36.59544296 85.09706802 -36.60055389 84.37431183 -36.6058197 83.62965393 C-36.61964566 81.25610932 -36.61876455 78.88285728 -36.61645508 76.50927734 C-36.62034528 74.85070692 -36.62468061 73.19213749 -36.62944031 71.53356934 C-36.63688702 68.06368779 -36.63662207 64.59390802 -36.63134766 61.12402344 C-36.6255488 56.68545367 -36.64250141 52.24730062 -36.66569233 47.80879974 C-36.68044725 44.3857786 -36.68129909 40.96285749 -36.6781826 37.53981018 C-36.67869472 35.90360182 -36.68391195 34.2673877 -36.69399452 32.63121033 C-36.7063789 30.34094372 -36.69955643 28.05148486 -36.68798828 25.76123047 C-36.68861771 24.46028442 -36.68924713 23.15933838 -36.68989563 21.81896973 C-36.12272562 16.47126767 -34.12636107 12.4907346 -30.00317383 9.04052734 C-25.04991019 5.06964376 -19.65919067 4.07033819 -13.56176758 2.85302734 C-11.26865472 2.34991782 -11.26865472 2.34991782 -9.07002258 1.27352905 C-5.89151857 0.13915024 -3.37202895 0.02333349 0 0 Z M-10.12817383 13.79052734 C-12.86184263 17.24358267 -12.46005681 21.01613018 -12.49267578 25.22119141 C-12.49924698 25.92239609 -12.50581818 26.62360077 -12.5125885 27.34605408 C-12.53229424 29.66608797 -12.5439788 31.98605717 -12.55395508 34.30615234 C-12.55803061 35.10004112 -12.56210613 35.8939299 -12.56630516 36.71187592 C-12.58715565 40.91501097 -12.601461 45.1181135 -12.61083984 49.32128906 C-12.62189405 53.65342165 -12.65628503 57.98503914 -12.69601154 62.3169899 C-12.72221172 65.6559746 -12.73053474 68.99483727 -12.73412132 72.33391571 C-12.73897958 73.93024926 -12.7505719 75.52657764 -12.76915932 77.12281036 C-12.79362157 79.36304512 -12.79257353 81.60195653 -12.78564453 83.84228516 C-12.79151077 85.11452942 -12.79737701 86.38677368 -12.80342102 87.6975708 C-12.1845872 92.2561681 -10.95844373 94.53042168 -8.31567383 98.29052734 C-5.39149905 100.4350128 -2.87552784 100.54634057 0.6965332 100.56518555 C1.69081329 100.57471756 2.68509338 100.58424957 3.70950317 100.59407043 C4.77627289 100.59315903 5.8430426 100.59224762 6.94213867 100.59130859 C8.59123734 100.59773628 8.59123734 100.59773628 10.27365112 100.60429382 C12.59526887 100.61003311 14.9169046 100.61054035 17.23852539 100.60620117 C20.80279877 100.60303315 24.36624868 100.62653407 27.93041992 100.65185547 C30.18432512 100.65412757 32.43823256 100.65483237 34.69213867 100.65380859 C35.76295685 100.66301834 36.83377502 100.67222809 37.93704224 100.68171692 C38.92501801 100.67548813 39.91299377 100.66925934 40.9309082 100.6628418 C41.80264679 100.66347122 42.67438538 100.66410065 43.57254028 100.66474915 C44.26942963 100.54125595 44.96631897 100.41776276 45.68432617 100.29052734 C47.8740839 97.00589075 48.6823918 94.08356459 49.68432617 90.29052734 C51.99432617 90.29052734 54.30432617 90.29052734 56.68432617 90.29052734 C56.68432617 93.26052734 56.68432617 96.23052734 56.68432617 99.29052734 C58.13838867 98.20771484 58.13838867 98.20771484 59.62182617 97.10302734 C60.16709961 96.69697266 60.71237305 96.29091797 61.27416992 95.87255859 C64.43449504 92.3270415 63.81972298 86.99875197 63.84545898 82.5 C63.85042389 81.83751755 63.85538879 81.1750351 63.86050415 80.49247742 C63.87504159 78.31317078 63.88191307 76.13393689 63.88745117 73.95458984 C63.89027855 73.20666546 63.89310593 72.45874107 63.89601898 71.68815231 C63.91097646 67.73138834 63.92022804 63.77466052 63.92456055 59.81787109 C63.93004489 55.74371264 63.95408176 51.66988842 63.9825325 47.59583473 C64.00121036 44.45072478 64.00636717 41.30569462 64.00789642 38.16053391 C64.01091108 36.65911402 64.01889931 35.15769515 64.0320816 33.65633011 C64.04925342 31.55057977 64.04723561 29.44563686 64.04077148 27.33984375 C64.04441711 26.14469147 64.04806274 24.94953918 64.05181885 23.71817017 C63.53873427 18.93257639 62.29128021 14.79704675 58.68432617 11.41552734 C55.141325 9.42258918 52.2869386 9.15746882 48.29833984 9.12939453 C47.19677048 9.11978699 46.09520111 9.11017944 44.96025085 9.10028076 C43.7696254 9.09603088 42.57899994 9.09178101 41.35229492 9.08740234 C40.12779129 9.08170227 38.90328766 9.0760022 37.64167786 9.07012939 C35.04839951 9.06067621 32.45510913 9.05414416 29.86181641 9.05029297 C25.89814237 9.04059175 21.93498775 9.00957212 17.97143555 8.97802734 C15.45255842 8.97149685 12.93367758 8.96624656 10.41479492 8.96240234 C9.23024216 8.95005554 8.04568939 8.93770874 6.82524109 8.92498779 C0.04479544 8.94330311 -4.72709885 9.32067219 -10.12817383 13.79052734 Z M-24.31567383 17.16552734 C-27.64360618 20.70145547 -27.45335978 22.94317995 -27.49267578 27.72460938 C-27.49924698 28.38504745 -27.50581818 29.04548553 -27.5125885 29.72593689 C-27.53233361 31.91673903 -27.54399009 34.1074724 -27.55395508 36.29833984 C-27.55803061 37.0477673 -27.56210613 37.79719475 -27.56630516 38.56933212 C-27.58717656 42.54019648 -27.6014705 46.51102623 -27.61083984 50.48193359 C-27.62187347 54.5707538 -27.65623426 58.65902514 -27.69601154 62.74765205 C-27.72225217 65.90138714 -27.7305385 69.05499334 -27.73412132 72.20882797 C-27.73897244 73.71502236 -27.75054421 75.22121157 -27.76915932 76.72729874 C-27.92586241 88.10580368 -27.92586241 88.10580368 -23.31567383 98.29052734 C-20.75167608 100.3017248 -20.75167608 100.3017248 -18.31567383 101.29052734 C-18.6390976 100.30148911 -18.96252136 99.31245087 -19.29574585 98.29344177 C-20.43438506 94.28688725 -20.62196853 90.39032214 -20.63452148 86.24389648 C-20.64456711 85.47234222 -20.65461273 84.70078796 -20.66496277 83.90585327 C-20.69562478 81.37913699 -20.71278218 78.85252581 -20.72973633 76.32568359 C-20.74846168 74.56447964 -20.7680361 72.80328452 -20.78842163 71.042099 C-20.8396045 66.42427804 -20.87930406 61.80642804 -20.91656494 57.18847656 C-20.95669168 52.46916603 -21.00774436 47.74997486 -21.05786133 43.03076172 C-21.15445655 33.78410095 -21.23891352 24.53737256 -21.31567383 15.29052734 C-22.65099496 15.17653716 -22.65099496 15.17653716 -24.31567383 17.16552734 Z " fill="#F4F5F7" transform="translate(111.315673828125,24.70947265625)"/>
<path d="M0 0 C6 0 6 0 7.78271484 1.74414062 C8.25402832 2.54013672 8.7253418 3.33613281 9.2109375 4.15625 C9.73300781 5.01347656 10.25507813 5.87070313 10.79296875 6.75390625 C11.31503906 7.66011719 11.83710938 8.56632813 12.375 9.5 C12.92027344 10.40621094 13.46554688 11.31242188 14.02734375 12.24609375 C15.37114485 14.48576225 16.68817512 16.7414536 18 19 C18.33 12.73 18.66 6.46 19 0 C20.65 0 22.3 0 24 0 C24 9.9 24 19.8 24 30 C22.35 30 20.7 30 19 30 C16.9375 27.875 16.9375 27.875 15 25 C14.360625 24.071875 13.72125 23.14375 13.0625 22.1875 C10.66671969 18.48493043 8.33733647 14.73973835 6 11 C5.67 17.27 5.34 23.54 5 30 C3.35 30 1.7 30 0 30 C0 20.1 0 10.2 0 0 Z " fill="#FDFDFD" transform="translate(148,158)"/>
<path d="M0 0 C2.0625 2.6875 2.0625 2.6875 2.0625 6.6875 C0.4125 6.6875 -1.2375 6.6875 -2.9375 6.6875 C-3.5975 5.3675 -4.2575 4.0475 -4.9375 2.6875 C-7.9075 2.6875 -10.8775 2.6875 -13.9375 2.6875 C-13.68754507 5.62380876 -13.68754507 5.62380876 -11.9375 8.6875 C-9.47241693 9.96344088 -6.97443378 10.84367951 -4.359375 11.76953125 C-1.3354938 12.91567977 0.32840963 13.92871987 2.0625 16.6875 C2.6875 20.125 2.6875 20.125 2.0625 23.6875 C-0.47913106 26.67391649 -2.07371939 28.29921237 -5.90625 29.09765625 C-10.56625195 29.30377172 -13.97092111 28.23744357 -17.9375 25.6875 C-19.9375 22.6875 -19.9375 22.6875 -19.9375 18.6875 C-18.2875 18.6875 -16.6375 18.6875 -14.9375 18.6875 C-14.73125 19.326875 -14.525 19.96625 -14.3125 20.625 C-13.05391628 23.00001699 -13.05391628 23.00001699 -10 23.5 C-6.89656921 23.88141798 -6.89656921 23.88141798 -3.9375 22.6875 C-3.9375 21.0375 -3.9375 19.3875 -3.9375 17.6875 C-4.76894531 17.36136719 -5.60039062 17.03523438 -6.45703125 16.69921875 C-7.54371094 16.26222656 -8.63039062 15.82523438 -9.75 15.375 C-10.82894531 14.94574219 -11.90789062 14.51648438 -13.01953125 14.07421875 C-15.66855343 12.81531263 -17.23348841 12.03705865 -18.9375 9.6875 C-19.57916357 4.63439937 -19.57916357 4.63439937 -18.9375 1.6875 C-13.52437975 -4.1767136 -6.43604437 -5.06667323 0 0 Z " fill="#FCFCFC" transform="translate(199.9375,160.3125)"/>
<path d="M0 0 C1.65 0 3.3 0 5 0 C6.57090902 3.94930174 8.13737167 7.90032854 9.69970703 11.85302734 C10.2320106 13.19791391 10.76553404 14.54231832 11.30029297 15.88623047 C12.06798081 17.81613217 12.8312893 19.74771573 13.59375 21.6796875 C14.05458984 22.84226074 14.51542969 24.00483398 14.99023438 25.20263672 C16 28 16 28 16 30 C14.35 30 12.7 30 11 30 C9.5393715 27.35261084 9 26.10551666 9 23 C4.92344518 23.01264048 0.99259074 23.1362967 -3 24 C-5.39248595 26.85602535 -5.39248595 26.85602535 -6 30 C-7.65 30 -9.3 30 -11 30 C-8.81763743 23.22682582 -6.36792454 16.577907 -3.8125 9.9375 C-3.44447266 8.97650391 -3.07644531 8.01550781 -2.69726562 7.02539062 C-1.79990328 4.68292528 -0.90078716 2.34114999 0 0 Z M2 7 C0.68 10.96 -0.64 14.92 -2 19 C0.97 19 3.94 19 7 19 C5.68 15.04 4.36 11.08 3 7 C2.67 7 2.34 7 2 7 Z " fill="#FDFDFD" transform="translate(126,158)"/>
<path d="M0 0 C2.536875 -0.061875 5.07375 -0.12375 7.6875 -0.1875 C8.47729248 -0.21481201 9.26708496 -0.24212402 10.08081055 -0.27026367 C14.60318145 -0.32344113 17.43303549 0.18325747 21 3 C22.72370774 6.44741547 22.50306672 10.23035339 22 14 C20.12379387 16.50160818 18.76108697 17.61945652 16 19 C12.32984725 19.1377685 8.67388652 19.04271961 5 19 C5 22.63 5 26.26 5 30 C3.35 30 1.7 30 0 30 C0 20.1 0 10.2 0 0 Z M5 4 C5 7.63 5 11.26 5 15 C11.31268603 15.37552165 11.31268603 15.37552165 17 13 C17.25015873 9.58357241 17.25015873 9.58357241 17 6 C12.7975546 3.19836974 9.99895065 3.85510288 5 4 Z " fill="#FCFCFC" transform="translate(62,158)"/>
<path d="M0 0 C1.65 0 3.3 0 5 0 C5 8.58 5 17.16 5 26 C9.62 26 14.24 26 19 26 C19 27.32 19 28.64 19 30 C12.73 30 6.46 30 0 30 C0 20.1 0 10.2 0 0 Z " fill="#FDFDFD" transform="translate(92,158)"/>
<path d="M0 0 C0.33 0 0.66 0 1 0 C1.00364563 0.84667236 1.00729126 1.69334473 1.01104736 2.56567383 C1.0490115 10.56899615 1.10595938 18.57191445 1.18390274 26.57495117 C1.22330786 30.68881763 1.25553019 34.80247228 1.27099609 38.91650391 C1.28620901 42.89142474 1.32073543 46.865763 1.36830902 50.84042358 C1.38307534 52.35211099 1.39103828 53.86388159 1.39188385 55.37564087 C1.4025427 64.88201719 1.60670432 72.11856036 8.25 79.5 C8.8275 79.995 9.405 80.49 10 81 C7.03 81.495 7.03 81.495 4 82 C3.67 81.34 3.34 80.68 3 80 C0.81509993 82.67642489 0.81509993 82.67642489 1 85 C0.34 85 -0.32 85 -1 85 C-4.0220684 81.90466934 -5.85315085 78.9728756 -6.5 74.6875 C-6.335 73.800625 -6.17 72.91375 -6 72 C-3 70 -3 70 -1 70 C-0.67 46.9 -0.34 23.8 0 0 Z " fill="#EEF0F2" transform="translate(83,46)"/>
</svg>
