<?xml version="1.0" encoding="UTF-8"?>
<svg version="1.1" xmlns="http://www.w3.org/2000/svg" width="283" height="238">
<path d="M0 0 C93.39 0 186.78 0 283 0 C283 78.54 283 157.08 283 238 C189.61 238 96.22 238 0 238 C0 159.46 0 80.92 0 0 Z " fill="#26262D" transform="translate(0,0)"/>
<path d="M0 0 C93.39 0 186.78 0 283 0 C283 78.54 283 157.08 283 238 C189.61 238 96.22 238 0 238 C0 159.46 0 80.92 0 0 Z M31.36279297 44.47314453 C28.15287516 48.06949458 25.50352032 51.89010465 23 56 C22.33355469 57.08023438 21.66710937 58.16046875 20.98046875 59.2734375 C16.39852041 66.88557251 12.88112071 74.57349641 10 83 C9.63003906 83.99 9.26007812 84.98 8.87890625 86 C0.20161821 110.91939129 2.72656345 141.40528157 13.6328125 165.25 C14.08398438 166.1575 14.53515625 167.065 15 168 C15.51304688 169.051875 16.02609375 170.10375 16.5546875 171.1875 C20.60347531 179.09849554 25.4076822 186.10471019 31 193 C31.67546875 193.84175781 32.3509375 194.68351563 33.046875 195.55078125 C46.41740359 211.30890423 64.48585884 222.5378564 84 229 C84.84046875 229.29519531 85.6809375 229.59039062 86.546875 229.89453125 C103.91895856 235.37051411 123.49410644 234.3764042 141.47216797 234.37060547 C144.15766225 234.37044259 146.84247668 234.38442144 149.52783203 234.41162109 C169.06870423 234.60618467 188.09537142 234.15730268 206.3125 226.3125 C207.13097412 225.9714624 207.94944824 225.6304248 208.79272461 225.27905273 C237.46156156 212.96126347 259.71751852 190.2447784 271.3125 161.25 C272.23901351 158.84283373 273.12343652 156.42634968 274 154 C274.31839844 153.14019531 274.63679688 152.28039062 274.96484375 151.39453125 C279.42334904 138.1521051 279.4351758 123.81254838 279 110 C278.95552734 108.47052734 278.95552734 108.47052734 278.91015625 106.91015625 C278.45147588 99.29158711 276.31894237 92.23981669 274 85 C273.65066406 83.86433594 273.30132812 82.72867188 272.94140625 81.55859375 C268.25358063 67.30046671 260.91108471 55.22148883 251 44 C250.46246094 43.319375 249.92492187 42.63875 249.37109375 41.9375 C233.35783479 22.03129338 206.06354106 8.98503907 181.2409668 5.46728516 C174.26994701 4.72502052 167.26034243 4.79414115 160.2578125 4.76171875 C159.50646908 4.75764322 158.75512566 4.7535677 157.98101425 4.74936867 C153.99743691 4.72860748 150.01389292 4.71426783 146.03027344 4.70483398 C142.77780184 4.69601531 139.5257632 4.67522585 136.2734375 4.64331055 C94.78954408 4.2450405 60.34671737 13.23731276 31.36279297 44.47314453 Z " fill="#EFF0F2" transform="translate(0,0)"/>
<path d="M0 0 C8.12816685 5.91016458 13.36308309 13.15096699 16.22265625 22.76953125 C17.54021879 34.10056912 15.65582363 43.02129333 9.1328125 52.44921875 C7.40603342 54.61930297 5.53115187 56.53432272 3.53515625 58.45703125 C4.87707031 59.16666016 4.87707031 59.16666016 6.24609375 59.890625 C21.46697003 68.12840151 33.46312901 78.83120273 38.90234375 95.859375 C40.09677986 100.76246151 40.99157034 105.02815258 38.2890625 109.53515625 C35.83358663 112.54785981 34.27625171 114.20999943 30.53515625 115.45703125 C29.12506972 115.55140324 27.71098989 115.59187019 26.29776001 115.59747314 C25.43420395 115.60318329 24.57064789 115.60889343 23.68092346 115.61477661 C22.73643845 115.61589447 21.79195343 115.61701233 20.81884766 115.61816406 C19.82182327 115.62312897 18.82479889 115.62809387 17.79756165 115.63320923 C14.49394037 115.64783383 11.1903671 115.65463305 7.88671875 115.66015625 C5.59369912 115.66590705 3.30067951 115.67166479 1.00765991 115.6774292 C-3.80251286 115.68793976 -8.61266892 115.6937822 -13.42285156 115.69726562 C-19.58900635 115.70275325 -25.75494064 115.72678694 -31.92102623 115.75523758 C-36.65819954 115.77385211 -41.3953196 115.77906891 -46.1325264 115.7806015 C-48.40593294 115.78363077 -50.67933849 115.79166846 -52.9527092 115.80478668 C-56.13189276 115.82182356 -59.31053552 115.81997262 -62.48974609 115.81347656 C-63.43018265 115.82269135 -64.3706192 115.83190613 -65.33955383 115.84140015 C-71.70336012 115.80062566 -75.06727508 114.72500161 -79.77734375 110.26953125 C-82.01536349 106.53949835 -82.16114477 103.63483734 -81.46484375 99.45703125 C-76.614842 81.25590109 -65.25841158 69.65697901 -49.46484375 60.45703125 C-48.14103757 59.77164128 -46.81253168 59.09418074 -45.46484375 58.45703125 C-45.9959375 57.92335937 -46.52703125 57.3896875 -47.07421875 56.83984375 C-55.49317019 47.96000081 -58.12701073 40.30069444 -58.08081055 28.2199707 C-57.78114267 20.96952546 -55.53380379 15.47286213 -51.46484375 9.45703125 C-51.07039063 8.84601562 -50.6759375 8.235 -50.26953125 7.60546875 C-38.80795129 -8.02395847 -15.60229265 -9.76688684 0 0 Z " fill="#F1F2F4" transform="translate(160.46484375,43.54296875)"/>
<path d="M0 0 C0.33 0 0.66 0 1 0 C1.1959375 1.21171875 1.391875 2.4234375 1.59375 3.671875 C5.5251494 26.30934709 14.03643179 45.45155436 29 63 C29.96099609 64.19689453 29.96099609 64.19689453 30.94140625 65.41796875 C37.56363026 73.32191354 45.60174714 79.13095945 54 85 C54.84175781 85.598125 55.68351562 86.19625 56.55078125 86.8125 C70.76882462 96.10599904 87.45083455 100.32396474 104 103 C104 103.33 104 103.66 104 104 C69.68 104 35.36 104 0 104 C0 69.68 0 35.36 0 0 Z " fill="#26262D" transform="translate(0,134)"/>
<path d="M0 0 C0.33 0 0.66 0 1 0 C1 33.33 1 66.66 1 101 C-32.99 101 -66.98 101 -102 101 C-102 100.67 -102 100.34 -102 100 C-100.8140625 99.78085938 -99.628125 99.56171875 -98.40625 99.3359375 C-67.79771397 93.44588654 -39.82428927 78.5429246 -21.3125 52.8125 C-10.42048328 36.2669138 -3.69482248 19.49544545 0 0 Z " fill="#26262D" transform="translate(282,137)"/>
<path d="M0 0 C33 0 66 0 100 0 C100 0.33 100 0.66 100 1 C98.94425781 1.18433594 97.88851562 1.36867187 96.80078125 1.55859375 C79.49803469 4.84417591 63.06199417 11.25431073 49 22 C47.75283203 22.91845703 47.75283203 22.91845703 46.48046875 23.85546875 C35.05924178 32.57876809 25.46052899 42.67943107 18 55 C17.61714844 55.6300293 17.23429687 56.26005859 16.83984375 56.90917969 C8.41580995 71.06739492 3.17539073 86.64706277 1 103 C0.67 103 0.34 103 0 103 C0 69.01 0 35.02 0 0 Z " fill="#26262D" transform="translate(0,1)"/>
<path d="M0 0 C33 0 66 0 100 0 C100 33.33 100 66.66 100 101 C99.67 101 99.34 101 99 101 C98.85304688 100.11441406 98.70609375 99.22882813 98.5546875 98.31640625 C94.58498893 76.39180668 85.94522694 56.70015889 71 40 C70.46375 39.32195313 69.9275 38.64390625 69.375 37.9453125 C52.92380504 17.46357477 25.42491302 5.09487782 0 1 C0 0.67 0 0.34 0 0 Z " fill="#26262D" transform="translate(183,1)"/>
<path d="M0 0 C0.7835083 -0.01385742 1.5670166 -0.02771484 2.37426758 -0.04199219 C8.15703987 0.00415826 12.95187826 1.2555464 18.3125 3.375 C19.20839844 3.72820312 20.10429687 4.08140625 21.02734375 4.4453125 C31.0638042 9.20778055 40.1633062 16.81024604 44.3125 27.375 C44.64368322 30.27018236 44.31443627 31.54600349 43.3125 34.375 C39.59442016 36.85371989 36.72038407 36.6706669 32.41625977 36.66552734 C31.6127005 36.67224457 30.80914124 36.67896179 29.98123169 36.68588257 C27.32206051 36.70489736 24.6631412 36.70878838 22.00390625 36.7109375 C20.15689489 36.71736257 18.30988456 36.72409071 16.46287537 36.73110962 C12.59005371 36.74309078 8.71732131 36.74678954 4.84448242 36.74560547 C-0.12019487 36.74540213 -5.08430066 36.77271566 -10.04884243 36.80714989 C-13.86382176 36.82937672 -17.67866257 36.83344432 -21.49370003 36.83238602 C-23.32415806 36.8347479 -25.15461958 36.84360438 -26.98501396 36.85905075 C-29.54437284 36.87862764 -32.10248669 36.87290619 -34.66186523 36.86083984 C-35.41888229 36.87207886 -36.17589935 36.88331787 -36.95585632 36.89489746 C-40.42216408 36.85332891 -42.35227666 36.62206073 -45.17738342 34.53994751 C-46.6875 32.375 -46.6875 32.375 -46.875 29.25 C-44.77349417 19.5331364 -35.7117023 11.36268047 -27.7578125 6.09765625 C-19.094757 1.33477304 -9.73753348 0.10249036 0 0 Z " fill="#28282F" transform="translate(140.6875,110.625)"/>
<path d="M0 0 C4.59473918 2.58180582 7.73420463 5.60015201 10.6875 9.9375 C11.615625 11.29875 11.615625 11.29875 12.5625 12.6875 C14.78670739 19.11298801 14.58540231 25.51715047 12 31.8125 C8.93808277 37.83964234 4.44551874 41.50719096 -1.3125 44.9375 C-7.60369105 46.97169668 -15.5461484 47.13789004 -21.625 44.4375 C-27.87043318 40.74228537 -32.71775587 34.94365559 -34.87109375 27.99609375 C-36.4037338 20.84829459 -35.39845716 15.64748284 -31.86328125 9.234375 C-24.61506346 -1.50102062 -11.86212579 -5.41298812 0 0 Z " fill="#28282F" transform="translate(150.3125,52.0625)"/>
<path d="M0 0 C3.64221255 2.12462399 5.45626178 4.12723063 7 8 C7.85763792 15.62898851 7.79312913 21.8374054 3 28 C-1.23331432 30.82220955 -5.02868595 30.78619823 -10 30 C-13.40121449 27.44908913 -15.42140366 24.91217355 -17 21 C-18.31722384 9.14498547 -18.31722384 9.14498547 -15.1875 4.3125 C-10.52877845 -0.6124342 -6.46969491 -0.84746802 0 0 Z " fill="#2C2C33" transform="translate(127,175)"/>
<path d="M0 0 C15 0 15 0 20 4 C20.62890625 6.18359375 20.62890625 6.18359375 20.5625 8.4375 C20.56443359 9.54931641 20.56443359 9.54931641 20.56640625 10.68359375 C20 13 20 13 16 18 C17.98 21.96 19.96 25.92 22 30 C20.35 30 18.7 30 17 30 C16.64808594 29.21753906 16.29617187 28.43507812 15.93359375 27.62890625 C13.49330654 21.94188753 13.49330654 21.94188753 9.04296875 18.046875 C6.92854386 17.72992304 6.92854386 17.72992304 4 18 C4 21.96 4 25.92 4 30 C2.68 30 1.36 30 0 30 C0 20.1 0 10.2 0 0 Z " fill="#F1F1F2" transform="translate(82,175)"/>
<path d="M0 0 C3.8053125 -0.12375 3.8053125 -0.12375 7.6875 -0.25 C8.87218872 -0.30462402 8.87218872 -0.30462402 10.08081055 -0.36035156 C13.90260839 -0.42027101 15.63709783 -0.23202728 18.95703125 1.890625 C21.58196054 4.60087704 21.94536198 5.51736417 22.375 9.3125 C22 13 22 13 20.25 15.9375 C15.20635452 19.13827502 10.89942252 18.32414409 5 18 C5 21.96 5 25.92 5 30 C3.35 30 1.7 30 0 30 C0 20.1 0 10.2 0 0 Z " fill="#EEEEEE" transform="translate(52,175)"/>
<path d="M0 0 C3.64221255 2.12462399 5.45626178 4.12723063 7 8 C7.85763792 15.62898851 7.79312913 21.8374054 3 28 C-1.23331432 30.82220955 -5.02868595 30.78619823 -10 30 C-13.40121449 27.44908913 -15.42140366 24.91217355 -17 21 C-18.31722384 9.14498547 -18.31722384 9.14498547 -15.1875 4.3125 C-10.52877845 -0.6124342 -6.46969491 -0.84746802 0 0 Z M-12.0859375 7.0234375 C-13.88362472 10.91074406 -13.64050325 14.84009992 -13 19 C-11.49000834 22.82037202 -11.49000834 22.82037202 -9 26 C-3.37415668 26.62935519 -3.37415668 26.62935519 1.5 24.25 C3.82761308 19.20683833 3.84603069 14.45138034 3 9 C1.6813454 5.96428877 0.71154804 5.12208107 -2 3 C-6.70347821 1.82413045 -9.20445277 3.10090022 -12.0859375 7.0234375 Z " fill="#F0F0F0" transform="translate(127,175)"/>
<path d="M0 0 C6.27 0 12.54 0 19 0 C19 1.32 19 2.64 19 4 C14.05 4 9.1 4 4 4 C4 6.97 4 9.94 4 13 C8.29 13 12.58 13 17 13 C17 13.99 17 14.98 17 16 C12.71 16 8.42 16 4 16 C4 19.3 4 22.6 4 26 C8.95 26 13.9 26 19 26 C19 27.32 19 28.64 19 30 C12.73 30 6.46 30 0 30 C0 20.1 0 10.2 0 0 Z " fill="#F0F0F0" transform="translate(210,175)"/>
<path d="M0 0 C6.27 0 12.54 0 19 0 C18.67 1.32 18.34 2.64 18 4 C13.38 4 8.76 4 4 4 C4 6.97 4 9.94 4 13 C8.29 13 12.58 13 17 13 C17 14.32 17 15.64 17 17 C12.71 17 8.42 17 4 17 C4 21.29 4 25.58 4 30 C2.68 30 1.36 30 0 30 C0 20.1 0 10.2 0 0 Z " fill="#EEEEEF" transform="translate(143,175)"/>
<path d="M0 0 C1.32 0 2.64 0 4 0 C4 8.58 4 17.16 4 26 C8.62 26 13.24 26 18 26 C18 27.32 18 28.64 18 30 C12.06 30 6.12 30 0 30 C0 20.1 0 10.2 0 0 Z " fill="#F4F4F4" transform="translate(184,175)"/>
<path d="M0 0 C9.19925512 -0.48417132 9.19925512 -0.48417132 12.6875 1.625 C14 4 14 4 13.9375 7.125 C13 10 13 10 10 12 C6.64683663 12.26402861 3.36941342 12.08751723 0 12 C0 8.04 0 4.08 0 0 Z " fill="#3E3E44" transform="translate(56,178)"/>
<path d="M0 0 C1.65 0 3.3 0 5 0 C5 9.9 5 19.8 5 30 C3.35 30 1.7 30 0 30 C0 20.1 0 10.2 0 0 Z " fill="#DDDDDE" transform="translate(169,175)"/>
<path d="M0 0 C1.60875 -0.04125 3.2175 -0.0825 4.875 -0.125 C5.77992187 -0.14820313 6.68484375 -0.17140625 7.6171875 -0.1953125 C10 0 10 0 12 2 C11.75 5.5625 11.75 5.5625 11 9 C7.57067929 10.71466036 3.78283935 10.05404056 0 10 C0 6.7 0 3.4 0 0 Z " fill="#27272E" transform="translate(86,179)"/>
</svg>
