<?xml version="1.0" encoding="UTF-8"?>
<svg version="1.1" xmlns="http://www.w3.org/2000/svg" width="221" height="204">
<path d="M0 0 C7.64000925 5.62036934 14.30610595 13.69131641 16.0625 23.25390625 C17.32365938 35.72537121 15.07938919 45.39945214 7.2734375 55.33984375 C6.28144719 56.34778979 5.28259323 57.34908409 4.2734375 58.33984375 C5.34722656 58.98050781 6.42101562 59.62117188 7.52734375 60.28125 C23.11060064 69.70143029 33.77580068 80.30373698 39.2734375 98.33984375 C40.11752028 102.81604032 40.37114937 106.46001218 38.0234375 110.48046875 C35.57865806 113.48754746 33.99975409 115.09773822 30.2734375 116.33984375 C28.86790172 116.43618452 27.4583102 116.47896271 26.04949951 116.48701477 C25.18883377 116.49417007 24.32816803 116.50132538 23.44142151 116.50869751 C22.50007858 116.51138641 21.55873566 116.51407532 20.58886719 116.5168457 C19.59505539 116.5234169 18.60124359 116.5299881 17.57731628 116.53675842 C14.28331427 116.5564941 10.98935786 116.56815468 7.6953125 116.578125 C6.57044685 116.58220053 5.44558121 116.58627605 4.28662872 116.59047508 C-1.667148 116.61133699 -7.62090166 116.6256382 -13.57470703 116.63500977 C-19.72279538 116.64607423 -25.8705218 116.68047461 -32.01848221 116.72018147 C-36.74715852 116.74633216 -41.4757484 116.75470025 -46.20449066 116.75829124 C-48.47067458 116.76316119 -50.73685454 116.77478671 -53.00296783 116.79332924 C-56.17707464 116.81768694 -59.35024233 116.81676145 -62.52441406 116.80981445 C-63.45766006 116.82262451 -64.39090607 116.83543457 -65.35243225 116.84863281 C-71.32338405 116.80108257 -74.83028357 115.81464603 -79.7265625 112.33984375 C-82.73987873 108.12453989 -82.35982694 103.29930419 -81.7265625 98.33984375 C-77.8412901 83.73844795 -68.53091073 71.35417144 -55.64453125 63.44921875 C-53.03177631 62.01371283 -50.4087504 60.64014397 -47.7265625 59.33984375 C-48.3040625 58.47359375 -48.8815625 57.60734375 -49.4765625 56.71484375 C-49.84136719 56.16054687 -50.20617187 55.60625 -50.58203125 55.03515625 C-51.60438442 53.52081743 -52.69278055 52.05155301 -53.7890625 50.58984375 C-59.10663142 41.67005073 -60.31732466 31.5077423 -58.0703125 21.3828125 C-54.76229828 11.18785489 -48.33285777 3.2193662 -38.8515625 -1.78515625 C-26.06072502 -7.81274942 -12.17598819 -7.41374639 0 0 Z M-41.7265625 17.33984375 C-45.2950481 22.45467311 -45.98474185 28.2101663 -45.7265625 34.33984375 C-44.14095315 41.56434199 -40.56313877 46.85974256 -34.7265625 51.33984375 C-28.48994758 55.206545 -21.91717198 55.11503957 -14.7265625 54.33984375 C-8.00121943 52.57818057 -3.70249522 47.84167498 0.2734375 42.33984375 C3.0311088 37.54921339 3.84978161 32.45002505 2.83984375 27 C0.45413387 19.11502666 -3.41868825 13.3666316 -10.7265625 9.33984375 C-22.22826065 4.22797791 -33.4831204 8.44678257 -41.7265625 17.33984375 Z M-56.8515625 80.96484375 C-57.83063827 82.07183897 -58.79193992 83.19506935 -59.7265625 84.33984375 C-60.4690625 85.16484375 -61.2115625 85.98984375 -61.9765625 86.83984375 C-64.69246066 90.71969827 -66.81615364 94.3240432 -66.6015625 99.15234375 C-65.83010423 101.67997564 -65.83010423 101.67997564 -62.7265625 103.33984375 C-60.06027446 103.54445339 -57.49756513 103.63355605 -54.83032227 103.63037109 C-53.62498337 103.64044693 -53.62498337 103.64044693 -52.39529419 103.65072632 C-49.73612301 103.66974111 -47.0772037 103.67363213 -44.41796875 103.67578125 C-42.57095739 103.68220632 -40.72394706 103.68893446 -38.87693787 103.69595337 C-35.00411621 103.70793453 -31.13138381 103.71163329 -27.25854492 103.71044922 C-22.29386763 103.71024588 -17.32976184 103.73755941 -12.36522007 103.77199364 C-8.55024074 103.79422047 -4.73539993 103.79828807 -0.92036247 103.79722977 C0.91009556 103.79959165 2.74055708 103.80844813 4.57095146 103.8238945 C7.13031034 103.84347139 9.68842419 103.83774994 12.24780273 103.82568359 C13.00481979 103.83692261 13.76183685 103.84816162 14.54179382 103.85974121 C18.04183818 103.81776809 19.94274067 103.58737388 22.78114319 101.46279907 C24.5259476 99.437247 24.5259476 99.437247 24.17578125 96.88671875 C20.33184683 86.03717224 12.38481019 77.6215127 2.1484375 72.46484375 C-16.95567745 64.55497381 -41.42509281 65.96415772 -56.8515625 80.96484375 Z " fill="#F5F6F8" transform="translate(131.7265625,21.66015625)"/>
<path d="M0 0 C15 0 15 0 20 3 C21.74327413 5.93187013 22.0143242 7.64905716 21.875 11.0625 C20.87420514 14.42231133 19.51936383 15.64758196 17 18 C17.433125 18.77085937 17.86625 19.54171875 18.3125 20.3359375 C18.869375 21.33882812 19.42625 22.34171875 20 23.375 C20.556875 24.37273437 21.11375 25.37046875 21.6875 26.3984375 C23 29 23 29 23 31 C20.70703125 31.3046875 20.70703125 31.3046875 18 31 C16.19921875 28.8828125 16.19921875 28.8828125 14.6875 26.125 C14.17574219 25.22007812 13.66398437 24.31515625 13.13671875 23.3828125 C12 21 12 21 12 19 C9.69 19 7.38 19 5 19 C5 22.96 5 26.92 5 31 C3.35 31 1.7 31 0 31 C0 20.77 0 10.54 0 0 Z M5 4 C5 7.3 5 10.6 5 14 C6.423125 14.061875 7.84625 14.12375 9.3125 14.1875 C10.11300781 14.22230469 10.91351563 14.25710937 11.73828125 14.29296875 C14.06787042 14.1803446 14.06787042 14.1803446 15.796875 12.6484375 C17.26014959 10.99495625 17.26014959 10.99495625 16.9375 8.4375 C16.21363295 5.94855534 16.21363295 5.94855534 14.375 4.6875 C11.20198632 3.76899604 8.28355254 3.87370952 5 4 Z " fill="#FDFDFD" transform="translate(52,153)"/>
<path d="M0 0 C4.15750099 2.33859431 5.55679035 4.55062876 7 9 C7.6338844 15.57757966 8.1785998 22.52459336 4 28 C0.58862035 30.9240397 -2.513518 31.55183877 -7.0078125 31.33984375 C-10.52520652 30.73981771 -12.40918812 29.41005757 -15 27 C-18.08934149 21.6257116 -18.97004021 15.99295622 -17.49609375 9.92578125 C-16.41205917 6.57456577 -15.19143818 4.23204628 -12.9375 1.5 C-8.6244367 -0.7024153 -4.74679264 -0.77291525 0 0 Z M-12 8 C-13.78367035 12.31053667 -13.45655486 17.3259655 -12.25 21.75 C-10.76587501 24.42142499 -9.74323791 25.62838105 -7 27 C-3.63176476 26.93126051 -1.76442435 26.7662315 0.65234375 24.34375 C3.33037014 19.6863128 2.70201798 14.18312344 2 9 C-0.31639681 5.4923134 -1.48950558 4.33157194 -5.5625 3.4375 C-8.78994334 4.18229462 -9.98229919 5.40581324 -12 8 Z " fill="#FDFDFD" transform="translate(98,153)"/>
<path d="M0 0 C6.6 0 13.2 0 20 0 C20 1.32 20 2.64 20 4 C15.05 4 10.1 4 5 4 C5 6.97 5 9.94 5 13 C9.29 13 13.58 13 18 13 C18 14.32 18 15.64 18 17 C13.71 17 9.42 17 5 17 C5 19.97 5 22.94 5 26 C9.95 26 14.9 26 20 26 C20 27.65 20 29.3 20 31 C13.4 31 6.8 31 0 31 C0 20.77 0 10.54 0 0 Z " fill="#FDFDFD" transform="translate(180,153)"/>
<path d="M0 0 C15 0 15 0 20 3 C22.4915904 6.7373856 22.45793285 8.57331583 22 13 C20.20437595 15.75329021 18.94745078 17.52627461 16 19 C12.32984725 19.1377685 8.67388652 19.04271961 5 19 C5 22.96 5 26.92 5 31 C3.35 31 1.7 31 0 31 C0 20.77 0 10.54 0 0 Z M5 4 C5 7.63 5 11.26 5 15 C6.8871875 15.0309375 6.8871875 15.0309375 8.8125 15.0625 C9.52019531 15.07410156 10.22789063 15.08570313 10.95703125 15.09765625 C13.20305461 15.08263217 13.20305461 15.08263217 16 14 C16.33 11.69 16.66 9.38 17 7 C15.09598862 5.09598862 13.66574314 4.06479561 10.953125 3.80078125 C8.96766727 3.8113422 6.9830086 3.90084957 5 4 Z " fill="#FDFDFD" transform="translate(23,153)"/>
<path d="M0 0 C6.6 0 13.2 0 20 0 C20 1.32 20 2.64 20 4 C15.05 4 10.1 4 5 4 C5 6.97 5 9.94 5 13 C9.29 13 13.58 13 18 13 C18 14.65 18 16.3 18 18 C13.71 18 9.42 18 5 18 C5 22.29 5 26.58 5 31 C3.35 31 1.7 31 0 31 C0 20.77 0 10.54 0 0 Z " fill="#FEFEFE" transform="translate(113,153)"/>
<path d="M0 0 C1.65 0 3.3 0 5 0 C5 8.58 5 17.16 5 26 C9.62 26 14.24 26 19 26 C19 27.65 19 29.3 19 31 C12.73 31 6.46 31 0 31 C0 20.77 0 10.54 0 0 Z " fill="#FEFEFE" transform="translate(154,153)"/>
<path d="M0 0 C1.65 0 3.3 0 5 0 C5 10.23 5 20.46 5 31 C3.35 31 1.7 31 0 31 C0 20.77 0 10.54 0 0 Z " fill="#FEFEFE" transform="translate(140,153)"/>
</svg>
