<?xml version="1.0" encoding="UTF-8"?>
<svg version="1.1" xmlns="http://www.w3.org/2000/svg" width="429" height="375">
<path d="M0 0 C9.90398672 8.38530001 9.90398672 8.38530001 11.32714844 12.65478516 C11.98714844 12.65478516 12.64714844 12.65478516 13.32714844 12.65478516 C15.07418178 14.91530465 16.71505265 17.1761253 18.32714844 19.52978516 C21.55664014 24.30981622 21.55664014 24.30981622 25.32714844 28.65478516 C25.95621094 28.12369141 26.58527344 27.59259766 27.23339844 27.04541016 C39.15196911 17.20899942 49.61600599 13.37389738 65.32714844 14.65478516 C75.55766155 16.83121279 84.36752154 22.98135038 91.32714844 30.65478516 C92.32488281 31.68152344 92.32488281 31.68152344 93.34277344 32.72900391 C109.50314929 49.79633963 120.83449549 74.96857943 120.54199219 98.69384766 C119.42470198 114.09213817 112.17916017 125.2579999 101.32714844 135.65478516 C88.79958508 146.46597369 71.12806835 151.3989035 54.74511719 150.93994141 C44.47006246 150.08270827 35.17398694 148.07022748 25.78027344 143.74072266 C22.65382558 142.30366936 22.65382558 142.30366936 19.32714844 141.65478516 C17.20118333 142.84005665 17.20118333 142.84005665 15.07714844 144.65478516 C-4.00493665 158.68573007 -27.92241997 161.21379877 -50.93457031 158.18603516 C-65.8449625 155.32976847 -80.21555513 148.6442429 -91.67285156 138.65478516 C-91.67285156 137.99478516 -91.67285156 137.33478516 -91.67285156 136.65478516 C-92.25292969 136.41501953 -92.83300781 136.17525391 -93.43066406 135.92822266 C-102.92995337 130.53315591 -108.57703033 117.03385293 -111.54785156 107.02978516 C-117.70196132 78.9699752 -105.91238914 50.3046271 -91.67285156 26.65478516 C-88.65511263 22.0465412 -85.26143579 17.83463693 -81.67285156 13.65478516 C-80.56490234 12.30513672 -80.56490234 12.30513672 -79.43457031 10.92822266 C-58.65791046 -13.50188182 -26.25317458 -21.11135317 0 0 Z M-49.67285156 9.65478516 C-50.38699219 10.05568359 -51.10113281 10.45658203 -51.83691406 10.86962891 C-73.54646793 24.10248418 -87.1917113 50.69886564 -93.21923828 74.69433594 C-96.31094097 88.05621571 -96.77042262 101.37018858 -89.24707031 113.50244141 C-78.22869558 128.56726642 -63.94103962 137.53569647 -45.59472656 141.05322266 C-43.61632032 141.35078782 -41.66956219 141.52999074 -39.67285156 141.65478516 C-38.88910156 141.70763672 -38.10535156 141.76048828 -37.29785156 141.81494141 C-18.9258232 142.44374595 -2.18442329 136.50585464 11.73730469 124.59228516 C20.39625156 116.49710945 26.71495765 105.67430771 27.45166016 93.61694336 C27.56402844 88.24817218 26.91801401 83.31146831 25.70214844 78.09228516 C25.43374146 76.92947021 25.43374146 76.92947021 25.15991211 75.74316406 C19.18675481 51.00910317 5.18349424 23.83963248 -16.98535156 10.09228516 C-27.49231514 4.08066084 -39.16852346 3.42638243 -49.67285156 9.65478516 Z M36.65136719 42.15478516 C35.50880264 43.28769423 34.41123006 44.46579241 33.32714844 45.65478516 C33.71902344 46.83041016 34.11089844 48.00603516 34.51464844 49.21728516 C34.78535156 50.03583984 35.05605469 50.85439453 35.33496094 51.69775391 C36.0645578 53.87218234 36.8119733 56.04065246 37.56933594 58.20556641 C43.95026794 76.53947848 47.17129221 97.18539209 39.32714844 115.65478516 C37.83225103 118.45862932 36.26513546 121.12373525 34.49902344 123.76416016 C33.15153571 125.56738124 33.15153571 125.56738124 33.32714844 127.65478516 C35.22168065 128.30442539 37.11783493 128.94933631 39.01464844 129.59228516 C40.07039062 129.95193359 41.12613281 130.31158203 42.21386719 130.68212891 C55.38576151 134.79731295 69.15748817 133.14130507 81.57714844 127.40478516 C91.52162532 122.03413017 96.88625526 114.84937998 101.70214844 104.77978516 C105.10382291 87.7714128 97.98874996 69.81240811 88.82714844 55.63525391 C81.83899696 45.3860541 73.90209274 35.35068811 61.38964844 32.15478516 C51.83415933 30.63525784 43.56764647 35.96398972 36.65136719 42.15478516 Z " fill="#F5F6F8" transform="translate(220.6728515625,15.34521484375)"/>
<path d="M0 0 C2.95757047 3.31219523 4.62890625 7.32344389 4.62890625 11.82421875 C0.99890625 11.82421875 -2.63109375 11.82421875 -6.37109375 11.82421875 C-6.70109375 10.85484375 -7.03109375 9.88546875 -7.37109375 8.88671875 C-8.99320388 5.79517073 -8.99320388 5.79517073 -11.17578125 5.02734375 C-13.40197787 4.60730665 -15.12909971 4.47896041 -17.37109375 4.82421875 C-20.63230343 7.32216659 -22.07252622 8.92851616 -23.37109375 12.82421875 C-23.49226611 15.09267804 -23.54649758 17.36505769 -23.55859375 19.63671875 C-23.57986328 21.44076172 -23.57986328 21.44076172 -23.6015625 23.28125 C-23.36859613 26.86261435 -22.8226609 29.54741369 -21.37109375 32.82421875 C-15.99831813 36.15533964 -12.47838202 36.00281824 -6.37109375 34.82421875 C-6.37109375 32.18421875 -6.37109375 29.54421875 -6.37109375 26.82421875 C-9.34109375 26.82421875 -12.31109375 26.82421875 -15.37109375 26.82421875 C-15.37109375 24.18421875 -15.37109375 21.54421875 -15.37109375 18.82421875 C-8.77109375 18.82421875 -2.17109375 18.82421875 4.62890625 18.82421875 C4.87640625 23.61953125 4.87640625 23.61953125 5.12890625 28.51171875 C5.20173828 29.51033936 5.27457031 30.50895996 5.34960938 31.5378418 C5.41506348 34.1573257 5.34255046 36.29564755 4.62890625 38.82421875 C-0.36802557 43.9682048 -6.73876332 44.98178477 -13.62109375 45.13671875 C-20.88911444 45.07146155 -25.47707119 43.64002449 -30.68359375 38.57421875 C-36.17486337 29.62548307 -36.7260114 20.33403363 -34.8671875 10.03125 C-33.10906922 4.03355506 -30.00110413 0.71243133 -24.93359375 -2.92578125 C-16.61925797 -6.9815548 -7.04427685 -5.87734614 0 0 Z " fill="#FDFDFD" transform="translate(350.37109375,300.17578125)"/>
<path d="M0 0 C6.67627853 6.93809337 6.45254931 16.43878649 6.28125 25.5390625 C5.86176482 32.51300369 4.75891476 38.21355778 0.09375 43.65625 C-5.06685644 47.43230349 -10.75110647 47.45430885 -16.90625 46.65625 C-21.90126334 44.47660782 -24.02251065 41.54893858 -26.16015625 36.71484375 C-29.77025845 26.75398585 -29.07345235 13.44311218 -24.59375 3.84375 C-21.91673147 0.3735408 -19.4239099 -1.84962817 -15.21875 -3.21875 C-9.83441888 -3.42193231 -4.53171171 -3.19448531 0 0 Z M-13.90625 5.65625 C-17.88306521 10.53784328 -17.3516967 15.67610749 -17.28125 21.65625 C-17.29285156 22.64109375 -17.30445313 23.6259375 -17.31640625 24.640625 C-17.35140004 31.68320872 -17.35140004 31.68320872 -13.90625 37.65625 C-11.31502257 38.54283466 -11.31502257 38.54283466 -8.90625 38.65625 C-6.38983869 36.39346908 -5.03350358 34.53587752 -4.54394531 31.15185547 C-4.44004662 28.12387715 -4.45971704 25.12260611 -4.53125 22.09375 C-4.53253906 21.05283203 -4.53382813 20.01191406 -4.53515625 18.93945312 C-4.41277236 12.45873704 -4.41277236 12.45873704 -6.90625 6.65625 C-10.46831661 5.83754815 -10.46831661 5.83754815 -13.90625 5.65625 Z " fill="#FDFDFD" transform="translate(276.90625,298.34375)"/>
<path d="M0 0 C5.65131028 6.33631759 5.55498487 13.07973036 5.5 21.1875 C5.5299707 22.74404297 5.5299707 22.74404297 5.56054688 24.33203125 C5.55628361 31.09356534 4.62157812 36.48334261 1.0625 42.3125 C-3.39048955 46.63055047 -8.28213919 46.65244389 -14.20703125 46.59765625 C-18.91597157 46.10587851 -21.50706714 43.79401974 -24.6875 40.5 C-28.0553878 34.60619635 -28.27644105 28.55833836 -28.25 21.9375 C-28.26611328 21.13828125 -28.28222656 20.3390625 -28.29882812 19.515625 C-28.30456761 12.42162039 -27.05890096 6.08210681 -22.6875 0.375 C-15.48961821 -5.02341134 -7.56549454 -4.34613516 0 0 Z M-15.57446289 6.97460938 C-18.19393191 11.46754065 -17.40651598 16.74129224 -17.375 21.8125 C-17.39498047 22.95332031 -17.41496094 24.09414063 -17.43554688 25.26953125 C-17.43490234 26.36652344 -17.43425781 27.46351563 -17.43359375 28.59375 C-17.43544678 29.59470703 -17.4372998 30.59566406 -17.43920898 31.62695312 C-16.80512546 35.02107418 -15.64836235 36.23490651 -12.9375 38.3125 C-9.54595705 38.15099795 -8.35453243 37.72953243 -5.9375 35.3125 C-4.4322876 30.79386198 -4.7145507 26.08520361 -4.6875 21.375 C-4.666875 20.48103516 -4.64625 19.58707031 -4.625 18.66601562 C-4.59555481 13.70818147 -4.71013135 10.34671082 -7.9375 6.3125 C-8.98612094 5.06093946 -8.98612094 5.06093946 -11.3125 5 C-14.01442444 5.0445532 -14.01442444 5.0445532 -15.57446289 6.97460938 Z " fill="#FDFDFD" transform="translate(159.9375,298.6875)"/>
<path d="M0 0 C4.44263856 3.83682421 7.19631031 8.42283589 7.75 14.375 C8.23734207 23.28864372 7.8393863 33.26788896 1.75 40.375 C-4.90277553 45.80258667 -9.69130663 47.53959026 -18.25 47.375 C-18.25 44.405 -18.25 41.435 -18.25 38.375 C-16.8475 38.1275 -15.445 37.88 -14 37.625 C-10.01412792 36.74622505 -7.7117304 35.80001621 -5.25 32.375 C-5.25 31.715 -5.25 31.055 -5.25 30.375 C-6.24 30.87 -6.24 30.87 -7.25 31.375 C-11.89304187 31.94145111 -15.37513117 31.79623314 -19.625 29.75 C-23.42665062 26.31041135 -24.98588041 23.71946899 -25.56640625 18.56640625 C-25.82308021 11.93428228 -25.40469246 7.62303258 -21.25 2.375 C-14.33181526 -3.10189626 -7.98368584 -3.99184292 0 0 Z M-13.5625 8.4375 C-16.00808694 12.69463282 -15.79985883 16.05337381 -14.6875 20.75 C-13.20538989 22.72464323 -13.20538989 22.72464323 -9.8125 23.3125 C-6.38318503 23.72795839 -6.38318503 23.72795839 -4.55078125 22.15234375 C-2.17068721 18.90026331 -2.75767815 15.22590107 -3.25 11.375 C-4.22337194 8.30000531 -4.22337194 8.30000531 -6.25 6.375 C-9.80485332 5.46349915 -10.82810563 5.99871583 -13.5625 8.4375 Z " fill="#FDFDFD" transform="translate(231.25,297.625)"/>
<path d="M0 0 C8 0 8 0 9.77856445 1.3894043 C10.136521 2.02789307 10.49447754 2.66638184 10.86328125 3.32421875 C11.27513672 4.02353516 11.68699219 4.72285156 12.11132812 5.44335938 C12.7059082 6.55420898 12.7059082 6.55420898 13.3125 7.6875 C13.72822266 8.40873047 14.14394531 9.12996094 14.57226562 9.87304688 C15.3511196 11.22892144 16.1180514 12.59177246 16.8684082 13.96362305 C18.18954989 16.34110802 19.60062355 18.66770591 21 21 C21.33 14.07 21.66 7.14 22 0 C24.31 0 26.62 0 29 0 C29 11.88 29 23.76 29 36 C22 36 22 36 20.24316406 34.51879883 C19.83807617 33.83841553 19.43298828 33.15803223 19.015625 32.45703125 C18.55542969 31.71259766 18.09523438 30.96816406 17.62109375 30.20117188 C16.94240234 29.0187793 16.94240234 29.0187793 16.25 27.8125 C15.78207031 27.04357422 15.31414062 26.27464844 14.83203125 25.48242188 C13.53053844 23.33477439 12.26364674 21.17005686 11 19 C10.01 17.35 9.02 15.7 8 14 C7.67 21.26 7.34 28.52 7 36 C4.69 36 2.38 36 0 36 C0 24.12 0 12.24 0 0 Z " fill="#FDFDFD" transform="translate(309,211)"/>
<path d="M0 0 C4.516875 -0.1546875 4.516875 -0.1546875 9.125 -0.3125 C10.06230957 -0.35802002 10.99961914 -0.40354004 11.96533203 -0.45043945 C16.26555928 -0.52142297 19.14069839 -0.3837988 22.5546875 2.39453125 C25.91902693 5.97921879 26.33799037 8.01365687 26.29296875 12.95703125 C25.83628915 16.14161032 24.29083221 17.84392262 22 20 C21.34 20 20.68 20 20 20 C20.5053125 20.90363281 21.010625 21.80726563 21.53125 22.73828125 C22.1878303 23.92950551 22.84406218 25.12092185 23.5 26.3125 C23.83386719 26.90740234 24.16773438 27.50230469 24.51171875 28.11523438 C26.06825114 30.95828844 27 32.70660988 27 36 C24.36 36 21.72 36 19 36 C18.63648438 35.14535156 18.27296875 34.29070312 17.8984375 33.41015625 C17.39570313 32.30542969 16.89296875 31.20070312 16.375 30.0625 C15.88773438 28.96035156 15.40046875 27.85820312 14.8984375 26.72265625 C14.27195313 25.82417969 13.64546875 24.92570312 13 24 C11.02 23.67 9.04 23.34 7 23 C7 27.29 7 31.58 7 36 C4.69 36 2.38 36 0 36 C0 24.12 0 12.24 0 0 Z M7 6 C7 9.63 7 13.26 7 17 C12.90883883 17.44088911 12.90883883 17.44088911 18 15 C19.08223366 12.08995097 19.08223366 12.08995097 19 9 C17.85796602 7.22208751 17.85796602 7.22208751 16 6 C13.71669899 5.63853543 13.71669899 5.63853543 11.3125 5.8125 C9.889375 5.874375 8.46625 5.93625 7 6 Z " fill="#FDFDFD" transform="translate(152,211)"/>
<path d="M0 0 C4.00662352 2.77381629 5.72285805 4.66857415 7.25 9.25 C7.3984944 11.86864161 7.4810027 14.4432477 7.5 17.0625 C7.520625 17.76181641 7.54125 18.46113281 7.5625 19.18164062 C7.59841516 23.98080409 6.78400438 27.1835263 4.25 31.25 C0.62365898 34.60436544 -1.98070867 36.07654007 -6.9375 36.5625 C-12.26896558 36.12549462 -16.49284107 34.76638446 -20.14453125 30.6953125 C-23.90507771 24.50303458 -23.53118354 17.23182785 -22.75 10.25 C-21.74347167 6.16097868 -20.32709814 3.44736301 -16.94921875 0.8828125 C-11.27141238 -2.31439886 -5.90892842 -3.12169803 0 0 Z M-13.75 7.25 C-16.58181517 11.69999526 -16.27981148 17.15565888 -15.75 22.25 C-14.54314869 25.62918366 -13.71348637 27.51132711 -10.875 29.6875 C-8.10625147 30.42040402 -6.45968737 30.15322912 -3.75 29.25 C-1.81915435 27.66394821 -0.86709828 26.48419656 0.25 24.25 C0.42522676 21.98354234 0.51728256 19.71027146 0.5625 17.4375 C0.59988281 16.21417969 0.63726562 14.99085938 0.67578125 13.73046875 C0.17900801 9.66968932 -0.87541553 8.09826044 -3.75 5.25 C-7.99139386 3.50994098 -10.25792395 4.41858699 -13.75 7.25 Z " fill="#FDFDFD" transform="translate(208.75,211.75)"/>
<path d="M0 0 C7.92 0 15.84 0 24 0 C24 1.98 24 3.96 24 6 C18.39 6 12.78 6 7 6 C7 8.97 7 11.94 7 15 C11.95 15 16.9 15 22 15 C22 16.65 22 18.3 22 20 C17.05 20 12.1 20 7 20 C7 23.3 7 26.6 7 30 C12.61 30 18.22 30 24 30 C24 31.98 24 33.96 24 36 C16.08 36 8.16 36 0 36 C0 24.12 0 12.24 0 0 Z " fill="#FEFEFE" transform="translate(259,211)"/>
<path d="M0 0 C3.01125 -0.0825 6.0225 -0.165 9.125 -0.25 C10.06230957 -0.28641602 10.99961914 -0.32283203 11.96533203 -0.36035156 C17.47922855 -0.43316553 20.67167183 0.25147903 25 4 C27.68408645 8.02612967 27.80610406 11.26816918 27 16 C25.07643127 19.57339883 22.9117746 21.69607513 19 23 C14.99616868 23.13399703 11.0072645 23.04308887 7 23 C7 27.29 7 31.58 7 36 C4.69 36 2.38 36 0 36 C0 24.12 0 12.24 0 0 Z M7 6 C7 9.63 7 13.26 7 17 C8.588125 17.061875 10.17625 17.12375 11.8125 17.1875 C12.70582031 17.22230469 13.59914062 17.25710937 14.51953125 17.29296875 C17.04046389 17.20628578 17.04046389 17.20628578 18.80078125 15.64453125 C20.50731102 13.30430639 20.42408618 11.8272412 20 9 C18.85047348 7.25595059 18.85047348 7.25595059 17 6 C14.48710325 5.63786432 14.48710325 5.63786432 11.8125 5.8125 C10.224375 5.874375 8.63625 5.93625 7 6 Z " fill="#FDFDFD" transform="translate(116,211)"/>
<path d="M0 0 C2.05078125 0.03255208 4.1015625 0.06510417 6.15234375 0.09765625 C4.53574187 5.09263559 2.91826598 10.08733083 1.30004883 15.08178711 C0.75196865 16.77377036 0.20410969 18.46582529 -0.34350586 20.15795898 C-2.17167043 25.80666913 -4.00637779 31.45320729 -5.84765625 37.09765625 C-6.09469299 37.85649109 -6.34172974 38.61532593 -6.59625244 39.39715576 C-7.28732942 41.51590499 -7.98270486 43.63318727 -8.6796875 45.75 C-9.07518799 46.95519287 -9.47068848 48.16038574 -9.87817383 49.40209961 C-10.84765625 52.09765625 -10.84765625 52.09765625 -11.84765625 53.09765625 C-14.51824476 53.23880786 -17.17197863 53.14012732 -19.84765625 53.09765625 C-17.4183538 43.13780853 -14.02096274 33.4918389 -10.69482422 23.80566406 C-9.71360652 20.94628432 -8.73929568 18.08461357 -7.765625 15.22265625 C-7.14493702 13.40741329 -6.52385783 11.59230403 -5.90234375 9.77734375 C-5.46485306 8.49160965 -5.46485306 8.49160965 -5.01852417 7.17990112 C-2.59219218 0.13700804 -2.59219218 0.13700804 0 0 Z " fill="#FDFDFD" transform="translate(191.84765625,295.90234375)"/>
<path d="M0 0 C9.57 0 19.14 0 29 0 C29 1.98 29 3.96 29 6 C25.37 6 21.74 6 18 6 C18 15.9 18 25.8 18 36 C15.69 36 13.38 36 11 36 C11 26.1 11 16.2 11 6 C7.37 6 3.74 6 0 6 C0 4.02 0 2.04 0 0 Z " fill="#FEFEFE" transform="translate(222,211)"/>
<path d="M0 0 C2.64 0 5.28 0 8 0 C8 11.88 8 23.76 8 36 C5.36 36 2.72 36 0 36 C0 24.12 0 12.24 0 0 Z " fill="#FEFEFE" transform="translate(291,211)"/>
</svg>
