<?xml version="1.0" encoding="UTF-8"?>
<svg version="1.1" xmlns="http://www.w3.org/2000/svg" width="1788" height="1563">
<path d="M0 0 C590.04 0 1180.08 0 1788 0 C1788 515.79 1788 1031.58 1788 1563 C1197.96 1563 607.92 1563 0 1563 C0 1047.21 0 531.42 0 0 Z " fill="#26262D" transform="translate(0,0)"/>
<path d="M0 0 C2.48588566 2.16680375 5.00233169 4.29630395 7.51977539 6.42626953 C17.79616411 15.14462065 27.39281985 23.46980047 31.890625 36.64794922 C31.890625 37.96794922 31.890625 39.28794922 31.890625 40.64794922 C32.53999023 40.55803711 33.18935547 40.468125 33.85839844 40.37548828 C40.78738736 39.81963224 40.78738736 39.81963224 43.70898438 42.01318359 C45.36273366 44.06058083 46.75838373 46.15807588 48.140625 48.39794922 C49.24607317 50.05421295 50.3515427 51.71046244 51.45703125 53.36669922 C52.29838623 54.66800781 52.29838623 54.66800781 53.15673828 55.99560547 C56.01916362 60.37428596 59.05942507 64.62628149 62.078125 68.89794922 C63.25633198 70.58075681 64.4334391 72.26433508 65.609375 73.94873047 C66.16753906 74.74746582 66.72570312 75.54620117 67.30078125 76.36914062 C68.30257492 77.80506539 69.30279764 79.24208866 70.30078125 80.68066406 C76.37428765 89.4305925 82.88170086 97.62632881 89.890625 105.64794922 C93.65773922 104.34420012 96.07740933 102.82818382 98.953125 100.08544922 C135.40454319 66.75672254 181.92359531 48.26997016 231.11279297 48.27734375 C234.38431393 48.27295768 237.65449643 48.23648927 240.92578125 48.19873047 C252.324576 48.13695205 262.13220379 48.58162753 272.890625 52.64794922 C274.48478651 53.16243568 276.07975726 53.67442616 277.67578125 54.18310547 C299.75083663 61.89422035 320.02118354 73.58422799 337.890625 88.64794922 C338.93212954 89.50361535 339.97380716 90.35907083 341.015625 91.21435547 C347.9394017 96.96250968 354.46141706 103.03819107 360.828125 109.39794922 C361.52558838 110.09460693 362.22305176 110.79126465 362.94165039 111.5090332 C366.8907622 115.5007052 370.66627553 119.59469399 374.31323242 123.86450195 C375.89271456 125.65031174 377.54661249 127.30951381 379.265625 128.96044922 C382.99706047 132.63371086 386.24237157 136.63977295 389.51953125 140.71826172 C391.84584596 143.59262092 394.23841494 146.39943518 396.640625 149.21044922 C437.671154 198.53573023 466.27706547 260.13936745 479.890625 322.64794922 C480.24564983 324.23138215 480.60109362 325.81472123 480.95703125 327.39794922 C493.87030832 385.76673869 489.22678299 443.92862956 457.078125 495.39794922 C449.38516323 507.37944454 440.81032675 518.86349127 431.0859375 529.27685547 C429.22244186 531.2895634 427.42259893 533.33532259 425.62890625 535.40966797 C414.63140481 548.00523468 402.7377175 559.25615873 388.890625 568.64794922 C388.26929688 569.07092285 387.64796875 569.49389648 387.0078125 569.9296875 C369.99366108 581.35105954 351.50492904 590.6596992 332.29833984 597.75537109 C329.94092134 598.62930357 327.59788184 599.53556177 325.25390625 600.44482422 C296.93202217 611.16535427 265.20341661 616.88046878 234.93408203 617.59667969 C233.50759961 617.63246957 232.08142614 617.682071 230.65576172 617.7421875 C213.84253101 618.43361815 197.47422538 616.08171992 180.890625 613.64794922 C179.22404413 613.4181594 177.55739141 613.18888929 175.890625 612.96044922 C147.4719853 608.85682606 120.3355508 599.69260428 94.109375 588.29638672 C80.03098931 581.34578024 80.03098931 581.34578024 64.890625 579.64794922 C58.87198066 582.3365699 53.99273085 586.52707693 49.015625 590.77294922 C34.10050703 603.21629835 16.16897878 612.00530557 -1.109375 620.64794922 C-2.85734375 621.53933594 -2.85734375 621.53933594 -4.640625 622.44873047 C-31.60000945 635.60916682 -62.60443811 643.18140978 -92.109375 647.83544922 C-93.07955566 647.99029785 -94.04973633 648.14514648 -95.04931641 648.3046875 C-115.15479296 651.31445016 -135.143479 652.02144429 -155.45233917 651.96580505 C-157.51158329 651.96037751 -159.57081594 651.95800128 -161.63006592 651.95593262 C-187.48451618 651.91544637 -213.12785789 651.27745582 -238.41650391 645.2824707 C-240.55006767 644.77973886 -242.68898786 644.29974607 -244.82958984 643.82788086 C-255.39330563 641.47214073 -265.61154677 638.42952692 -275.859375 634.96044922 C-277.03293045 634.56602631 -277.03293045 634.56602631 -278.23019409 634.16363525 C-296.89438894 627.87471375 -314.53332489 620.37301397 -331.81396484 610.90087891 C-334.07651201 609.6658872 -336.3510026 608.45589661 -338.62890625 607.24951172 C-355.24491433 598.35666613 -370.46752876 587.44266533 -385.37597656 575.95556641 C-386.9840842 574.74246437 -388.63521944 573.58698122 -390.2890625 572.43701172 C-396.92714511 567.67940577 -396.92714511 567.67940577 -397.51171875 564.37060547 C-397.50269531 563.59587891 -397.49367188 562.82115234 -397.484375 562.02294922 C-397.38442839 559.73174225 -397.38442839 559.73174225 -398.109375 557.64794922 C-400.82256935 555.81394328 -403.63666739 554.65392121 -406.64453125 553.36279297 C-412.97413047 550.23010519 -417.94405762 545.39754689 -423.109375 540.64794922 C-423.90085937 539.93896484 -424.69234375 539.22998047 -425.5078125 538.49951172 C-438.06464243 526.66798604 -446.95055373 511.68353787 -455.109375 496.64794922 C-455.65005615 495.66737549 -455.65005615 495.66737549 -456.20166016 494.66699219 C-464.27274435 479.91053362 -470.19562908 463.865797 -475.35107422 447.88427734 C-475.89003411 446.29481418 -476.47341429 444.72011294 -477.08642578 443.15771484 C-480.02231228 435.63854512 -481.50797588 428.16349557 -482.796875 420.21044922 C-483.00892578 418.97746094 -483.22097656 417.74447266 -483.43945312 416.47412109 C-485.34595061 405.08926387 -486.25980144 393.84319624 -486.3125 382.30419922 C-486.31960495 381.26501343 -486.3267099 380.22582764 -486.33403015 379.15515137 C-486.56713507 335.02610733 -486.56713507 335.02610733 -483.109375 314.64794922 C-483.00238281 314.00927917 -482.89539063 313.37060913 -482.78515625 312.71258545 C-477.75226109 282.87713258 -471.08523254 250.70066888 -458.18359375 223.16357422 C-457.05778489 220.52713456 -456.122179 217.84934325 -455.20141602 215.13549805 C-449.56465862 198.52846307 -442.30597188 182.56281734 -434.29199219 166.97802734 C-432.89661899 164.22876191 -431.53762873 161.46276833 -430.1796875 158.69482422 C-422.97529992 144.04758778 -415.34059395 129.74309056 -407.109375 115.64794922 C-406.58956055 114.75285645 -406.06974609 113.85776367 -405.53417969 112.93554688 C-399.22942321 102.11073458 -392.65410846 91.65152569 -385.109375 81.64794922 C-384.32175781 80.59736328 -383.53414062 79.54677734 -382.72265625 78.46435547 C-373.65478524 66.48154941 -364.10526962 54.86650299 -354.26904297 43.50878906 C-351.53869175 40.34851816 -348.90962497 37.14463572 -346.359375 33.83544922 C-324.62029451 6.41353856 -296.46309875 -16.1613517 -266.109375 -33.35205078 C-265.21750488 -33.86179443 -265.21750488 -33.86179443 -264.30761719 -34.38183594 C-185.78792611 -78.9246124 -90.88172924 -70.82408913 0 0 Z " fill="#F4F5F7" transform="translate(934.109375,76.35205078125)"/>
<path d="M0 0 C1.84887817 0.00628418 1.84887817 0.00628418 3.73510742 0.01269531 C13.27707176 0.13036598 22.11697141 1.08082785 31.375 3.3125 C32.55835938 3.55613281 33.74171875 3.79976563 34.9609375 4.05078125 C55.16031703 8.67341583 72.7520732 19.3084518 89.375 31.3125 C90.01260254 31.77156738 90.65020508 32.23063477 91.30712891 32.70361328 C95.09298388 35.45898631 98.75180616 38.34471192 102.375 41.3125 C102.91656738 41.75255371 103.45813477 42.19260742 104.01611328 42.64599609 C112.71565256 49.76742153 120.78191471 57.51552729 128.75 65.4375 C129.66515381 66.34338867 130.58030762 67.24927734 131.52319336 68.18261719 C137.56593095 74.25334821 143.03322727 80.62275267 148.375 87.3125 C149.23861058 88.33986319 150.10702231 89.36325345 150.984375 90.37890625 C169.2402711 111.66634714 183.83529098 135.84001162 197.375 160.3125 C197.75881836 161.00424316 198.14263672 161.69598633 198.53808594 162.40869141 C203.92749073 172.17058615 208.79878707 182.14568027 213.375 192.3125 C214.03242187 193.7675293 214.03242187 193.7675293 214.703125 195.25195312 C226.13634643 220.74112672 236.02839221 246.95847102 242.81201172 274.08740234 C243.33013595 276.1351839 243.87654087 278.17172267 244.44140625 280.20703125 C245.46132566 283.89873955 246.43193169 287.6006336 247.375 291.3125 C247.56416992 292.04678223 247.75333984 292.78106445 247.94824219 293.53759766 C256.87657352 328.69739521 261.38870637 363.72848885 252.375 399.3125 C252.06433594 400.54871094 251.75367188 401.78492188 251.43359375 403.05859375 C250.53955125 406.20578373 249.50696717 409.24263434 248.375 412.3125 C248.11380371 413.03147461 247.85260742 413.75044922 247.58349609 414.49121094 C237.5146235 441.90122854 221.82884878 465.61547586 201.80615234 486.79345703 C200.42800042 488.25624469 199.06713402 489.73525904 197.70703125 491.21484375 C177.32542387 512.8919696 149.86976412 528.49395086 123.31005859 541.37158203 C121.44728619 542.277351 119.59281568 543.19860756 117.73828125 544.12109375 C91.14414339 557.16720645 60.78546994 564.49710365 31.375 567.3125 C30.09278564 567.4506311 30.09278564 567.4506311 28.78466797 567.59155273 C19.24271833 568.52685931 9.70299853 568.51104973 0.125 568.5 C-0.75806824 568.49972809 -1.64113647 568.49945618 -2.55096436 568.49917603 C-21.46596315 568.4724182 -40.21026731 568.05292624 -58.625 563.3125 C-60.23522713 562.92261614 -61.84594336 562.5347491 -63.45703125 562.1484375 C-76.51320097 558.98940942 -89.17792051 555.39851498 -101.625 550.3125 C-102.43839844 549.98080811 -103.25179687 549.64911621 -104.08984375 549.30737305 C-129.73017144 538.76001469 -152.86489496 525.50954238 -174.625 508.3125 C-175.18687012 507.86922363 -175.74874023 507.42594727 -176.32763672 506.96923828 C-184.70431288 500.27139492 -192.33619555 492.80230278 -199.9375 485.25 C-200.8567627 484.34008301 -201.77602539 483.43016602 -202.72314453 482.49267578 C-208.78211416 476.40524487 -214.2828827 470.03275019 -219.625 463.3125 C-220.52721509 462.22688968 -221.43161946 461.14308803 -222.33984375 460.0625 C-237.82366745 440.90500986 -247.66893465 416.53720787 -251.625 392.3125 C-251.79942627 391.27053467 -251.97385254 390.22856934 -252.15356445 389.1550293 C-253.78367059 378.38757653 -254.06406475 367.74877729 -254.0625 356.875 C-254.06389984 355.93829468 -254.06529968 355.00158936 -254.06674194 354.03649902 C-254.04514809 336.33254278 -252.14631236 319.6566799 -248.625 302.3125 C-248.41681641 301.23081543 -248.20863281 300.14913086 -247.99414062 299.03466797 C-245.59355588 286.57532236 -242.34235756 274.58497393 -238.34814453 262.55029297 C-237.16595931 258.89198449 -236.12012285 255.1958229 -235.0625 251.5 C-222.15383271 206.92604298 -200.48791995 162.77269613 -174.625 124.3125 C-174.04363281 123.44657227 -173.46226562 122.58064453 -172.86328125 121.68847656 C-165.46723821 110.74543495 -157.67002509 100.24168558 -149.16015625 90.14013672 C-147.69656382 88.39769828 -146.25298536 86.64045754 -144.8125 84.87890625 C-133.87106086 71.64486592 -121.71176158 58.81318789 -108.1328125 48.265625 C-105.35569463 46.10276062 -102.72261521 43.80494997 -100.0625 41.5 C-87.10230507 30.71377325 -72.55423745 22.0721434 -57.625 14.3125 C-56.90425293 13.93577148 -56.18350586 13.55904297 -55.44091797 13.17089844 C-45.41280708 7.99728943 -35.70996665 4.49645435 -24.625 2.3125 C-23.81853027 2.13662354 -23.01206055 1.96074707 -22.18115234 1.77954102 C-14.76051645 0.25987155 -7.56187289 -0.03521245 0 0 Z " fill="#26262D" transform="translate(776.625,86.6875)"/>
<path d="M0 0 C1.01191406 0.47566406 2.02382812 0.95132813 3.06640625 1.44140625 C26.61144875 12.70741746 47.70503662 31.9130329 63.70996094 52.36376953 C65.13577398 54.17220992 66.58722347 55.95848885 68.0390625 57.74609375 C83.48609778 76.96191539 96.87264071 97.70494474 108.58447266 119.38330078 C109.92869067 121.86817981 111.29596256 124.33898261 112.66796875 126.80859375 C124.94738481 149.19245662 134.0488221 173.31400103 140.47705078 197.99707031 C140.92898007 199.72798902 141.39841895 201.4543185 141.87109375 203.1796875 C146.38001893 220.79486671 147.2964011 238.71829716 147.375 256.8125 C147.38276459 257.62281677 147.39052917 258.43313354 147.39852905 259.26800537 C147.52348833 275.80574849 146.85049414 292.20559886 138.375 306.8125 C137.83939453 307.7826001 137.30378906 308.7527002 136.75195312 309.75219727 C135.20394321 312.52432792 133.61495103 315.26644092 132 318 C131.58911133 318.7002832 131.17822266 319.40056641 130.75488281 320.12207031 C128.33136876 324.1950082 125.73339901 328.12796354 123 332 C122.56252441 332.62390625 122.12504883 333.2478125 121.67431641 333.890625 C96.50326022 369.44681977 62.62955938 391.080983 21 403 C20.29794434 403.20270508 19.59588867 403.40541016 18.87255859 403.61425781 C-11.67018372 412.28437075 -45.58734855 413.99973988 -77 409 C-77.68288086 408.89236328 -78.36576172 408.78472656 -79.06933594 408.67382812 C-97.21757178 405.61017744 -116.15752091 399.3795813 -133 392 C-134.47432932 391.42494057 -135.95256193 390.85958245 -137.4375 390.3125 C-138.613125 389.879375 -139.78875 389.44625 -141 389 C-141.81022847 381.8236907 -140.59349482 378.69906005 -136.2578125 373.046875 C-110.48301797 338.26428031 -97.99722981 295.05431328 -97 252 C-96.9693042 250.75645752 -96.9693042 250.75645752 -96.93798828 249.48779297 C-95.98531405 204.77509102 -104.04421029 161.6164012 -117 119 C-117.42079834 117.61578857 -117.42079834 117.61578857 -117.85009766 116.20361328 C-118.64256555 113.61251041 -119.44346278 111.02425504 -120.25 108.4375 C-120.48388428 107.68259277 -120.71776855 106.92768555 -120.95874023 106.14990234 C-121.18376221 105.43914551 -121.40878418 104.72838867 -121.640625 103.99609375 C-121.83172852 103.38950928 -122.02283203 102.7829248 -122.21972656 102.15795898 C-122.86665961 100.36877214 -123.60832803 98.61417164 -124.37304688 96.87207031 C-126.3278278 92.35954847 -127.85254337 87.71860232 -129.390625 83.05078125 C-129.69949646 82.11574265 -130.00836792 81.18070404 -130.32659912 80.21733093 C-130.97379994 78.25218027 -131.61913463 76.28641413 -132.26269531 74.32006836 C-133.25135235 71.30838041 -134.25447532 68.30174587 -135.2578125 65.29492188 C-135.88631611 63.38050339 -136.51395085 61.46579938 -137.140625 59.55078125 C-137.44260803 58.65281326 -137.74459106 57.75484528 -138.0557251 56.82966614 C-138.32640808 55.99166977 -138.59709106 55.1536734 -138.87597656 54.2902832 C-139.11785706 53.5563887 -139.35973755 52.8224942 -139.60894775 52.06636047 C-140.0597275 49.68439371 -139.80438738 48.27136477 -139 46 C-136.91324384 43.12088135 -134.43282971 40.58963318 -132 38 C-131.4225 37.36964844 -130.845 36.73929688 -130.25 36.08984375 C-124.11555127 29.65131675 -117.08841223 24.3322403 -110 19 C-109.12069824 18.33750244 -109.12069824 18.33750244 -108.22363281 17.66162109 C-95.94532923 8.4820621 -83.53057171 1.1515694 -69 -4 C-67.64536821 -4.56137894 -66.29113366 -5.12371856 -64.9375 -5.6875 C-43.48565044 -13.40841109 -19.84353151 -9.83758107 0 0 Z " fill="#26262D" transform="translate(1199,207)"/>
<path d="M0 0 C0.92659424 0.00418945 1.85318848 0.00837891 2.80786133 0.01269531 C9.8153369 0.12798414 16.11182044 0.97140156 22.75 3.3125 C23.60464844 3.57933594 24.45929688 3.84617187 25.33984375 4.12109375 C32.25776028 6.51944694 37.26077071 10.56505845 42.75 15.3125 C43.389375 15.8075 44.02875 16.3025 44.6875 16.8125 C54.19842915 24.28537291 61.97508215 37.11656474 63.55273438 49.12974548 C63.97698206 53.82406848 63.95650129 58.53579218 63.98828125 63.24609375 C63.996353 64.39682877 64.00442474 65.54756378 64.01274109 66.73316956 C64.02653836 69.16641759 64.03727988 71.59968462 64.04516602 74.03295898 C64.05664714 76.49493169 64.07703686 78.95688027 64.10668945 81.41870117 C64.3123391 98.51979031 64.19360729 114.41706506 55.9375 129.875 C55.59058105 130.54136475 55.24366211 131.20772949 54.88623047 131.89428711 C52.19182112 136.88281816 49.30591346 140.86048344 44.75 144.3125 C43.98816406 144.90160156 43.22632813 145.49070312 42.44140625 146.09765625 C26.94679588 157.48293157 10.64344507 162.3573226 -8.48046875 159.4921875 C-25.21044247 156.70879364 -40.84158359 149.16451216 -52.25 136.3125 C-62.45204166 120.66936946 -64.60964133 102.11032289 -64.51074219 83.90527344 C-64.50007937 81.57980899 -64.51066575 79.25512776 -64.5234375 76.9296875 C-64.54573069 55.1882204 -61.59014293 33.94593117 -45.9375 17.4375 C-33.58725124 5.89949357 -16.76669981 -0.10352634 0 0 Z " fill="#FBFBFB" transform="translate(837.25,874.6875)"/>
<path d="M0 0 C1.86075322 -0.01171426 3.72146818 -0.03245716 5.58203125 -0.06152344 C22.7680522 -0.32676725 36.30396506 1.22828684 49.31982422 13.61938477 C60.78317003 25.64928803 63.50993208 38.02010342 63.18310547 54.17407227 C62.69765774 65.2491009 58.13823227 72.18812992 50.87841797 80.29516602 C50.05341797 81.30579102 49.22841797 82.31641602 48.37841797 83.35766602 C44.90240495 86.05157611 42.22443945 85.86674723 37.87841797 86.29516602 C38.31597412 87.08463623 38.75353027 87.87410645 39.2043457 88.6875 C53.88473727 115.19092212 53.88473727 115.19092212 59.25341797 125.23266602 C59.60331787 125.87969482 59.95321777 126.52672363 60.3137207 127.19335938 C64.90833597 135.85965397 65.14101573 141.9715347 65.87841797 152.29516602 C54.65841797 152.29516602 43.43841797 152.29516602 31.87841797 152.29516602 C30.00154297 148.08766602 28.12466797 143.88016602 26.19091797 139.54516602 C25.60995361 138.24482422 25.02898926 136.94448242 24.43041992 135.60473633 C23.95564209 134.53835938 23.48086426 133.47198242 22.99169922 132.37329102 C22.4627002 131.18670898 21.93370117 130.00012695 21.38867188 128.77758789 C19.6180153 124.69471602 17.9961965 120.56255657 16.43383789 116.39575195 C14.09519434 111.73388205 10.86935725 107.56793642 7.87841797 103.29516602 C-0.37158203 101.64516602 -8.62158203 99.99516602 -17.12158203 98.29516602 C-17.12158203 116.11516602 -17.12158203 133.93516602 -17.12158203 152.29516602 C-27.02158203 152.29516602 -36.92158203 152.29516602 -47.12158203 152.29516602 C-47.12158203 102.46516602 -47.12158203 52.63516602 -47.12158203 1.29516602 C-13.77425961 0.06008 -13.77425961 0.06008 0 0 Z " fill="#F9F9F9" transform="translate(680.12158203125,877.704833984375)"/>
<path d="M0 0 C0.84651123 0.00475342 1.69302246 0.00950684 2.56518555 0.0144043 C3.42394287 0.01851318 4.2827002 0.02262207 5.16748047 0.02685547 C26.39719085 0.21135814 26.39719085 0.21135814 31.81518555 4.1394043 C36.67243024 9.32495496 39.85736388 15.24397221 43.25268555 21.4519043 C44.50265908 23.70842938 45.75265983 25.96493938 47.00268555 28.22143555 C48.27366433 30.52734497 49.54450004 32.83333325 50.81518555 35.1394043 C60.14705164 52.02257943 69.78974048 68.65994649 79.81518555 85.1394043 C80.11160898 80.34801975 80.40262708 75.55632769 80.69018555 70.7644043 C80.73464813 70.02408966 80.77911072 69.28377502 80.82492065 68.52102661 C81.39511299 58.96542917 81.91204623 49.40866497 82.3581543 39.84643555 C82.40200256 38.90680969 82.44585083 37.96718384 82.49102783 36.99908447 C82.70505763 32.38087665 82.91387452 27.76247956 83.11743164 23.14379883 C83.19504653 21.43269758 83.27268227 19.72159727 83.3503418 18.01049805 C83.3987043 16.86385429 83.3987043 16.86385429 83.44804382 15.69404602 C83.68759162 10.47517997 84.19595327 5.3272803 84.81518555 0.1394043 C88.92691114 0.11474684 93.03860832 0.09656471 97.15039062 0.08447266 C98.55013783 0.0794335 99.94987975 0.07260213 101.34960938 0.06396484 C103.35764331 0.0518811 105.36571512 0.04670623 107.3737793 0.04174805 C109.18833618 0.03389282 109.18833618 0.03389282 111.03955078 0.02587891 C113.81518555 0.1394043 113.81518555 0.1394043 114.81518555 1.1394043 C114.91181527 3.0756873 114.93705699 5.01554692 114.93544006 6.95423889 C114.93750206 8.84948555 114.93750206 8.84948555 114.93960571 10.78302002 C114.9360661 12.19616723 114.93243128 13.6093142 114.92871094 15.02246094 C114.92842907 16.50042214 114.92858678 17.97838348 114.92915344 19.4563446 C114.92944145 23.48096258 114.92354425 27.50555101 114.91657948 31.5301621 C114.91034643 35.73156794 114.90974219 39.9329744 114.90855408 44.13438416 C114.90544062 52.09586687 114.89722703 60.05733591 114.88720459 68.0188126 C114.8760439 77.08033019 114.87053311 86.14184842 114.86550915 95.20337117 C114.85504443 113.8487233 114.83744471 132.4940627 114.81518555 151.1394043 C110.9819176 151.19800317 107.14876667 151.23320073 103.31518555 151.2644043 C102.2375293 151.28116211 101.15987305 151.29791992 100.04956055 151.31518555 C91.52234733 151.36718075 83.9775474 151.14904041 77.49487305 145.0715332 C74.1403393 141.21284424 71.7778918 136.78532006 69.31518555 132.3269043 C68.08110001 130.15282303 66.8453722 127.97967329 65.6081543 125.80737305 C64.9795752 124.69668457 64.35099609 123.58599609 63.70336914 122.44165039 C60.75887177 117.29201612 57.69560955 112.21615194 54.62768555 107.1394043 C48.50520736 96.97495747 42.43221031 86.78193324 36.37768555 76.5769043 C35.94855865 75.85365967 35.51943176 75.13041504 35.07730103 74.38525391 C32.65580131 70.30377487 30.23512801 66.22180682 27.81518555 62.1394043 C26.928488 69.75458383 26.50925179 77.36451923 26.18443298 85.02228737 C26.09424401 87.14809127 26.00057988 89.27371925 25.90612793 91.39933777 C25.70604937 95.91672706 25.51049228 100.43430661 25.31518555 104.9519043 C25.08835818 110.18516561 24.85959362 115.41833487 24.62767029 120.65137291 C24.53670432 122.72094313 24.44836636 124.79061345 24.36022949 126.86030579 C24.30347046 128.1484166 24.24671143 129.4365274 24.18823242 130.76367188 C24.11614563 132.43385124 24.11614563 132.43385124 24.04260254 134.13777161 C23.72021096 139.81057847 23.25097202 145.47418019 22.81518555 151.1394043 C12.91518555 151.1394043 3.01518555 151.1394043 -7.18481445 151.1394043 C-7.20736029 131.59910335 -7.22579293 112.05881287 -7.23662663 92.51850224 C-7.24178988 83.44624937 -7.24883315 74.37400514 -7.26025391 65.30175781 C-7.27019983 57.39731717 -7.27666766 49.49288279 -7.27890295 41.58843607 C-7.28021021 37.4004571 -7.28329704 33.21249603 -7.29054451 29.02452278 C-7.29730329 25.08725132 -7.29943171 21.15000521 -7.29792213 17.2127285 C-7.29819853 15.76345812 -7.30020449 14.31418695 -7.30401993 12.86492157 C-7.30895489 10.89470016 -7.30721254 8.92446532 -7.30506897 6.95423889 C-7.30599076 5.8490091 -7.30691256 4.74377932 -7.30786228 3.60505772 C-7.06665507 -1.22829356 -4.16406104 0.0114947 0 0 Z " fill="#F9F9F9" transform="translate(1294.184814453125,878.860595703125)"/>
<path d="M0 0 C1.96743164 -0.0309375 1.96743164 -0.0309375 3.97460938 -0.0625 C22.3612823 -0.13579018 38.33261053 5.12354228 52.1875 17.25 C62.4572369 28.40439588 63.87084546 43.83464062 63.31494141 58.31542969 C62.70875824 67.51733667 58.97127754 74.25037924 53.1875 81.25 C52.56230469 82.0234375 51.93710937 82.796875 51.29296875 83.59375 C43.65281581 92.12501065 33.70043853 98.05023675 22.19946289 98.89306641 C15.51641909 99.1253353 8.87162218 98.94751721 2.1875 98.75 C-5.7325 98.585 -13.6525 98.42 -21.8125 98.25 C-21.8125 116.07 -21.8125 133.89 -21.8125 152.25 C-31.7125 152.25 -41.6125 152.25 -51.8125 152.25 C-51.8125 102.42 -51.8125 52.59 -51.8125 1.25 C-10.8598427 0.04551008 -10.8598427 0.04551008 0 0 Z " fill="#F9F9F9" transform="translate(534.8125,877.75)"/>
<path d="M0 0 C33 0 66 0 100 0 C100 8.58 100 17.16 100 26 C76.9 26 53.8 26 30 26 C30 38.21 30 50.42 30 63 C50.46 63 70.92 63 92 63 C92 69.93 92 76.86 92 84 C71.54 84 51.08 84 30 84 C30 97.53 30 111.06 30 125 C53.1 125 76.2 125 100 125 C100 133.58 100 142.16 100 151 C67 151 34 151 0 151 C0 101.17 0 51.34 0 0 Z " fill="#FAFAFA" transform="translate(1079,879)"/>
<path d="M0 0 C39.93 0 79.86 0 121 0 C121 8.58 121 17.16 121 26 C105.82 26 90.64 26 75 26 C75 67.25 75 108.5 75 151 C65.43 151 55.86 151 46 151 C46 109.75 46 68.5 46 26 C30.82 26 15.64 26 0 26 C0 17.42 0 8.84 0 0 Z " fill="#FBFBFB" transform="translate(925,879)"/>
<path d="M0 0 C9.63264805 5.56231105 15.74107093 16.90593266 19.17138672 27.22607422 C19.78010136 30.47324957 19.74005769 33.69331554 19.73046875 36.984375 C19.73142548 37.71763 19.7323822 38.45088501 19.73336792 39.20635986 C19.73404795 40.76306239 19.73220596 42.31976777 19.72802734 43.87646484 C19.7227688 46.20026477 19.72792966 48.52386307 19.734375 50.84765625 C19.73946619 58.33629803 19.62924276 65.81693122 19.25390625 73.296875 C19.19267578 74.55338867 19.13144531 75.80990234 19.06835938 77.10449219 C18.31588273 82.53262768 15.96844676 86.28273295 12.59765625 90.5 C12.02273438 91.23992187 11.4478125 91.97984375 10.85546875 92.7421875 C4.79952345 100.0900678 -0.95798559 103.41444159 -10.40234375 104.5 C-18.70680724 105.04754704 -25.7794431 104.88673223 -32.46484375 99.4375 C-44.23872046 88.3668799 -48.89197639 74.21259864 -49.52270508 58.50195312 C-49.99604782 41.04272708 -50.24970014 23.25599059 -39.40234375 8.5 C-28.19492593 -1.60059619 -14.38031654 -5.95903764 0 0 Z " fill="#27272E" transform="translate(852.40234375,903.5)"/>
<path d="M0 0 C11.22 0 22.44 0 34 0 C34 49.83 34 99.66 34 151 C22.78 151 11.56 151 0 151 C0 101.17 0 51.34 0 0 Z " fill="#F9F9FA" transform="translate(1212,879)"/>
<path d="M0 0 C1.23169922 -0.020625 2.46339844 -0.04125 3.73242188 -0.0625 C11.77144381 -0.09716964 17.29451298 0.14108123 23.5 5.625 C24.263125 6.49125 25.02625 7.3575 25.8125 8.25 C26.50859375 8.94996094 27.2046875 9.64992188 27.921875 10.37109375 C30.49416655 14.28799224 30.4616811 17.34483029 30.375 21.9375 C30.36073975 23.13862427 30.36073975 23.13862427 30.34619141 24.36401367 C30.08753624 31.74166643 28.37479074 37.43834891 23.25 42.921875 C18.50428629 47.1455602 14.35546608 47.40011142 8.29296875 47.3828125 C7.55677811 47.38376923 6.82058746 47.38472595 6.06208801 47.38571167 C4.50452591 47.38639182 2.94696095 47.384549 1.3894043 47.38037109 C-0.98069736 47.37504339 -3.35060754 47.38030976 -5.72070312 47.38671875 C-7.23697958 47.38605749 -8.75325592 47.38477534 -10.26953125 47.3828125 C-10.97286087 47.38483673 -11.67619049 47.38686096 -12.40083313 47.38894653 C-16.52073502 47.36958002 -20.06519562 46.93705073 -24.1875 46.25 C-24.1875 31.4 -24.1875 16.55 -24.1875 1.25 C-16.00901972 0.43215197 -8.18517041 0.03459132 0 0 Z " fill="#26262D" transform="translate(537.1875,903.75)"/>
<path d="M0 0 C1.093125 -0.020625 2.18625 -0.04125 3.3125 -0.0625 C11.00243679 -0.0997394 16.19647657 0.43267242 22.125 5.6875 C22.8675 6.533125 23.61 7.37875 24.375 8.25 C24.90738281 8.80558594 25.43976562 9.36117187 25.98828125 9.93359375 C29.43590426 15.69258091 27.90445831 24.87524132 26.89453125 31.3125 C25.65415812 35.44287956 24.31988936 37.58956317 20.75390625 40.08203125 C17.66520119 41.69917492 14.64220793 43.03191203 11.375 44.25 C10.70887695 44.51925293 10.04275391 44.78850586 9.35644531 45.06591797 C3.32489869 47.34149258 -2.09586775 47.64472615 -8.5 47.5 C-9.43585937 47.49484375 -10.37171875 47.4896875 -11.3359375 47.484375 C-18.15708705 47.40597098 -18.15708705 47.40597098 -21.625 46.25 C-21.625 31.4 -21.625 16.55 -21.625 1.25 C-14.28754286 0.43472698 -7.34403745 0.03488854 0 0 Z " fill="#26262D" transform="translate(684.625,903.75)"/>
</svg>
