<?xml version="1.0" encoding="UTF-8"?>
<!DOCTYPE svg PUBLIC "-//W3C//DTD SVG 1.1//EN" "http://www.w3.org/Graphics/SVG/1.1/DTD/svg11.dtd">
<svg xmlns="http://www.w3.org/2000/svg" version="1.1" width="136px" height="119px" style="shape-rendering:geometricPrecision; text-rendering:geometricPrecision; image-rendering:optimizeQuality; fill-rule:evenodd; clip-rule:evenodd" xmlns:xlink="http://www.w3.org/1999/xlink">
<g><path style="opacity:1" fill="#d8d8d8" d="M -0.5,-0.5 C 44.8333,-0.5 90.1667,-0.5 135.5,-0.5C 135.5,39.1667 135.5,78.8333 135.5,118.5C 90.1667,118.5 44.8333,118.5 -0.5,118.5C -0.5,78.8333 -0.5,39.1667 -0.5,-0.5 Z"/></g>
<g><path style="opacity:1" fill="#160d0d" d="M 62.5,20.5 C 92.5152,20.6825 107.682,35.6825 108,65.5C 104.979,81.5221 95.8121,92.3554 80.5,98C 56.7179,102.693 40.2179,93.8598 31,71.5C 26.7511,45.3226 37.2511,28.3226 62.5,20.5 Z"/></g>
<g><path style="opacity:1" fill="#d5d5d5" d="M 62.5,26.5 C 82.6492,25.4784 95.8159,34.4784 102,53.5C 102.721,81.1117 89.2206,94.2784 61.5,93C 44.5968,87.552 35.9301,75.8853 35.5,58C 37.627,41.564 46.627,31.064 62.5,26.5 Z"/></g>
<g><path style="opacity:1" fill="#170f0f" d="M 63.5,38.5 C 73.5043,36.6717 80.3377,40.3384 84,49.5C 84.8461,53.9616 83.8461,57.9616 81,61.5C 76.6599,64.1906 72.6599,67.1906 69,70.5C 65.7072,69.8621 64.7072,67.8621 66,64.5C 68.7859,61.1123 72.1193,58.4456 76,56.5C 78.4231,51.8392 77.2565,48.3392 72.5,46C 65.0773,44.0938 60.9106,46.9271 60,54.5C 56.5089,57.4456 54.3422,56.6122 53.5,52C 54.397,45.6146 57.7303,41.1146 63.5,38.5 Z"/></g>
<g><path style="opacity:1" fill="#191211" d="M 66.5,73.5 C 73.4863,73.331 75.153,76.1643 71.5,82C 64.4159,82.475 62.7492,79.6417 66.5,73.5 Z"/></g>
</svg>
