<?xml version="1.0" encoding="UTF-8"?>
<svg version="1.1" xmlns="http://www.w3.org/2000/svg" width="775" height="817">
<path d="M0 0 C255.75 0 511.5 0 775 0 C775 269.61 775 539.22 775 817 C519.25 817 263.5 817 0 817 C0 547.39 0 277.78 0 0 Z " fill="#26262D" transform="translate(0,0)"/>
<path d="M0 0 C1.95313362 -0.00944138 1.95313362 -0.00944138 3.94572449 -0.01907349 C5.4014788 -0.02058801 6.85723347 -0.02178797 8.31298828 -0.02270508 C9.83421376 -0.02665565 11.35543875 -0.03080031 12.87666321 -0.03512573 C17.0156037 -0.04457759 21.15450377 -0.04549301 25.29345322 -0.04341507 C27.87431724 -0.04224042 30.45517713 -0.04276616 33.03604126 -0.04342651 C58.93468947 -0.04200928 84.81504992 0.31526197 110.70413971 1.01543808 C113.20025395 1.082884 115.6964072 1.14873114 118.19256592 1.21450806 C122.10766112 1.31878394 126.02252448 1.42940497 129.93727684 1.54583359 C131.37526798 1.58829879 132.81329881 1.62944327 134.25136757 1.66919327 C136.20718684 1.72409548 138.16280817 1.78592107 140.1184082 1.84814453 C141.21408615 1.8814537 142.3097641 1.91476288 143.43864441 1.94908142 C146.00830078 2.14526367 146.00830078 2.14526367 148.00830078 3.14526367 C148.89452104 6.47359902 149.20381646 9.78700788 149.44140625 13.21533203 C149.51183136 14.20928482 149.58225647 15.20323761 149.65481567 16.22731018 C149.72763763 17.30238327 149.80045959 18.37745636 149.87548828 19.48510742 C149.95483612 20.61951767 150.03418396 21.75392792 150.11593628 22.92271423 C150.37511435 26.64250458 150.62942565 30.36260791 150.88330078 34.08276367 C151.06057577 36.65259713 151.23798577 39.22242128 151.41552734 41.79223633 C151.86523759 48.32038704 152.30991294 54.84886957 152.75256348 61.37750244 C152.99653223 64.97187834 153.24195288 68.56615206 153.48779297 72.16040039 C153.85010437 77.46546041 154.20791427 82.77080352 154.56158447 88.07644653 C154.69146653 90.02010348 154.82242644 91.96368874 154.95452881 93.90719604 C156.24579331 112.96485806 156.24579331 112.96485806 156.00830078 122.14526367 C156.74137451 122.42273438 157.47444824 122.70020508 158.22973633 122.98608398 C160.80353073 124.05983636 163.07673089 125.26089529 165.46533203 126.69213867 C166.31788574 127.2000293 167.17043945 127.70791992 168.04882812 128.23120117 C168.9635791 128.7803418 169.87833008 129.32948242 170.82080078 129.89526367 C172.80879014 131.07804607 174.79708185 132.26032042 176.78564453 133.44213867 C177.81286621 134.05379883 178.84008789 134.66545898 179.8984375 135.2956543 C194.05576303 143.71580646 208.2766145 151.96224451 222.81640625 159.70776367 C243.4405591 170.72069563 243.4405591 170.72069563 247.00830078 177.14526367 C247.97048175 180.68561233 248.23726349 182.56518535 246.87524414 186.01586914 C246.28880127 187.00474121 245.7023584 187.99361328 245.09814453 189.01245117 C244.44507324 190.13296875 243.79200195 191.25348633 243.11914062 192.40795898 C242.39497161 193.61222752 241.67051781 194.81632485 240.94580078 196.02026367 C240.20675974 197.27552343 239.46931176 198.53172237 238.73339844 199.78881836 C237.22966781 202.35198441 235.71705579 204.90955232 234.19628906 207.46264648 C231.62721419 211.77844529 229.10594512 216.12155155 226.58496094 220.46557617 C224.30634619 224.38858578 222.01386913 228.30341753 219.72167969 232.21850586 C216.834489 237.15034427 213.95182661 242.08482184 211.07080078 247.02026367 C210.20817627 248.4980127 210.20817627 248.4980127 209.328125 250.00561523 C205.03217864 257.37248733 200.76550589 264.75594836 196.50830078 272.14526367 C191.4239514 280.96935761 186.32295322 289.78346151 181.19580078 298.58276367 C180.60283203 299.60176758 180.00986328 300.62077148 179.39892578 301.6706543 C178.57714844 303.07927734 178.57714844 303.07927734 177.73876953 304.51635742 C177.25819092 305.34063232 176.7776123 306.16490723 176.2824707 307.01416016 C173.26597915 312.05937088 173.26597915 312.05937088 170.00830078 313.14526367 C167.70223033 313.37101282 165.38655206 313.50389908 163.07080078 313.58276367 C161.84490234 313.64334961 160.61900391 313.70393555 159.35595703 313.76635742 C149.26488305 313.08639835 139.23329452 305.06244184 130.82080078 299.95776367 C129.20637085 298.98407837 129.20637085 298.98407837 127.55932617 297.99072266 C118.58992409 292.55563246 109.75436545 286.93186217 101.00830078 281.14526367 C100.86134766 282.16104492 100.71439453 283.17682617 100.56298828 284.22338867 C99.0801919 293.61824917 97.2807548 303.57895461 90.48828125 310.75 C86.68121388 312.89189703 83.04039866 312.72299207 78.73095703 312.82495117 C77.7092189 312.85797333 76.68748077 312.89099548 75.63478088 312.92501831 C56.9870427 313.43394721 38.31803899 313.29201833 19.66534424 313.2722168 C15.39633597 313.26962702 11.12734865 313.2744662 6.85834312 313.27907181 C-12.22962419 313.29658515 -31.31380565 313.29908553 -50.39404297 312.69995117 C-51.66985733 312.6612088 -52.94567169 312.62246643 -54.26014709 312.58255005 C-62.73089749 312.27566453 -62.73089749 312.27566453 -64.99169922 311.14526367 C-65.44821771 308.18740428 -65.75933037 305.31208809 -65.99169922 302.33276367 C-66.06584045 301.40548965 -66.13998169 300.47821564 -66.21636963 299.52284241 C-68.25034876 273.1463926 -69.33020514 246.86035419 -69.25244141 220.40625 C-69.24097843 216.47209378 -69.247873 212.53820656 -69.25934601 208.60405922 C-69.30732292 189.02547958 -68.67542689 169.65988479 -66.99169922 150.14526367 C-64.09757488 149.65001245 -61.20341207 149.15501965 -58.30892944 148.66186523 C-56.14817386 148.29036775 -53.98967797 147.90563788 -51.83276367 147.51245117 C-38.33754665 145.37173534 -24.613854 145.96654372 -10.99169922 146.14526367 C-10.99614044 145.29892365 -11.00058167 144.45258362 -11.00515747 143.58059692 C-11.40072991 64.51827885 -11.40072991 64.51827885 -9.13421631 31.26647949 C-8.98838373 29.09591608 -8.85130548 26.92495513 -8.71679688 24.75366211 C-8.32685364 18.46425929 -7.92111395 12.17572688 -7.45654297 5.89135742 C-7.39072021 4.9908667 -7.32489746 4.09037598 -7.25708008 3.16259766 C-6.6971603 -1.09371981 -3.70368911 0.01238982 0 0 Z " fill="#E8E9EB" transform="translate(324.99169921875,109.854736328125)"/>
<path d="M0 0 C41.25 0 82.5 0 125 0 C125 41.58 125 83.16 125 126 C83.75 126 42.5 126 0 126 C0 84.42 0 42.84 0 0 Z " fill="#27272E" transform="translate(277,277)"/>
<path d="M0 0 C41.58 0 83.16 0 126 0 C127.8773168 15.01853439 129.51318889 29.02953661 129.375 44 C129.37101196 45.27266724 129.37101196 45.27266724 129.36694336 46.57104492 C129.3158282 60.56480242 128.35867685 74.18489276 126 88 C124.0625 87.65234375 124.0625 87.65234375 122 87 C121.31867549 85.33927151 120.65257873 83.672233 120 82 C118.15017528 80.74172877 118.15017528 80.74172877 116 80 C115.401875 79.67644531 114.80375 79.35289062 114.1875 79.01953125 C110.70021672 77.39420815 107.78937855 76.86038942 103.94140625 76.921875 C97.71092893 79.20555593 95.08882431 86.23793227 92.14794922 91.828125 C91.1004917 93.80987364 90.00860473 95.75178367 88.87890625 97.6875 C88.21761719 98.821875 87.55632812 99.95625 86.875 101.125 C86.21628906 102.24777344 85.55757813 103.37054688 84.87890625 104.52734375 C83.52888747 107.0224928 82.47030385 109.26262478 81.46484375 111.87890625 C79.85705038 115.75794101 78.33477105 119.31628874 75 122 C68.36949537 124.63814735 61.03722347 124.66417808 54 125 C48.06 125.495 48.06 125.495 42 126 C28.14 126 14.28 126 0 126 C0 84.42 0 42.84 0 0 Z " fill="#292930" transform="translate(331,131)"/>
<path d="M0 0 C3.57958298 0.46220205 6.27591976 1.4947982 9.39453125 3.2734375 C10.25135498 3.75876953 11.10817871 4.24410156 11.9909668 4.74414062 C12.92207275 5.28232422 13.85317871 5.82050781 14.8125 6.375 C15.8022583 6.94154297 16.7920166 7.50808594 17.81176758 8.09179688 C21.21508344 10.04887898 24.609288 12.02120043 28 14 C28.63208374 14.36855103 29.26416748 14.73710205 29.91540527 15.11682129 C46.03511663 24.52339841 62.06967229 34.02237697 77.59326172 44.39355469 C80.25517553 46.1703241 82.92607383 47.93311757 85.59765625 49.6953125 C87.48214515 50.94214276 89.36626846 52.1895258 91.25 53.4375 C92.10811279 54.00509033 92.96622559 54.57268066 93.8503418 55.1574707 C99.03107105 58.6097588 104.06413652 62.20561917 109 66 C91.42880552 102.53774853 69.01379871 137.35812788 45 170 C41.26240409 169.33710145 38.56708579 167.66928852 35.36328125 165.67578125 C34.23970215 164.98379639 33.11612305 164.29181152 31.95849609 163.57885742 C30.74282652 162.82394823 29.5275021 162.06848299 28.3125 161.3125 C20.87858844 156.68934476 13.47050399 152.14413922 5.66015625 148.1796875 C4.51699951 147.58760498 3.37384277 146.99552246 2.19604492 146.38549805 C0.03052138 145.27829991 -2.15272532 144.20491121 -4.35424805 143.17114258 C-11.39587568 139.5283218 -11.39587568 139.5283218 -13.07275391 135.28613281 C-13.62302538 132.16876232 -13.86229224 129.161019 -14 126 C-14.20322152 124.29853982 -14.41389457 122.59794939 -14.6328125 120.8984375 C-16.10481638 105.55378404 -16.21551491 90.21422487 -16.25 74.8125 C-16.25517639 73.75979919 -16.26035278 72.70709839 -16.26568604 71.62249756 C-16.43336637 28.2927199 -16.43336637 28.2927199 -7.4375 12.625 C-6.53354492 10.93310547 -6.53354492 10.93310547 -5.61132812 9.20703125 C-1.41241399 1.41241399 -1.41241399 1.41241399 0 0 Z " fill="#28282F" transform="translate(439,232)"/>
<path d="M0 0 C39.57575758 0 39.57575758 0 44.5 4.0625 C44.995 5.031875 45.49 6.00125 46 7 C46.36609375 7.61746094 46.7321875 8.23492187 47.109375 8.87109375 C50.98483565 16.10440216 51.39311013 24.08505539 49.1640625 31.94921875 C47.74305178 35.60858846 46.18073617 38.72889574 44 42 C44.23158646 47.09490222 46.3615924 50.77485776 49 55 C51.66645232 59.27005302 53.50256208 62.90126133 54 68 C52.4375 69.5625 52.4375 69.5625 50 71 C43.94703288 70.78761519 43.94703288 70.78761519 41.43798828 68.70092773 C39.87991552 66.8579578 38.72841394 65.01862261 37.5546875 62.91015625 C37.11769531 62.12576172 36.68070313 61.34136719 36.23046875 60.53320312 C35.78316406 59.71787109 35.33585938 58.90253906 34.875 58.0625 C34.41996094 57.25103516 33.96492187 56.43957031 33.49609375 55.60351562 C31.5474984 52.07927567 29.83146896 48.96817167 29 45 C23.47143821 43.23556539 18.96979766 42.66331085 13 42 C13 51.57 13 61.14 13 71 C8.71 71 4.42 71 0 71 C0 47.57 0 24.14 0 0 Z " fill="#E7E7E7" transform="translate(531,469)"/>
<path d="M0 0 C4.80069662 0.11412116 7.30765601 0.80765601 10.8125 4.3125 C12.8982194 8.15949357 14.32825488 12.20261658 15.8125 16.3125 C16.3390987 17.70260014 16.86785332 19.09188494 17.3984375 20.48046875 C20.81654487 29.50191828 23.98391296 38.60765905 27.0625 47.75 C27.39161377 48.71969727 27.72072754 49.68939453 28.05981445 50.68847656 C30.32636783 57.49450504 32.13949728 64.33649175 33.8125 71.3125 C29.5225 71.3125 25.2325 71.3125 20.8125 71.3125 C20.6578125 69.2396875 20.6578125 69.2396875 20.5 67.125 C20.04702946 63.17857175 19.44813137 60.41877983 16.8125 57.3125 C8.30787455 53.21928741 -0.84739482 55.1075893 -9.4921875 57.96875 C-12.31054127 59.37384232 -13.1598309 60.01152728 -14.3125 62.875 C-14.745625 64.5765625 -14.745625 64.5765625 -15.1875 66.3125 C-16.375 68.25 -16.375 68.25 -18.1875 69.3125 C-22.65646426 69.89337166 -25.37375178 69.85499881 -29.1875 67.3125 C-26.6362319 57.80119349 -22.86769222 48.81172069 -19.12109375 39.7265625 C-15.84582421 31.69598531 -13.047465 23.49753533 -10.1875 15.3125 C-9.25425011 12.64431522 -8.31648881 9.97778759 -7.375 7.3125 C-6.77751953 5.6109375 -6.77751953 5.6109375 -6.16796875 3.875 C-4.7039972 0.04884328 -3.94799588 0.12564811 0 0 Z " fill="#E9E9E9" transform="translate(481.1875,468.6875)"/>
<path d="M0 0 C1.04800781 -0.01224609 2.09601563 -0.02449219 3.17578125 -0.03710938 C20.8184711 -0.06982141 20.8184711 -0.06982141 25.62988281 3.80004883 C30.55527272 9.17551746 31.91001237 13.91968447 31.625 21.1875 C25.92523866 20.67843041 21.7299437 18.3956574 16.8125 15.6875 C16.03712891 15.27113281 15.26175781 14.85476563 14.46289062 14.42578125 C8.80316964 11.36566964 8.80316964 11.36566964 7.625 10.1875 C2.61781609 9.80233201 -0.38713531 10.06187632 -4.375 13.1875 C-9.89079472 18.70329472 -9.52373661 25.17467721 -9.5625 32.625 C-9.48718116 41.13602855 -7.93486747 47.43547618 -4.27734375 55.109375 C-3.40264509 57.12383252 -2.84287412 59.0458906 -2.375 61.1875 C-0.12606046 61.29573773 2.12437575 61.37319645 4.375 61.4375 C6.25445312 61.50710938 6.25445312 61.50710938 8.171875 61.578125 C11.67710402 61.49216309 11.67710402 61.49216309 14.00390625 59.28515625 C17.2920445 55.03038458 18.00566333 51.55508452 18.625 46.1875 C14.335 46.1875 10.045 46.1875 5.625 46.1875 C5.625 41.8975 5.625 37.6075 5.625 33.1875 C14.205 33.1875 22.785 33.1875 31.625 33.1875 C32.01718121 59.46364118 32.01718121 59.46364118 26.0859375 66.71484375 C21.6571611 71.17914509 18.09644422 72.43203047 11.9375 72.625 C5.54740834 72.39335918 -0.29284971 71.1028733 -6.375 69.1875 C-7.22578125 68.95546875 -8.0765625 68.7234375 -8.953125 68.484375 C-12.57520315 67.2610241 -14.72637338 66.12223761 -16.93359375 62.94140625 C-23.55231752 49.40935675 -25.58865895 33.96591377 -21.5703125 19.39453125 C-16.77522864 6.52928992 -14.05048983 0.00833362 0 0 Z " fill="#E4E4E5" transform="translate(404.375,468.8125)"/>
<path d="M0 0 C4.29 0 8.58 0 13 0 C13.02505615 1.001521 13.0501123 2.00304199 13.07592773 3.03491211 C13.17186553 6.8390253 13.27158868 10.64303231 13.37231445 14.44702148 C13.41497418 16.07687861 13.45667869 17.70676108 13.49731445 19.33666992 C13.61643129 24.09987295 13.75984232 28.86145103 13.92645264 33.62322998 C14.00021006 36.00678849 14.04211756 38.38959644 14.08251953 40.77392578 C14.12801018 42.28812313 14.17467279 43.80228585 14.22265625 45.31640625 C14.22623642 46.00322983 14.22981659 46.69005341 14.23350525 47.39768982 C14.45612739 52.92620395 16.26228056 55.20828062 20 59 C23.48144023 61.55305617 26.78202596 61.5004376 31 61 C34.28731112 59.24893725 37.30927864 57.38144272 39 54 C39.48916536 50.60131983 39.71888346 47.17143398 40 43.75 C40.08685059 42.70908203 40.17370117 41.66816406 40.26318359 40.59570312 C41.31913012 27.0843423 41.64843627 13.5444554 42 0 C46.29 0 50.58 0 55 0 C55.12846711 12.33481851 55.1370573 24.66517919 55 37 C54.98839844 38.2482959 54.97679687 39.4965918 54.96484375 40.78271484 C54.68471743 56.51881111 54.68471743 56.51881111 50.9921875 61.95703125 C48.42713771 64.18838334 46.07961136 65.57998119 43 67 C42.22269531 67.44085937 41.44539063 67.88171875 40.64453125 68.3359375 C32.97924041 72.16216308 24.04045978 72.07085604 15.73046875 70.59765625 C10.00730032 68.62103149 5.48284908 63.00161491 2.87109375 57.71484375 C1.7807075 54.31655476 1.25822448 50.97111298 0.875 47.4375 C0.79008301 46.66043701 0.70516602 45.88337402 0.61767578 45.08276367 C-0.75697434 30.14277849 -0.15837969 14.98637355 0 0 Z " fill="#E8E8E8" transform="translate(306,469)"/>
<path d="M0 0 C1.10408203 -0.01224609 2.20816406 -0.02449219 3.34570312 -0.03710938 C19.97412454 -0.06657498 19.97412454 -0.06657498 25.53515625 3.9921875 C26.05980469 4.67539062 26.58445312 5.35859375 27.125 6.0625 C27.67285156 6.74054688 28.22070312 7.41859375 28.78515625 8.1171875 C31.39734894 12.35101663 31.15668535 16.28986188 31.0625 21.1875 C24.10531689 19.58321805 17.91949672 16.84595724 12 12.875 C7.74342491 10.22303287 4.85021342 9.50781054 -0.08203125 10.51171875 C-2.10471392 11.13759897 -2.10471392 11.13759897 -4.0625 12.875 C-5.48716739 16.64019239 -4.5520458 19.60551012 -3.13183594 23.26147461 C-1.65783378 25.63849894 -0.62173895 26.06843159 1.984375 27.00390625 C2.76296875 27.29330078 3.5415625 27.58269531 4.34375 27.88085938 C5.56578125 28.31108398 5.56578125 28.31108398 6.8125 28.75 C21.69517838 34.16297415 21.69517838 34.16297415 25.3125 38.625 C25.79203125 39.20121094 26.2715625 39.77742188 26.765625 40.37109375 C30.19062553 45.16815774 30.72329429 49.21320637 30.64453125 55.0703125 C29.63151164 60.49574636 26.22129698 63.76901243 22.0625 67.1875 C14.09754359 72.50981971 3.73828599 72.37924394 -5.51953125 70.7265625 C-14.35115613 67.76526816 -19.30628891 60.82136443 -23.9375 53.1875 C-21.76102327 50.74304866 -21.12085017 50.22345101 -17.75 49.5625 C-12.32616212 50.45165375 -9.80388141 53.47990222 -5.9375 57.1875 C-2.56842768 59.92487126 -0.18113062 61.43798589 4.125 61.6875 C8.46259809 61.13669389 9.94306736 60.1234366 13.0625 57.1875 C13.7225 57.1875 14.3825 57.1875 15.0625 57.1875 C16.56088501 54.80771205 17.08806668 53.52838901 16.875 50.6875 C15.95619559 47.8604095 15.0864126 46.37040361 13.0625 44.1875 C10.17539 42.90075867 10.17539 42.90075867 6.8125 41.9375 C1.2523781 40.06291156 -3.92369323 37.90421982 -9.125 35.1875 C-9.76018555 34.86749023 -10.39537109 34.54748047 -11.04980469 34.21777344 C-14.96467842 32.11953662 -17.20164947 30.30097679 -18.9375 26.1875 C-20.59781606 16.59885298 -17.97447703 9.28015008 -12.9375 1.1875 C-10.40235906 -1.34764094 -3.40340114 0.00192609 0 0 Z " fill="#E3E3E4" transform="translate(258.9375,468.8125)"/>
<path d="M0 0 C41.58 0 83.16 0 126 0 C127.8773168 15.01853439 129.51318889 29.02953661 129.375 44 C129.37101196 45.27266724 129.37101196 45.27266724 129.36694336 46.57104492 C129.3158282 60.56480242 128.35867685 74.18489276 126 88 C122.16210938 87.21972656 122.16210938 87.21972656 120.703125 85.2421875 C119.83407245 82.47087546 120.1277894 80.95858069 120.75 78.125 C125.23159242 52.57992319 124.46043815 26.8989688 125 1 C84.08 1 43.16 1 1 1 C1 41.92 1 82.84 1 125 C1.66 125.33 2.32 125.66 3 126 C2.01 126 1.02 126 0 126 C0 84.42 0 42.84 0 0 Z " fill="#75767A" transform="translate(331,131)"/>
<path d="M0 0 C3.3681615 1.1608128 5.21537859 2.96572633 7.375 5.8125 C8.95152454 11.33033588 8.11526085 16.74698111 6.1484375 22.04296875 C5 24 5 24 1.625 26.0625 C-3 27 -3 27 -16 27 C-16 18.42 -16 9.84 -16 1 C-11.35383272 -1.32308364 -5.05642332 -0.4194533 0 0 Z " fill="#37373E" transform="translate(560,476)"/>
<path d="M0 0 C3 1 3 1 4.0625 2.8203125 C4.371875 3.58085937 4.68125 4.34140625 5 5.125 C5.33773438 5.93453125 5.67546875 6.7440625 6.0234375 7.578125 C6.34570312 8.37734375 6.66796875 9.1765625 7 10 C8.46640078 13.52474316 9.87000563 16.80500844 12 20 C12.25760279 22.69452521 12.08900053 25.28548375 12 28 C-2.17332706 28.57545839 -2.17332706 28.57545839 -8 25 C-8.33 24.01 -8.66 23.02 -9 22 C-8.67 21.34 -8.34 20.68 -8 20 C-7.01 20 -6.02 20 -5 20 C-4.89042969 18.89140625 -4.78085937 17.7828125 -4.66796875 16.640625 C-4.50847238 15.17701127 -4.34827951 13.71347333 -4.1875 12.25 C-4.11724609 11.52039063 -4.04699219 10.79078125 -3.97460938 10.0390625 C-3.50187804 5.87902672 -2.94211224 3.06302096 0 0 Z " fill="#3F3E45" transform="translate(482,487)"/>
<path d="M0 0 C4.93872549 4.77941176 4.93872549 4.77941176 5.09765625 7.9453125 C5.06510417 9.96354167 5.03255208 11.98177083 5 14 C-9.17332706 14.57545839 -9.17332706 14.57545839 -15 11 C-15.33 10.01 -15.66 9.02 -16 8 C-15.67 7.34 -15.34 6.68 -15 6 C-11.31733897 6.59950296 -7.65456815 7.24758891 -4 8 C-1.84622436 5.37801226 -0.59927826 3.35595828 0 0 Z " fill="#8F8F93" transform="translate(489,501)"/>
</svg>
