<?xml version="1.0" encoding="UTF-8"?>
<!DOCTYPE svg PUBLIC "-//W3C//DTD SVG 1.1//EN" "http://www.w3.org/Graphics/SVG/1.1/DTD/svg11.dtd">
<svg xmlns="http://www.w3.org/2000/svg" version="1.1" width="186px" height="196px" style="shape-rendering:geometricPrecision; text-rendering:geometricPrecision; image-rendering:optimizeQuality; fill-rule:evenodd; clip-rule:evenodd" xmlns:xlink="http://www.w3.org/1999/xlink">
<g><path style="opacity:1" fill="#26262d" d="M -0.5,-0.5 C 61.5,-0.5 123.5,-0.5 185.5,-0.5C 185.5,64.8333 185.5,130.167 185.5,195.5C 123.5,195.5 61.5,195.5 -0.5,195.5C -0.5,130.167 -0.5,64.8333 -0.5,-0.5 Z"/></g>
<g><path style="opacity:1" fill="#ebecee" d="M 76.5,26.5 C 88.8378,26.3335 101.171,26.5001 113.5,27C 114.155,36.4403 114.821,45.9403 115.5,55.5C 122.003,59.5861 128.67,63.4194 135.5,67C 136.574,67.7387 137.241,68.7387 137.5,70C 131.507,80.3172 125.507,90.6506 119.5,101C 117.833,101.667 116.167,101.667 114.5,101C 110.25,98.6258 106.084,96.1258 102,93.5C 101.971,96.3665 101.138,98.8665 99.5,101C 87.1667,101.667 74.8333,101.667 62.5,101C 61.3449,88.2421 61.1783,75.4088 62,62.5C 66.4014,61.5333 70.9014,61.2 75.5,61.5C 75.1887,49.7527 75.522,38.0861 76.5,26.5 Z"/></g>
<g><path style="opacity:1" fill="#292930" d="M 109.5,31.5 C 109.824,38.3543 109.491,45.021 108.5,51.5C 107.162,49.8872 105.495,49.3872 103.5,50C 101.3,53.3713 99.3001,56.8713 97.5,60.5C 91.5368,61.4959 85.5368,61.8293 79.5,61.5C 79.5,51.5 79.5,41.5 79.5,31.5C 89.5,31.5 99.5,31.5 109.5,31.5 Z"/></g>
<g><path style="opacity:1" fill="#78797d" d="M 109.5,31.5 C 110.819,38.344 110.819,45.344 109.5,52.5C 108.893,52.3764 108.56,52.0431 108.5,51.5C 109.491,45.021 109.824,38.3543 109.5,31.5 Z"/></g>
<g><path style="opacity:1" fill="#28282f" d="M 105.5,55.5 C 114.509,60.3349 123.176,65.6683 131.5,71.5C 126.834,80.1687 121.668,88.5021 116,96.5C 111.582,93.7074 107.082,91.0407 102.5,88.5C 101.335,79.8525 101.168,71.1858 102,62.5C 103.18,60.1401 104.347,57.8068 105.5,55.5 Z"/></g>
<g><path style="opacity:1" fill="#26262d" d="M 66.5,66.5 C 76.5,66.5 86.5,66.5 96.5,66.5C 96.5,76.5 96.5,86.5 96.5,96.5C 86.5,96.5 76.5,96.5 66.5,96.5C 66.5,86.5 66.5,76.5 66.5,66.5 Z"/></g>
<g><path style="opacity:1" fill="#e8e8e9" d="M 59.5,112.5 C 62.1873,112.336 64.854,112.503 67.5,113C 69.0368,114.11 69.7035,115.61 69.5,117.5C 67.3318,116.821 65.3318,115.821 63.5,114.5C 60.7183,114.859 60.0517,116.192 61.5,118.5C 63.5405,119.236 65.5405,120.069 67.5,121C 70.3988,124.156 70.0655,126.822 66.5,129C 61.8964,130.552 58.5631,129.218 56.5,125C 57.5,124.333 58.5,124.333 59.5,125C 62.0439,128.248 64.3772,128.248 66.5,125C 66.3552,124.228 66.0219,123.561 65.5,123C 62.8041,122.235 60.3041,121.068 58,119.5C 57.1668,116.829 57.6668,114.496 59.5,112.5 Z"/></g>
<g><path style="opacity:1" fill="#eeeeee" d="M 73.5,112.5 C 74.5,112.5 75.5,112.5 76.5,112.5C 76.3343,116.846 76.501,121.179 77,125.5C 79,128.167 81,128.167 83,125.5C 83.499,121.179 83.6657,116.846 83.5,112.5C 84.5,112.5 85.5,112.5 86.5,112.5C 86.6658,117.179 86.4992,121.845 86,126.5C 83.4406,129.349 80.2739,130.183 76.5,129C 75.2986,128.097 74.4652,126.931 74,125.5C 73.501,121.179 73.3343,116.846 73.5,112.5 Z"/></g>
<g><path style="opacity:1" fill="#eaeaeb" d="M 94.5,112.5 C 97.1873,112.336 99.854,112.503 102.5,113C 104.037,114.11 104.703,115.61 104.5,117.5C 102.332,116.821 100.332,115.821 98.5,114.5C 96.9707,114.529 95.804,115.196 95,116.5C 93.9766,120.317 94.4766,123.817 96.5,127C 99.9257,128.238 101.592,127.071 101.5,123.5C 100.5,123.5 99.5,123.5 98.5,123.5C 98.5,122.5 98.5,121.5 98.5,120.5C 100.5,120.5 102.5,120.5 104.5,120.5C 105.355,129.379 101.688,131.879 93.5,128C 90.567,122.524 90.9003,117.357 94.5,112.5 Z"/></g>
<g><path style="opacity:1" fill="#eeeeee" d="M 114.5,112.5 C 115.822,112.33 116.989,112.663 118,113.5C 120.141,118.756 121.974,124.09 123.5,129.5C 122.5,129.5 121.5,129.5 120.5,129.5C 120.763,126.266 119.263,124.932 116,125.5C 114.833,125.833 113.667,126.167 112.5,126.5C 111.84,128.96 110.506,129.626 108.5,128.5C 110.703,123.221 112.703,117.887 114.5,112.5 Z"/></g>
<g><path style="opacity:1" fill="#ededed" d="M 127.5,112.5 C 130.85,112.335 134.183,112.502 137.5,113C 140.071,116.281 140.071,119.615 137.5,123C 138.62,124.737 139.62,126.571 140.5,128.5C 139.635,129.583 138.635,129.749 137.5,129C 136.373,127.247 135.373,125.413 134.5,123.5C 133.311,122.571 131.978,122.238 130.5,122.5C 130.5,124.833 130.5,127.167 130.5,129.5C 129.5,129.5 128.5,129.5 127.5,129.5C 127.5,123.833 127.5,118.167 127.5,112.5 Z"/></g>
<g><path style="opacity:1" fill="#323239" d="M 130.5,114.5 C 135.667,113.492 137.334,115.325 135.5,120C 133.866,120.494 132.199,120.66 130.5,120.5C 130.5,118.5 130.5,116.5 130.5,114.5 Z"/></g>
<g><path style="opacity:1" fill="#39383f" d="M 117.5,120.5 C 116.947,122.552 115.947,122.885 114.5,121.5C 115.162,115.676 116.162,115.342 117.5,120.5 Z"/></g>
<g><path style="opacity:1" fill="#8d8d91" d="M 117.5,120.5 C 118.404,121.209 118.737,122.209 118.5,123.5C 116.712,123.785 115.045,123.452 113.5,122.5C 113.624,121.893 113.957,121.56 114.5,121.5C 115.947,122.885 116.947,122.552 117.5,120.5 Z"/></g>
<g><path style="opacity:1" fill="#f4f4f5" d="M 49.5,154.5 C 54.2797,153.641 57.7797,155.308 60,159.5C 60.6667,164.167 60.6667,168.833 60,173.5C 57.0891,177.277 53.2558,178.444 48.5,177C 47.2986,176.097 46.4652,174.931 46,173.5C 45.3333,168.5 45.3333,163.5 46,158.5C 47.3756,157.295 48.5423,155.962 49.5,154.5 Z"/></g>
<g><path style="opacity:1" fill="#ededee" d="M 72.5,155.5 C 73.675,155.281 74.675,155.614 75.5,156.5C 72.5531,164.005 70.2198,171.672 68.5,179.5C 67.0222,179.762 65.6888,179.429 64.5,178.5C 67.1757,170.805 69.8424,163.138 72.5,155.5 Z"/></g>
<g><path style="opacity:1" fill="#efefef" d="M 84.5,154.5 C 95.6456,154.456 98.1456,159.123 92,168.5C 90.1667,170.333 88.3333,172.167 86.5,174C 89.8168,174.498 93.1501,174.665 96.5,174.5C 96.5,175.5 96.5,176.5 96.5,177.5C 91.1667,177.5 85.8333,177.5 80.5,177.5C 82.6547,172.564 85.8214,168.23 90,164.5C 90.4955,162.527 90.6621,160.527 90.5,158.5C 86.7593,157.599 84.7593,158.932 84.5,162.5C 83.1667,162.5 81.8333,162.5 80.5,162.5C 80.3433,161.127 80.51,159.793 81,158.5C 82.3756,157.295 83.5423,155.962 84.5,154.5 Z"/></g>
<g><path style="opacity:1" fill="#ececed" d="M 107.5,158.5 C 106.549,159.919 106.216,161.585 106.5,163.5C 108.5,163.5 110.5,163.5 112.5,163.5C 118.752,167.33 119.085,171.83 113.5,177C 110.036,177.817 106.702,177.483 103.5,176C 101.051,173.803 101.217,172.303 104,171.5C 105.838,172.535 107.671,173.535 109.5,174.5C 112.499,172.688 113.165,170.188 111.5,167C 108.563,167.011 105.73,166.845 103,166.5C 102.83,162.507 102.996,158.507 103.5,154.5C 107.833,154.5 112.167,154.5 116.5,154.5C 116.5,155.833 116.5,157.167 116.5,158.5C 113.5,158.5 110.5,158.5 107.5,158.5 Z"/></g>
<g><path style="opacity:1" fill="#ebebec" d="M 139.5,154.5 C 142.607,154.351 145.607,154.851 148.5,156C 150.451,157.734 151.451,159.901 151.5,162.5C 149.833,162.5 148.167,162.5 146.5,162.5C 146.22,158.775 144.22,157.608 140.5,159C 137.572,162.257 136.738,166.091 138,170.5C 139.334,174.104 141.834,175.271 145.5,174C 146.38,172.644 146.714,171.144 146.5,169.5C 145.167,169.5 143.833,169.5 142.5,169.5C 142.5,168.167 142.5,166.833 142.5,165.5C 145.5,165.5 148.5,165.5 151.5,165.5C 153.83,173.482 150.997,177.816 143,178.5C 135.911,177.407 132.411,173.24 132.5,166C 132.607,160.743 134.94,156.91 139.5,154.5 Z"/></g>
<g><path style="opacity:1" fill="#36363d" d="M 50.5,158.5 C 52.7224,158.178 54.5557,158.845 56,160.5C 56.6667,164.167 56.6667,167.833 56,171.5C 54,175.5 52,175.5 50,171.5C 49.2938,167.113 49.4604,162.78 50.5,158.5 Z"/></g>
<g><path style="opacity:1" fill="#a0a0a3" d="M 107.5,158.5 C 107.5,159.833 107.5,161.167 107.5,162.5C 109.415,162.216 111.081,162.549 112.5,163.5C 110.5,163.5 108.5,163.5 106.5,163.5C 106.216,161.585 106.549,159.919 107.5,158.5 Z"/></g>
</svg>
