<?xml version="1.0" encoding="UTF-8"?>
<svg version="1.1" xmlns="http://www.w3.org/2000/svg" width="429" height="375">
<path d="M0 0 C1.03060547 0.78648926 1.03060547 0.78648926 2.08203125 1.58886719 C9.67452381 7.49144024 16.61336818 14.05112655 23.5 20.75 C24.30308594 21.513125 25.10617188 22.27625 25.93359375 23.0625 C43.92490325 40.45760626 57.33499846 64.09015242 57.9375 89.5 C57.25902928 109.57849295 48.85564103 124.1979779 34.578125 137.546875 C19.02254425 150.34925562 -1.76885403 155.08551425 -21.5 153.75 C-40.02187042 151.36432298 -59.53184715 143.7664089 -71.5 128.75 C-82.71224083 113.45717736 -87.28180417 98.1650581 -85.07421875 79.06640625 C-79.11746586 44.53185727 -52.11410666 17.49751038 -24.76953125 -2.21875 C-15.15174167 -8.8711852 -9.05874277 -7.02911427 0 0 Z M-39.96826172 34.19970703 C-52.37160825 46.75330131 -61.42972852 60.79627974 -66.5 77.75 C-66.69980469 78.39453125 -66.89960938 79.0390625 -67.10546875 79.703125 C-69.40869371 91.65252973 -67.04819213 102.5201756 -60.5 112.625 C-59.52536414 114.01809365 -58.52420247 115.39293173 -57.5 116.75 C-56.9121875 117.56597656 -56.324375 118.38195312 -55.71875 119.22265625 C-53.13384107 122.16708597 -50.28380021 124.2359594 -47 126.3125 C-46.38777588 126.70308594 -45.77555176 127.09367187 -45.14477539 127.49609375 C-32.12627527 135.51058162 -16.46418702 137.88011702 -1.47265625 135.1015625 C13.135503 131.57389556 25.58333393 124.10562035 33.921875 111.50390625 C39.95069839 100.98331098 41.46462354 89.43334333 38.58203125 77.625 C31.14843807 50.81469716 9.30533814 27.81330453 -13.5 12.75 C-20.83151763 12.75 -34.7555606 29.07477824 -39.96826172 34.19970703 Z " fill="#F5F6F8" transform="translate(226.5,22.25)"/>
<path d="M0 0 C4.62 0 9.24 0 14 0 C17.09825405 6.74777403 19.75168849 13.57282416 22.25 20.5625 C23.4875 24.006875 24.725 27.45125 26 31 C29.63 20.77 33.26 10.54 37 0 C41.62 0 46.24 0 51 0 C51 15.84 51 31.68 51 48 C47.7 48 44.4 48 41 48 C40.67 39.09 40.34 30.18 40 21 C36.7 29.91 33.4 38.82 30 48 C27.36 48 24.72 48 22 48 C18.48543153 39.39964423 15.24576877 30.7045617 12 22 C11.67 30.58 11.34 39.16 11 48 C7.37 48 3.74 48 0 48 C0 32.16 0 16.32 0 0 Z M10 16 C11 18 11 18 11 18 Z " fill="#FEFEFE" transform="translate(303,309)"/>
<path d="M0 0 C5.22901182 3.61050816 7.42791032 7.66859206 8.625 13.8125 C8.9212445 17.13001814 8.94998745 20.42084661 8.9375 23.75 C8.95361328 24.60529297 8.96972656 25.46058594 8.98632812 26.34179688 C8.9917228 33.4142196 7.86105001 39.03254594 3.3125 44.6875 C-1.15801839 48.22232849 -4.76451012 49.02758046 -10.375 48.75 C-15.57049479 48.07028865 -17.88881717 46.72382708 -21.375 42.8125 C-24.86379059 36.56764812 -24.82756694 30.86247345 -24.75 23.8125 C-24.76160156 22.75804687 -24.77320313 21.70359375 -24.78515625 20.6171875 C-24.75644427 12.97980199 -24.01918333 7.85331083 -18.875 1.9375 C-13.59305822 -2.55215051 -6.30170594 -2.21726691 0 0 Z M-11.4375 8.625 C-15.3464522 13.03833313 -14.55853744 18.11614073 -14.5625 23.6875 C-14.57474609 24.58597656 -14.58699219 25.48445313 -14.59960938 26.41015625 C-14.60972976 30.9778227 -14.56570769 34.67353448 -12.375 38.8125 C-10.065 39.1425 -7.755 39.4725 -5.375 39.8125 C-1.10601123 34.99854902 -1.86044434 30.02112615 -1.875 23.875 C-1.84664063 22.79025391 -1.81828125 21.70550781 -1.7890625 20.58789062 C-1.60650519 14.01101269 -1.60650519 14.01101269 -4.78125 8.55859375 C-8.25824909 6.20135744 -8.25824909 6.20135744 -11.4375 8.625 Z " fill="#FDFDFD" transform="translate(261.375,309.1875)"/>
<path d="M0 0 C2.9375 1.8125 2.9375 1.8125 5 5 C6.65913639 13.79051208 4.07243612 22.9985407 -0.54296875 30.51171875 C-7.43488575 39.80082427 -16.9584039 48.24004593 -28.62890625 50.51171875 C-32.23900452 50.68419461 -34.39294451 50.34054332 -37.5625 48.5625 C-39.71289098 44.72919434 -39.75343136 41.29059334 -39 37 C-36.51292502 32.9990533 -32.48477683 31.8327615 -28.30859375 30.04296875 C-21.5138559 26.97326485 -18.12653074 23.51059568 -14.98046875 16.69921875 C-13.99775946 13.99383181 -13.45680819 11.46223989 -13 8.625 C-12.41224638 5.19553854 -12.11901501 4.14281801 -9.8125 1.375 C-6.16996983 -0.40579253 -4.008154 -0.64416761 0 0 Z " fill="#F5F6F8" transform="translate(252,101)"/>
<path d="M0 0 C3.63863814 3.11883269 6.64442625 6.24577874 8.1875 10.875 C8.4738059 14.93264567 8.46524265 18.99588959 8.5 23.0625 C8.52900391 24.17431641 8.55800781 25.28613281 8.58789062 26.43164062 C8.65092983 34.62188869 7.5786138 39.98519299 2.0625 46.3125 C-3.31433383 49.2346923 -9.2471297 49.65187884 -15.125 47.9375 C-19.66442949 45.94345911 -21.91123062 42.33033511 -23.8125 37.875 C-26.44490936 28.36814582 -26.60808511 13.61362176 -21.8125 4.875 C-16.31188492 -1.55741327 -7.77247873 -3.10899149 0 0 Z M-12.73876953 10.01391602 C-15.13806894 14.17259254 -14.4341674 19.28372204 -14.3125 23.9375 C-14.31507812 25.02611328 -14.31765625 26.11472656 -14.3203125 27.23632812 C-14.34634168 34.15086683 -14.34634168 34.15086683 -10.8125 39.875 C-7.3475 39.38 -7.3475 39.38 -3.8125 38.875 C-1.27588185 34.01399072 -1.48053661 29.28214617 -1.5 23.9375 C-1.48388672 23.05642578 -1.46777344 22.17535156 -1.45117188 21.26757812 C-1.44726752 16.05526814 -1.87511347 12.37085323 -4.8125 7.875 C-8.19836232 5.73062053 -10.13655907 7.30092217 -12.73876953 10.01391602 Z " fill="#FDFDFD" transform="translate(56.8125,309.125)"/>
<path d="M0 0 C4.26530626 3.04664733 6.64756622 6.75760668 7.625 11.875 C7.89873263 15.78805515 7.9022337 19.70338746 7.9375 23.625 C7.96650391 24.68460937 7.99550781 25.74421875 8.02539062 26.8359375 C8.08997539 34.84444832 6.89228518 40.12723171 1.5 46.3125 C-3.97026979 49.28547271 -9.26952178 49.49628865 -15.1875 47.75 C-20.43226193 44.66484592 -23.40926126 41.92651967 -24.98461914 35.953125 C-25.73006588 31.9848682 -25.70268062 28.02590087 -25.6875 24 C-25.70361328 23.15308594 -25.71972656 22.30617188 -25.73632812 21.43359375 C-25.74111704 15.17926839 -25.23842878 8.16624073 -20.95825195 3.24658203 C-14.8571293 -2.03886239 -7.48254489 -2.49418163 0 0 Z M-12.125 8.1875 C-15.54326286 12.80215486 -14.59930204 18.2185139 -14.625 23.75 C-14.645625 24.85214844 -14.66625 25.95429688 -14.6875 27.08984375 C-14.69265625 28.15074219 -14.6978125 29.21164062 -14.703125 30.3046875 C-14.7124707 31.27647949 -14.72181641 32.24827148 -14.73144531 33.24951172 C-14.31385337 36.32539102 -13.56746188 37.69720555 -11.375 39.875 C-8.24913125 40.20897787 -8.24913125 40.20897787 -5.375 39.875 C-2.02730023 34.49034005 -1.91876824 30.01251073 -2 23.875 C-1.98839844 22.9984375 -1.97679687 22.121875 -1.96484375 21.21875 C-1.98817033 16.05580045 -2.41652329 12.29855967 -5.375 7.875 C-8.31133249 6.62705869 -9.51950561 6.23337921 -12.125 8.1875 Z " fill="#FDFDFD" transform="translate(218.375,309.125)"/>
<path d="M0 0 C4.5825371 3.41026017 7.06889437 7.62074758 8.5 13.125 C9.63852493 36.65451527 9.63852493 36.65451527 3.9375 43.9375 C0.41118285 47.59096801 -2.54041729 48.88966835 -7.66796875 49.09375 C-13.36054725 48.88706031 -16.74021185 47.59968629 -20.9375 43.765625 C-25.44176284 37.98174204 -24.67978303 31.14434459 -24.6875 24.1875 C-24.71199219 23.03701172 -24.73648438 21.88652344 -24.76171875 20.70117188 C-24.78599781 13.64001048 -24.13574611 8.98667852 -20.3125 3 C-14.74610326 -2.22903936 -6.99327759 -2.11117814 0 0 Z M-13.3125 10 C-14.83343434 14.56280301 -14.53789483 19.09544568 -14.5625 23.875 C-14.583125 24.86886719 -14.60375 25.86273438 -14.625 26.88671875 C-14.77379484 33.99402811 -14.77379484 33.99402811 -11.3125 40 C-8.3125 40.83333333 -8.3125 40.83333333 -5.3125 40 C-1.09048968 35.35977168 -1.79777051 29.39916011 -1.8125 23.5 C-1.76996094 21.95119141 -1.76996094 21.95119141 -1.7265625 20.37109375 C-1.58569523 14.02051056 -1.58569523 14.02051056 -4.71875 8.78125 C-8.67996875 6.06089495 -9.87311316 7.00440501 -13.3125 10 Z " fill="#FDFDFD" transform="translate(174.3125,309)"/>
<path d="M0 0 C3.72347143 2.27967638 5.22458279 3.90509882 7.0625 7.875 C7.80870649 11.80314358 8.01423 15.26463333 5.93359375 18.78515625 C4.5625 20.4375 4.5625 20.4375 2.0625 22.875 C2.866875 23.638125 3.67125 24.40125 4.5 25.1875 C7.48043469 28.31332175 7.96656588 29.87728519 8.375 34.125 C8.00096474 38.61342307 6.92759636 41.41897751 4.0625 44.875 C-0.72611238 48.29543741 -6.15165373 49.02290885 -11.9375 48.875 C-16.26834891 48.05747626 -19.78815064 46.65081082 -23.4375 44.1875 C-25.63466513 40.80020376 -25.67017519 37.8848722 -25.9375 33.875 C-22.56006599 33.58985079 -19.3028205 33.40911687 -15.9375 33.875 C-14.25 36.375 -14.25 36.375 -12.9375 38.875 C-9.51005771 39.2357834 -7.05627956 39.43438978 -3.9375 37.875 C-3.9375 35.235 -3.9375 32.595 -3.9375 29.875 C-7.58829826 28.26435371 -10.9882432 27.42605909 -14.9375 26.875 C-14.9375 24.235 -14.9375 21.595 -14.9375 18.875 C-13.99777344 18.81892578 -13.99777344 18.81892578 -13.0390625 18.76171875 C-12.22179687 18.69597656 -11.40453125 18.63023437 -10.5625 18.5625 C-9.75039062 18.50449219 -8.93828125 18.44648438 -8.1015625 18.38671875 C-5.55828662 18.04509472 -5.55828662 18.04509472 -3.9375 14.875 C-4.25256627 11.73278033 -4.25256627 11.73278033 -4.9375 8.875 C-7.72178335 8.10158796 -9.41025102 7.69925034 -12.1875 8.625 C-14.25302961 9.84130266 -14.25302961 9.84130266 -14.9375 12.875 C-18.2375 12.875 -21.5375 12.875 -24.9375 12.875 C-25.27520059 9.24471871 -25.22345853 7.34793141 -23.3125 4.1875 C-16.94112512 -2.01620712 -8.31651712 -3.01115275 0 0 Z " fill="#FDFDFD" transform="translate(130.9375,309.125)"/>
<path d="M0 0 C2.31 0 4.62 0 7 0 C8.65 7.26 10.3 14.52 12 22 C13.60306012 15.50869584 13.60306012 15.50869584 15.20092773 9.01611328 C15.40145752 8.20899902 15.6019873 7.40188477 15.80859375 6.5703125 C16.11494751 5.32918701 16.11494751 5.32918701 16.42749023 4.06298828 C17 2 17 2 18 0 C19.98 0 21.96 0 24 0 C26.42080258 6.9165788 28.29977612 13.87352969 30 21 C32.13365222 14.10666207 33.53124742 7.05980405 35 0 C37.64 0 40.28 0 43 0 C41.88369054 5.10968558 40.76258857 10.21828634 39.63696289 15.32592773 C39.2544458 17.06489304 38.87325748 18.80415118 38.4934082 20.54370117 C37.94828908 23.03902482 37.39845414 25.5332683 36.84765625 28.02734375 C36.6778273 28.80963852 36.50799835 29.59193329 36.33302307 30.39793396 C35.11387171 35.88612829 35.11387171 35.88612829 34 37 C31.69 37 29.38 37 27 37 C25.02 29.74 23.04 22.48 21 15 C19.02 22.26 17.04 29.52 15 37 C12.69 37 10.38 37 8 37 C5.8066676 28.98500342 3.69577453 20.95384878 1.75 12.875 C1.57500977 12.16545166 1.40001953 11.45590332 1.21972656 10.72485352 C0.35514732 7.08170448 -0.20412378 3.74712932 0 0 Z " fill="#FDFDFD" transform="translate(126,223)"/>
<path d="M0 0 C3.63 0 7.26 0 11 0 C11 12.87 11 25.74 11 39 C17.93 39 24.86 39 32 39 C32 41.97 32 44.94 32 48 C21.44 48 10.88 48 0 48 C0 32.16 0 16.32 0 0 Z " fill="#FEFEFE" transform="translate(367,309)"/>
<path d="M0 0 C19.53846154 0 19.53846154 0 24.875 4.625 C26.65531656 8.38344606 26.78698864 11.93154982 26 16 C24.56508357 18.44633323 23.05696731 19.99445687 21 22 C21.5053125 22.91523438 22.010625 23.83046875 22.53125 24.7734375 C23.18771927 25.97383845 23.8439573 27.17436587 24.5 28.375 C24.83386719 28.97828125 25.16773438 29.5815625 25.51171875 30.203125 C28 34.7734375 28 34.7734375 28 37 C25.36 37 22.72 37 20 37 C19.56429688 36.07316406 19.12859375 35.14632812 18.6796875 34.19140625 C18.07927492 32.98119965 17.47764831 31.77159483 16.875 30.5625 C16.59140625 29.95083984 16.3078125 29.33917969 16.015625 28.70898438 C15.0365528 26.67116183 15.0365528 26.67116183 13 24 C11.02 23.67 9.04 23.34 7 23 C7 27.62 7 32.24 7 37 C4.69 37 2.38 37 0 37 C0 24.79 0 12.58 0 0 Z M7 6 C7 9.63 7 13.26 7 17 C8.423125 17.061875 9.84625 17.12375 11.3125 17.1875 C12.11300781 17.22230469 12.91351563 17.25710937 13.73828125 17.29296875 C16.06641185 17.18380515 16.06641185 17.18380515 17.765625 15.64453125 C19.19485163 13.99927562 19.19485163 13.99927562 19.4375 11.5 C19.2020974 8.93963041 19.2020974 8.93963041 17.5 7.1875 C13.87730459 5.46671968 10.98961898 5.80051905 7 6 Z " fill="#FDFDFD" transform="translate(276,223)"/>
<path d="M0 0 C2.31 0 4.62 0 7 0 C8.9959551 5.10780988 10.98972717 10.21646422 12.98144531 15.32592773 C13.65987573 17.06542203 14.33891119 18.80468048 15.01855469 20.54370117 C15.99311441 23.03763645 16.96552328 25.53240084 17.9375 28.02734375 C18.24373291 28.80963852 18.54996582 29.59193329 18.86547852 30.39793396 C21 35.88612829 21 35.88612829 21 37 C18.36 37 15.72 37 13 37 C12.01 34.03 11.02 31.06 10 28 C5.71 28 1.42 28 -3 28 C-3.99 30.97 -4.98 33.94 -6 37 C-8.64 37 -11.28 37 -14 37 C-13.68248779 36.16339844 -13.36497559 35.32679688 -13.0378418 34.46484375 C-11.84679903 31.32638197 -10.65589744 28.18786668 -9.46508789 25.04931641 C-8.95212262 23.6974073 -8.43910297 22.34551883 -7.92602539 20.99365234 C-5.27186222 14.00030712 -2.61859914 7.00676358 0 0 Z M3 10 C2.32942113 11.7902061 1.6636531 13.58221489 1 15.375 C0.62875 16.37273437 0.2575 17.37046875 -0.125 18.3984375 C-1.10626277 20.85848061 -1.10626277 20.85848061 -1 23 C1.97 23 4.94 23 8 23 C7.54803755 21.39402675 7.08817673 19.79027492 6.625 18.1875 C6.36976563 17.29417969 6.11453125 16.40085938 5.8515625 15.48046875 C5.04733339 12.79532104 5.04733339 12.79532104 3 10 Z " fill="#FDFDFD" transform="translate(185,223)"/>
<path d="M0 0 C7.92 0 15.84 0 24 0 C24 1.98 24 3.96 24 6 C18.39 6 12.78 6 7 6 C7 8.97 7 11.94 7 15 C11.62 15 16.24 15 21 15 C21 16.98 21 18.96 21 21 C16.38 21 11.76 21 7 21 C7 24.3 7 27.6 7 31 C12.61 31 18.22 31 24 31 C24 32.98 24 34.96 24 37 C16.08 37 8.16 37 0 37 C0 24.79 0 12.58 0 0 Z " fill="#FDFDFD" transform="translate(244,223)"/>
<path d="M0 0 C2.97 0 5.94 0 9 0 C7.38537692 5.01393104 5.76780348 10.02689796 4.14770508 15.0390625 C3.59907804 16.73770546 3.0512029 18.43659149 2.50415039 20.13574219 C-7.16623585 50.16623585 -7.16623585 50.16623585 -9 52 C-11.67058851 52.14115161 -14.32432238 52.04247107 -17 52 C-15.00974288 45.23311452 -12.88689529 38.52322387 -10.64453125 31.8359375 C-10.33803146 30.91785309 -10.03153168 29.99976868 -9.71574402 29.05386353 C-8.74942066 26.16043063 -7.7809988 23.26770536 -6.8125 20.375 C-6.15155299 18.3971821 -5.49074444 16.41931793 -4.83007812 14.44140625 C-3.22165031 9.62706836 -1.61134187 4.81336331 0 0 Z " fill="#FDFDFD" transform="translate(89,309)"/>
<path d="M0 0 C9.57 0 19.14 0 29 0 C29 1.98 29 3.96 29 6 C25.37 6 21.74 6 18 6 C18 16.23 18 26.46 18 37 C15.69 37 13.38 37 11 37 C11 26.77 11 16.54 11 6 C7.37 6 3.74 6 0 6 C0 4.02 0 2.04 0 0 Z " fill="#FEFEFE" transform="translate(207,223)"/>
</svg>
