<?xml version="1.0" encoding="UTF-8"?>
<svg version="1.1" xmlns="http://www.w3.org/2000/svg" width="1788" height="1563">
<path d="M0 0 C590.04 0 1180.08 0 1788 0 C1788 515.79 1788 1031.58 1788 1563 C1197.96 1563 607.92 1563 0 1563 C0 1047.21 0 531.42 0 0 Z " fill="#26262D" transform="translate(0,0)"/>
<path d="M0 0 C0.60199219 0.2578125 1.20398438 0.515625 1.82421875 0.78125 C18.57897806 8.12207761 32.8640517 19.57384635 47 31 C47.94230469 31.75925781 48.88460938 32.51851562 49.85546875 33.30078125 C56.41474514 38.62960175 62.87088432 44.07898466 69.30419922 49.55859375 C71.00234846 51.00199616 72.70590193 52.43881423 74.41015625 53.875 C82.56928991 60.77701756 90.4123224 67.96782697 98.18603516 75.29931641 C100.47911432 77.44919386 102.79679578 79.57125208 105.11621094 81.69262695 C110.65706307 86.76235762 116.02593298 91.95505051 121.26953125 97.33203125 C123.36350916 99.37807834 125.4683408 101.28725865 127.68603516 103.19042969 C131.87522491 106.84317939 135.83095074 110.68608062 139.75390625 114.62109375 C140.45845444 115.32468521 141.16300262 116.02827667 141.88890076 116.75318909 C143.36653367 118.23014648 144.84292457 119.70834742 146.31811523 121.18774414 C148.55666481 123.43165085 150.80050473 125.67016704 153.04492188 127.90820312 C154.48990404 129.35384618 155.93457592 130.79979945 157.37890625 132.24609375 C158.03951553 132.9046788 158.70012482 133.56326385 159.38075256 134.24180603 C163.78466499 138.66760256 167.93401889 143.26327072 172 148 C172.98487178 149.12960888 173.97041577 150.25863253 174.95703125 151.38671875 C181.60096281 159.04459745 187.95793675 166.85701628 194 175 C194.49081055 175.6595166 194.98162109 176.3190332 195.48730469 176.99853516 C212.0764284 199.38093228 226.99425597 222.88931536 239.05566406 248.03320312 C240.04549174 250.09474702 241.05012583 252.14872565 242.0546875 254.203125 C246.0555331 262.46332949 249.57289057 270.78818106 252.6953125 279.41796875 C253.77889832 282.39296336 254.92049641 285.32277616 256.125 288.25 C273.19020204 330.7731264 280.86139895 380.58108978 274 426 C273.89284668 426.70979004 273.78569336 427.41958008 273.67529297 428.15087891 C272.89924436 433.12459365 271.97905578 438.06269668 271 443 C270.86368164 443.70946777 270.72736328 444.41893555 270.58691406 445.14990234 C261.75942246 490.5411496 238.52307379 532.68171144 207.265625 566.5234375 C205.4103258 568.55147145 203.60804994 570.6072138 201.8125 572.6875 C173.7831406 604.76056165 138.36551949 626.39818311 99 642 C98.22462891 642.3088916 97.44925781 642.6177832 96.65039062 642.93603516 C73.58736662 651.95578133 48.48526813 657.60992039 24 661 C22.97100586 661.14808105 21.94201172 661.29616211 20.88183594 661.44873047 C-27.32673835 668.14716982 -76.64553876 663.86877455 -123 649 C-123.94262695 648.69900391 -124.88525391 648.39800781 -125.85644531 648.08789062 C-166.25005866 635.01527835 -202.77299064 616.20515904 -235.02734375 588.54296875 C-237.0578675 586.8059504 -239.09843159 585.10221719 -241.16796875 583.4140625 C-243.49748308 581.42835235 -245.4308369 579.53135145 -247.375 577.1875 C-249.73776043 574.40595709 -252.1720096 571.83079467 -254.8125 569.3125 C-276.28930177 547.91782749 -292.04581373 517.39349218 -303.0625 489.4375 C-303.52785156 488.26058594 -303.99320313 487.08367187 -304.47265625 485.87109375 C-304.83351318 484.94731934 -304.83351318 484.94731934 -305.20166016 484.00488281 C-305.76861948 482.58106937 -306.35354361 481.16435147 -306.95068359 479.75292969 C-309.73071774 473.09530339 -311.71038221 466.35907216 -313.5 459.375 C-313.80115723 458.20582031 -314.10231445 457.03664063 -314.41259766 455.83203125 C-328.28655644 400.48545872 -324.62260774 340.31361207 -302.98022461 287.40771484 C-302.07016018 285.17233367 -301.20331722 282.9260852 -300.3515625 280.66796875 C-282.43983434 233.81868561 -255.01845831 191.41393747 -223 153 C-222.51934082 152.42024414 -222.03868164 151.84048828 -221.54345703 151.24316406 C-215.41384838 143.85885816 -209.07453266 136.7112751 -202.53979492 129.68334961 C-201.40508847 128.44285477 -200.28494269 127.18900289 -199.1730957 125.92797852 C-192.83624821 118.76263078 -186.14354908 111.99079297 -179.37036133 105.23999023 C-177.43389451 103.30890453 -175.50286044 101.37250118 -173.57226562 99.43554688 C-168.07369705 93.93401726 -162.59831017 88.46151506 -156.66674805 83.42163086 C-153.92245607 81.08092305 -151.31770205 78.59208552 -148.6875 76.125 C-143.8935086 71.66495644 -138.97489004 67.43690447 -133.8671875 63.3359375 C-130.58420303 60.66124443 -127.38760296 57.89765875 -124.1875 55.125 C-117.29682372 49.18559962 -110.21085003 43.54418325 -103 38 C-102.21705566 37.39639648 -101.43411133 36.79279297 -100.62744141 36.17089844 C-94.4455385 31.41084505 -88.23108096 26.69543152 -82 22 C-81.19949219 21.39269043 -80.39898438 20.78538086 -79.57421875 20.15966797 C-56.45077835 2.67620957 -29.25482998 -12.61973058 0 0 Z " fill="#26262D" transform="translate(909,71)"/>
<path d="M0 0 C0.60199219 0.2578125 1.20398438 0.515625 1.82421875 0.78125 C18.57897806 8.12207761 32.8640517 19.57384635 47 31 C47.94230469 31.75925781 48.88460938 32.51851562 49.85546875 33.30078125 C56.41474514 38.62960175 62.87088432 44.07898466 69.30419922 49.55859375 C71.00234846 51.00199616 72.70590193 52.43881423 74.41015625 53.875 C82.56928991 60.77701756 90.4123224 67.96782697 98.18603516 75.29931641 C100.47911432 77.44919386 102.79679578 79.57125208 105.11621094 81.69262695 C110.65706307 86.76235762 116.02593298 91.95505051 121.26953125 97.33203125 C123.36350916 99.37807834 125.4683408 101.28725865 127.68603516 103.19042969 C131.87522491 106.84317939 135.83095074 110.68608062 139.75390625 114.62109375 C140.45845444 115.32468521 141.16300262 116.02827667 141.88890076 116.75318909 C143.36653367 118.23014648 144.84292457 119.70834742 146.31811523 121.18774414 C148.55666481 123.43165085 150.80050473 125.67016704 153.04492188 127.90820312 C154.48990404 129.35384618 155.93457592 130.79979945 157.37890625 132.24609375 C158.03951553 132.9046788 158.70012482 133.56326385 159.38075256 134.24180603 C163.78466499 138.66760256 167.93401889 143.26327072 172 148 C172.98487178 149.12960888 173.97041577 150.25863253 174.95703125 151.38671875 C181.60096281 159.04459745 187.95793675 166.85701628 194 175 C194.49081055 175.6595166 194.98162109 176.3190332 195.48730469 176.99853516 C212.0764284 199.38093228 226.99425597 222.88931536 239.05566406 248.03320312 C240.04549174 250.09474702 241.05012583 252.14872565 242.0546875 254.203125 C246.0555331 262.46332949 249.57289057 270.78818106 252.6953125 279.41796875 C253.77889832 282.39296336 254.92049641 285.32277616 256.125 288.25 C273.19020204 330.7731264 280.86139895 380.58108978 274 426 C273.89284668 426.70979004 273.78569336 427.41958008 273.67529297 428.15087891 C272.89924436 433.12459365 271.97905578 438.06269668 271 443 C270.86368164 443.70946777 270.72736328 444.41893555 270.58691406 445.14990234 C261.75942246 490.5411496 238.52307379 532.68171144 207.265625 566.5234375 C205.4103258 568.55147145 203.60804994 570.6072138 201.8125 572.6875 C173.7831406 604.76056165 138.36551949 626.39818311 99 642 C98.22462891 642.3088916 97.44925781 642.6177832 96.65039062 642.93603516 C73.58736662 651.95578133 48.48526813 657.60992039 24 661 C22.97100586 661.14808105 21.94201172 661.29616211 20.88183594 661.44873047 C-27.32673835 668.14716982 -76.64553876 663.86877455 -123 649 C-123.94262695 648.69900391 -124.88525391 648.39800781 -125.85644531 648.08789062 C-166.25005866 635.01527835 -202.77299064 616.20515904 -235.02734375 588.54296875 C-237.0578675 586.8059504 -239.09843159 585.10221719 -241.16796875 583.4140625 C-243.49748308 581.42835235 -245.4308369 579.53135145 -247.375 577.1875 C-249.73776043 574.40595709 -252.1720096 571.83079467 -254.8125 569.3125 C-276.28930177 547.91782749 -292.04581373 517.39349218 -303.0625 489.4375 C-303.52785156 488.26058594 -303.99320313 487.08367187 -304.47265625 485.87109375 C-304.83351318 484.94731934 -304.83351318 484.94731934 -305.20166016 484.00488281 C-305.76861948 482.58106937 -306.35354361 481.16435147 -306.95068359 479.75292969 C-309.73071774 473.09530339 -311.71038221 466.35907216 -313.5 459.375 C-313.80115723 458.20582031 -314.10231445 457.03664063 -314.41259766 455.83203125 C-328.28655644 400.48545872 -324.62260774 340.31361207 -302.98022461 287.40771484 C-302.07016018 285.17233367 -301.20331722 282.9260852 -300.3515625 280.66796875 C-282.43983434 233.81868561 -255.01845831 191.41393747 -223 153 C-222.51934082 152.42024414 -222.03868164 151.84048828 -221.54345703 151.24316406 C-215.41384838 143.85885816 -209.07453266 136.7112751 -202.53979492 129.68334961 C-201.40508847 128.44285477 -200.28494269 127.18900289 -199.1730957 125.92797852 C-192.83624821 118.76263078 -186.14354908 111.99079297 -179.37036133 105.23999023 C-177.43389451 103.30890453 -175.50286044 101.37250118 -173.57226562 99.43554688 C-168.07369705 93.93401726 -162.59831017 88.46151506 -156.66674805 83.42163086 C-153.92245607 81.08092305 -151.31770205 78.59208552 -148.6875 76.125 C-143.8935086 71.66495644 -138.97489004 67.43690447 -133.8671875 63.3359375 C-130.58420303 60.66124443 -127.38760296 57.89765875 -124.1875 55.125 C-117.29682372 49.18559962 -110.21085003 43.54418325 -103 38 C-102.21705566 37.39639648 -101.43411133 36.79279297 -100.62744141 36.17089844 C-94.4455385 31.41084505 -88.23108096 26.69543152 -82 22 C-81.19949219 21.39269043 -80.39898438 20.78538086 -79.57421875 20.15966797 C-56.45077835 2.67620957 -29.25482998 -12.61973058 0 0 Z M-38 80 C-38.91652344 80.48597656 -39.83304688 80.97195312 -40.77734375 81.47265625 C-56.75017205 90.35111403 -71.27748085 102.92114945 -83.98828125 115.984375 C-85.94342337 117.94331351 -87.96340182 119.75979286 -90.0625 121.5625 C-95.44626898 126.19852329 -100.46461874 131.14356852 -105.0625 136.5625 C-108.66116102 140.75955269 -112.57459415 144.61262642 -116.5 148.5 C-122.17500746 154.08544012 -122.17500746 154.08544012 -127.5 160 C-130.9281918 164.07097777 -134.72226884 167.75769784 -138.5 171.5 C-143.54857413 176.51083005 -148.42476504 181.54993989 -153 187 C-153.86496094 187.98742187 -154.72992187 188.97484375 -155.62109375 189.9921875 C-180.95272518 218.95464403 -202.18588957 251.29353289 -218.97607422 285.89453125 C-219.68643006 287.35521526 -220.40196809 288.81338601 -221.12158203 290.26953125 C-225.92422837 299.99171586 -230.19789267 309.67568954 -233.61328125 319.97265625 C-234.61369707 322.96979138 -235.74642878 325.88757081 -236.94140625 328.8125 C-243.11235507 344.08192254 -247.43626839 359.51289287 -248 376 C-248.04237793 377.21010742 -248.08475586 378.42021484 -248.12841797 379.66699219 C-249.63107721 428.16041519 -234.81101935 469.43518492 -205.59960938 507.88037109 C-204.18450278 509.75551692 -202.79581945 511.64539508 -201.421875 513.55078125 C-186.71400559 533.78695822 -165.46374729 547.12456117 -143.79980469 559.00537109 C-141.92074566 560.04379845 -140.05872287 561.10956436 -138.1953125 562.17578125 C-102.64914394 582.148022 -62.14039458 589.46403981 -21.8125 589.3125 C-20.82786774 589.31100952 -19.84323547 589.30951904 -18.82876587 589.3079834 C1.66756269 589.25227612 21.24472206 587.76505056 41 582 C41.79921875 581.7740918 42.5984375 581.54818359 43.421875 581.31542969 C46.03476128 580.57610164 48.64305354 579.82249365 51.25 579.0625 C52.43770996 578.71964966 52.43770996 578.71964966 53.64941406 578.36987305 C86.6258559 568.47898196 118.74646706 549.41791378 143.47412109 525.47460938 C144.53057522 524.45365211 145.59389417 523.43976855 146.66259766 522.43164062 C156.22565493 513.40510672 164.36278916 503.6987628 172 493 C172.67675781 492.05769531 173.35351562 491.11539062 174.05078125 490.14453125 C186.0224827 472.39338772 194.04236596 450.97060715 198 430 C198.15098145 429.2044873 198.30196289 428.40897461 198.45751953 427.58935547 C203.69036595 398.69297921 202.95186767 367.10133218 194 339 C193.6604126 337.8877002 193.6604126 337.8877002 193.31396484 336.75292969 C176.84174815 282.93281573 146.76005671 235.00707469 111 192 C110.51063965 191.41009277 110.0212793 190.82018555 109.51708984 190.21240234 C98.04811288 176.44574877 85.63860053 163.56551459 73 150.875 C72.22325928 150.09358643 71.44651855 149.31217285 70.64624023 148.50708008 C66.48857452 144.36103419 62.24498415 140.38135086 57.79541016 136.55029297 C55.37656823 134.46168184 53.03479219 132.29341611 50.6875 130.125 C46.25503526 126.08720678 41.72257823 122.22692566 37.0546875 118.46484375 C34.8168842 116.65914825 32.59518101 114.84020688 30.3828125 113.00390625 C20.56210482 104.88341167 10.40436025 97.35282675 0 90 C-1.60421662 88.86204959 -3.20838313 87.72402852 -4.8125 86.5859375 C-20.28503461 75.18051266 -20.28503461 75.18051266 -38 80 Z " fill="#F4F5F7" transform="translate(909,71)"/>
<path d="M0 0 C1.22976563 -0.01160156 1.22976563 -0.01160156 2.484375 -0.0234375 C11.87497237 0.00675735 18.22841818 3.25500008 25.375 9.25 C37.50500985 22.67090998 37.13783447 37.97724798 36.375 55.25 C34.9296847 79.01740723 26.5941779 101.43425257 15.375 122.25 C14.89546875 123.16007813 14.4159375 124.07015625 13.921875 125.0078125 C10.03952219 131.94696035 4.94227729 137.80344891 -0.29492188 143.74072266 C-1.44092052 145.04111979 -2.5733573 146.35344581 -3.703125 147.66796875 C-28.15545584 175.63411879 -66.1541346 209.62104108 -105.57714844 212.38696289 C-116.29050714 212.87255091 -125.55651889 212.30615953 -135.625 208.25 C-136.40359375 208.03085937 -137.1821875 207.81171875 -137.984375 207.5859375 C-141.9853597 206.21717957 -143.32967604 204.78495086 -145.40625 201.0234375 C-149.79417461 191.43076118 -150.80679649 183.81242165 -150.8125 173.375 C-150.82474609 172.20324219 -150.83699219 171.03148437 -150.84960938 169.82421875 C-150.85154297 168.68855469 -150.85347656 167.55289063 -150.85546875 166.3828125 C-150.85957764 165.35043457 -150.86368652 164.31805664 -150.86791992 163.25439453 C-150.44901791 158.07348175 -148.98922983 154.15065282 -145.5 150.3125 C-144.96117187 149.70535156 -144.42234375 149.09820313 -143.8671875 148.47265625 C-137.29685742 141.95955901 -131.07956509 137.58472653 -122.625 133.75 C-121.10531616 133.039646 -121.10531616 133.039646 -119.55493164 132.31494141 C-114.41385023 129.92622192 -109.239005 127.63953441 -104.01220703 125.44580078 C-91.32695991 120.10548012 -80.42009116 113.02737851 -70.625 103.25 C-69.72587891 102.36828125 -69.72587891 102.36828125 -68.80859375 101.46875 C-52.1509937 83.84493185 -45.3645427 60.41307717 -41.55859375 37.09179688 C-39.66393973 26.11911517 -36.53657114 15.46810803 -28.625 7.25 C-19.84994302 1.65753831 -10.22087226 -0.09734164 0 0 Z " fill="#F4F5F7" transform="translate(1036.625,419.75)"/>
<path d="M0 0 C9.57 0 19.14 0 29 0 C30.5472359 3.86808975 31.59044138 7.16267525 32.48046875 11.1796875 C32.7539917 12.40349121 33.02751465 13.62729492 33.30932617 14.88818359 C33.60207591 16.21711686 33.89479985 17.54605581 34.1875 18.875 C34.49474916 20.2548202 34.80245536 21.6345387 35.1105957 23.01416016 C35.75263034 25.89054989 36.39268152 28.76737008 37.03125 31.64453125 C38.42045506 37.89804828 39.82972225 44.14702824 41.24084473 50.39562988 C41.68460654 52.36217754 42.12706153 54.3290158 42.56933594 56.29589844 C43.79206882 61.72046252 45.02204255 67.14170302 46.328125 72.546875 C46.51930908 73.33916504 46.71049316 74.13145508 46.9074707 74.94775391 C47.38943397 76.92755512 47.87980053 78.90530589 48.37109375 80.8828125 C48.93902582 83.69778017 49.13483865 86.14142061 49 89 C49.66 89 50.32 89 51 89 C51.13341797 87.46472656 51.13341797 87.46472656 51.26953125 85.8984375 C52.00852221 80.01488291 53.623812 74.35249097 55.15145874 68.63336182 C58.03228055 57.83991555 60.74016779 47.02616103 63.1875 36.125 C68.99171883 10.51449204 68.99171883 10.51449204 75 0 C83.25 0 91.5 0 100 0 C103.09164604 7.7291151 105.80007314 15.26505851 108.25 23.1875 C108.63623535 24.43329834 109.0224707 25.67909668 109.42041016 26.96264648 C113.4364468 40.054359 116.84450756 53.29505179 120.14746094 66.58251953 C120.71995118 68.8773988 121.30146744 71.17004366 121.89160156 73.46044922 C122.16713867 74.53439941 122.44267578 75.60834961 122.7265625 76.71484375 C122.97229004 77.66351318 123.21801758 78.61218262 123.47119141 79.58959961 C124 82 124 82 124 85 C124.66 85 125.32 85 126 85 C126.226875 83.72125 126.45375 82.4425 126.6875 81.125 C127.63480188 76.36199266 128.90515593 71.72487089 130.25 67.0625 C134.48908969 52.18291502 137.57343307 37.00481978 140.6796875 21.85546875 C140.81719925 21.1856749 140.954711 20.51588104 141.09638977 19.82579041 C141.76562376 16.56118173 142.42866501 13.2955723 143.08374023 10.02807617 C143.32036377 8.86123291 143.5569873 7.69438965 143.80078125 6.4921875 C144.00872314 5.45433105 144.21666504 4.41647461 144.4309082 3.34716797 C145 1 145 1 146 0 C148.44830426 -0.08843793 150.86820599 -0.11528752 153.31640625 -0.09765625 C154.04746078 -0.0962413 154.77851532 -0.09482635 155.53172302 -0.09336853 C157.87535632 -0.08775408 160.21889539 -0.07519922 162.5625 -0.0625 C164.14778508 -0.05748686 165.73307166 -0.05292363 167.31835938 -0.04882812 C171.2122761 -0.03777997 175.10612205 -0.02050572 179 0 C178.36979897 9.026964 176.4470902 17.64356127 174.4375 26.4375 C174.07696818 28.03650714 173.7169521 29.63563064 173.35742188 31.23486328 C171.58572669 39.0981005 169.78308291 46.95419679 167.97265625 54.80859375 C167.47909567 56.95116969 166.98564359 59.09377048 166.49240112 61.23641968 C166.16320033 62.66619371 165.83371057 64.09590124 165.50393677 65.52554321 C163.00289824 76.38320568 160.65417081 87.26721645 158.38464355 98.17550659 C155.94279023 109.91175553 153.48839235 121.64109958 150.75 133.3125 C150.52812012 134.2833252 150.30624023 135.25415039 150.07763672 136.25439453 C146.71131105 150.28868895 146.71131105 150.28868895 142 155 C139.01904297 155.22705078 139.01904297 155.22705078 135.2421875 155.1953125 C134.57913605 155.1924826 133.91608459 155.18965271 133.23294067 155.18673706 C131.11344417 155.17553435 128.99436896 155.15043051 126.875 155.125 C125.43880818 155.11497028 124.00260975 155.10584441 122.56640625 155.09765625 C119.04413372 155.075595 115.52210797 155.04106494 112 155 C104 125.66666667 96 96.33333333 88 67 C87.67 67 87.34 67 87 67 C86.8141333 67.72888428 86.6282666 68.45776855 86.43676758 69.20874023 C80.19741275 93.6220186 80.19741275 93.6220186 77.5 102.5 C74.9383773 110.93570698 72.78709746 119.47154343 70.60131836 128.01098633 C68.26926912 137.07649859 65.71229539 146.04120614 63 155 C53.1 155 43.2 155 33 155 C30.01888059 145.11971854 27.25819275 135.24746297 24.80371094 125.22436523 C23.65468971 120.55320736 22.43060102 115.92560096 21.0625 111.3125 C18.84896096 103.75255014 17.08616042 96.09289848 15.27929688 88.42724609 C13.84445967 82.38312921 12.30508219 76.3993066 10.5625 70.4375 C8.09272253 61.87779012 6.16963167 53.19559814 4.25 44.5 C4.01774216 43.46043655 4.01774216 43.46043655 3.78079224 42.39987183 C1.26925796 31.11962593 -0.17926387 20.4294563 -0.0625 8.875 C-0.041875 5.94625 -0.02125 3.0175 0 0 Z " fill="#FAFAFA" transform="translate(525,929)"/>
<path d="M0 0 C81.36561743 0 81.36561743 0 101.87890625 17.61328125 C111.22502113 27.05309152 110.36107961 40.5032832 110.38037109 52.7980957 C110.14568693 70.16343416 100.43746828 79.95281374 89 92 C90.44395066 95.81928455 92.18475128 99.35416029 94.125 102.9453125 C94.74487793 104.09652588 95.36475586 105.24773926 96.00341797 106.43383789 C96.32969177 107.03696808 96.65596558 107.64009827 96.99212646 108.26150513 C98.69053163 111.40174962 100.37957644 114.54702825 102.0703125 117.69140625 C102.40636505 118.31577072 102.7424176 118.94013519 103.08865356 119.5834198 C106.03852104 125.06531898 108.96778879 130.55784444 111.875 136.0625 C112.28492188 136.83416504 112.69484375 137.60583008 113.1171875 138.40087891 C116.48314216 144.7865507 117 147.32052751 117 155 C105.78 155 94.56 155 83 155 C78.74813421 146.57803506 74.58613387 138.14225524 70.60571289 129.58837891 C68.58296983 125.29456996 66.48403621 121.04104424 64.36523438 116.79394531 C63.21190176 114.43365588 62.15228731 112.05828498 61.109375 109.6484375 C59.20727727 105.54325083 59.20727727 105.54325083 54 101 C45.75 99.68 37.5 98.36 29 97 C29 116.14 29 135.28 29 155 C19.43 155 9.86 155 0 155 C0 103.85 0 52.7 0 0 Z " fill="#FBFBFB" transform="translate(1150,929)"/>
<path d="M0 0 C9.57 0 19.14 0 29 0 C36.51484202 18.03562085 43.97029982 36.08138196 50.8671875 54.36328125 C53.39737198 61.06814929 55.97691005 67.75383929 58.5625 74.4375 C58.93450531 75.39970459 58.93450531 75.39970459 59.31402588 76.38134766 C62.46385884 84.52344977 65.64583658 92.65235729 68.859375 100.76953125 C69.35201088 102.01439552 69.35201088 102.01439552 69.854599 103.28440857 C71.45297936 107.32180659 73.05429709 111.35800208 74.66040039 115.39233398 C77.8036725 123.3032231 80.89043623 131.23532449 83.88671875 139.203125 C84.18447708 139.98016785 84.48223541 140.75721069 84.78901672 141.55780029 C85.06448837 142.29830627 85.33996002 143.03881226 85.6237793 143.80175781 C85.86605759 144.44493958 86.10833588 145.08812134 86.35795593 145.75079346 C87.21745846 148.76179973 87.55717039 151.9001927 88 155 C76.78 155 65.56 155 54 155 C53.14535156 152.48503906 52.29070312 149.97007812 51.41015625 147.37890625 C50.58346913 144.95280224 49.75577379 142.52704445 48.92797852 140.10131836 C48.35172591 138.41092321 47.77652768 136.72016825 47.20239258 135.02905273 C46.37856336 132.60305696 45.55099255 130.17836623 44.72265625 127.75390625 C44.46533218 126.99348526 44.20800812 126.23306427 43.94288635 125.44960022 C42.95298444 121.95329667 42.95298444 121.95329667 41 119 C39.31290653 118.87700834 37.62079097 118.82214742 35.92944336 118.79467773 C34.84839828 118.77473251 33.76735321 118.75478729 32.65354919 118.73423767 C31.4775264 118.71752518 30.3015036 118.70081268 29.08984375 118.68359375 C27.29408653 118.6524221 27.29408653 118.6524221 25.46205139 118.62062073 C21.62059513 118.55499721 17.77906799 118.49618097 13.9375 118.4375 C11.34048733 118.39432695 8.74348194 118.35071307 6.14648438 118.30664062 C-0.23560117 118.19930284 -6.61775793 118.09756069 -13 118 C-13.19032303 118.715616 -13.38064606 119.43123199 -13.57673645 120.16853333 C-14.99006796 125.42643104 -16.46098589 130.62049595 -18.26171875 135.76171875 C-18.61967529 136.78998779 -18.97763184 137.81825684 -19.34643555 138.87768555 C-19.78898682 140.13492432 -20.23153809 141.39216309 -20.6875 142.6875 C-22.110625 146.750625 -23.53375 150.81375 -25 155 C-36.22 155 -47.44 155 -59 155 C-48.92695058 126.57468247 -48.92695058 126.57468247 -44.7578125 116.02661133 C-41.43888753 107.62462217 -38.265408 99.16727349 -35.08227539 90.71313477 C-32.8278234 84.74478927 -30.5263008 78.80310207 -28.12890625 72.890625 C-23.97822089 62.61758349 -20.28586294 52.17202769 -16.53173828 41.74926758 C-13.07324208 32.15836954 -9.57269714 22.64517319 -5.43945312 13.32055664 C-3.53187193 8.92011366 -1.78123415 4.45308537 0 0 Z " fill="#F9F9F9" transform="translate(771,929)"/>
<path d="M0 0 C0.93147858 0.00359528 1.86295715 0.00719055 2.82266235 0.01089478 C3.79816544 0.01074875 4.77366852 0.01060272 5.7787323 0.01045227 C9.01987899 0.01115184 12.260969 0.01894626 15.50210571 0.02676392 C17.74270089 0.02862794 19.98329648 0.03005192 22.22389221 0.03105164 C28.13404456 0.03487804 34.04417251 0.04470936 39.95431519 0.05575562 C45.98000763 0.06596711 52.005704 0.07054869 58.03140259 0.07559204 C69.86409735 0.08633152 81.69676756 0.10392931 93.52944946 0.12442017 C93.52944946 8.70442017 93.52944946 17.28442017 93.52944946 26.12442017 C70.09944946 26.12442017 46.66944946 26.12442017 22.52944946 26.12442017 C22.52944946 38.33442017 22.52944946 50.54442017 22.52944946 63.12442017 C41.66944946 63.12442017 60.80944946 63.12442017 80.52944946 63.12442017 C80.52944946 71.37442017 80.52944946 79.62442017 80.52944946 88.12442017 C61.38944946 88.12442017 42.24944946 88.12442017 22.52944946 88.12442017 C22.52944946 101.98442017 22.52944946 115.84442017 22.52944946 130.12442017 C45.95944946 130.12442017 69.38944946 130.12442017 93.52944946 130.12442017 C93.52944946 138.37442017 93.52944946 146.62442017 93.52944946 155.12442017 C60.19944946 155.12442017 26.86944946 155.12442017 -7.47055054 155.12442017 C-7.51085357 116.54546019 -7.51085357 116.54546019 -7.51937866 100.43106079 C-7.52532201 89.28595522 -7.53232465 78.14085719 -7.54598999 66.99575806 C-7.5559358 58.88036657 -7.56240372 50.76498117 -7.56463903 42.64958376 C-7.56594632 38.34982229 -7.56903327 34.05007824 -7.57628059 29.75032234 C-7.58303918 25.70799175 -7.58516783 21.66568585 -7.58365822 17.62335014 C-7.58393462 16.13537843 -7.5859407 14.64740594 -7.58975601 13.15943909 C-7.59469067 11.13666879 -7.5929487 9.11388541 -7.59080505 7.09111023 C-7.59172685 5.95638307 -7.59264864 4.8216559 -7.59359837 3.65254307 C-7.35068854 -1.33824706 -4.27671806 0.0069757 0 0 Z " fill="#F9F9F9" transform="translate(1023.4705505371094,928.8755798339844)"/>
<path d="M0 0 C40.26 0 80.52 0 122 0 C122 8.58 122 17.16 122 26 C106.82 26 91.64 26 76 26 C76 68.57 76 111.14 76 155 C66.1 155 56.2 155 46 155 C46 112.43 46 69.86 46 26 C30.82 26 15.64 26 0 26 C0 17.42 0 8.84 0 0 Z " fill="#F7F7F8" transform="translate(862,929)"/>
<path d="M0 0 C4.41375 -0.061875 8.8275 -0.12375 13.375 -0.1875 C15.43113525 -0.22846802 15.43113525 -0.22846802 17.52880859 -0.27026367 C24.92196138 -0.32007987 31.07965269 0.4021775 38 3 C39.2375 3.391875 40.475 3.78375 41.75 4.1875 C46.35959518 6.75823577 49.05770379 9.00356311 51 14 C51.4762263 17.02560981 51.5955557 20.00246197 51.625 23.0625 C51.63587646 23.83021729 51.64675293 24.59793457 51.65795898 25.38891602 C51.52494812 30.74562625 50.34178116 34.73545756 47 39 C46.47881592 39.72388916 45.95763184 40.44777832 45.4206543 41.19360352 C41.98148054 45.1000118 38.89734268 47.1101273 33.71044922 47.6328125 C28.60301812 47.87978339 23.54709474 47.69566542 18.4375 47.5 C12.353125 47.335 6.26875 47.17 0 47 C0 31.49 0 15.98 0 0 Z " fill="#292930" transform="translate(1179,954)"/>
<path d="M0 0 C7.71145737 6.83014795 10.83647599 15.60927147 13.625 25.3125 C13.92349854 26.32417236 14.22199707 27.33584473 14.52954102 28.37817383 C20 47.07153944 20 47.07153944 20 53 C8.12 53 -3.76 53 -16 53 C-16 40.62591549 -16 40.62591549 -13.76953125 35.0390625 C-13.29580078 33.82476563 -12.82207031 32.61046875 -12.33398438 31.359375 C-11.82734574 30.11437045 -11.32018292 28.86957908 -10.8125 27.625 C-10.32974609 26.40039062 -9.84699219 25.17578125 -9.34960938 23.9140625 C-8.38830842 21.47790651 -7.41984607 19.04456286 -6.44384766 16.61425781 C-4.23999747 11.097552 -2.11886208 5.54987153 0 0 Z " fill="#29292F" transform="translate(783,972)"/>
</svg>
